<svg xmlns="http://www.w3.org/2000/svg" xmlns:xlink="http://www.w3.org/1999/xlink" width="957" height="626" viewBox="0 0 957 626">
  <defs>
    <clipPath id="clip-path">
      <rect id="Rectangle_16623" data-name="Rectangle 16623" width="1022" height="696" transform="translate(879 334)" fill="#fff" stroke="#707070" stroke-width="1"/>
    </clipPath>
    <clipPath id="clip-Identity">
      <rect width="957" height="626"/>
    </clipPath>
  </defs>
  <g id="Identity" clip-path="url(#clip-Identity)">
    <g id="Mask_Group_1" data-name="Mask Group 1" transform="translate(-941 -402)" opacity="0.4" clip-path="url(#clip-path)">
      <g id="menu" transform="matrix(0.891, -0.454, 0.454, 0.891, 922.367, 743.381)">
        <path id="Path_1788" data-name="Path 1788" d="M801.693,368.346c-24.088-24.088-58.775-10.6-82.382-34.205s-10.6-58.775-34.205-82.141-57.812-10.117-81.9-34.205-6.263-59.98-31.556-85.031-59.98-6.5-85.272-31.556-8.431-59.257-32.76-83.586A68.892,68.892,0,0,0,410.5,1H73.265A72.265,72.265,0,0,0,1,73.265V747.735A72.265,72.265,0,0,0,73.265,820H747.735A72.265,72.265,0,0,0,820,747.735V416.281a84.309,84.309,0,0,0-18.307-47.935Z" transform="translate(0 0)" fill="#ebebec"/>
        <circle id="Ellipse_367" data-name="Ellipse 367" cx="37.614" cy="37.614" r="37.614" transform="translate(615.212 130.56)" fill="#ebebec"/>
        <circle id="Ellipse_368" data-name="Ellipse 368" cx="25.076" cy="25.076" r="25.076" transform="translate(744.772 142.756)" fill="#ebebec"/>
        <circle id="Ellipse_369" data-name="Ellipse 369" cx="37.614" cy="37.614" r="37.614" transform="translate(732.234 245.725)" fill="#ebebec"/>
        <circle id="Ellipse_370" data-name="Ellipse 370" cx="12.538" cy="12.538" r="12.538" transform="translate(754.803 41.121)" fill="#ebebec"/>
        <circle id="Ellipse_371" data-name="Ellipse 371" cx="25.076" cy="25.076" r="25.076" transform="translate(628.092 28.584)" fill="#ebebec"/>
        <circle id="Ellipse_372" data-name="Ellipse 372" cx="37.614" cy="37.614" r="37.614" transform="translate(500.047 16.046)" fill="#ebebec"/>
      </g>
    </g>
    <path id="Path_16831" data-name="Path 16831" d="M347.884,350.354,204.116,435.263,56.883,350.354-.012,62.789,204.116,0,402.988,62.789ZM284.722,182.066c-13.632,8.4-24.289,21.429-24.289,21.429l16.231-35.841c-7.884-29.227-37.112-51.032-72.461-51.032-41.444,0-75.032,29.8-75.032,66.57a57.746,57.746,0,0,0,1.733,12.476c-24.433,2.31-43.783,22.3-43.783,47.422a46.162,46.162,0,0,0,4.245,18.541H309.242c6.643-8.809,10.628-18.946,10.628-29.92C319.87,210.745,305.6,192.839,284.722,182.066Z" transform="matrix(0.966, -0.259, 0.259, 0.966, 255.011, 371.298)" fill="#fff" fill-rule="evenodd"/>
  </g>
</svg>
