<svg xmlns="http://www.w3.org/2000/svg" xmlns:xlink="http://www.w3.org/1999/xlink" width="957" height="626" viewBox="0 0 957 626">
  <defs>
    <clipPath id="clip-path">
      <rect id="Rectangle_16623" data-name="Rectangle 16623" width="1022" height="696" transform="translate(879 334)" fill="#fff" stroke="#707070" stroke-width="1"/>
    </clipPath>
    <clipPath id="clip-Network">
      <rect width="957" height="626"/>
    </clipPath>
  </defs>
  <g id="Network" clip-path="url(#clip-Network)">
    <g id="Mask_Group_1" data-name="Mask Group 1" transform="translate(-941 -402)" opacity="0.4" clip-path="url(#clip-path)">
      <g id="menu" transform="matrix(0.891, -0.454, 0.454, 0.891, 922.367, 743.381)">
        <path id="Path_1788" data-name="Path 1788" d="M801.693,368.346c-24.088-24.088-58.775-10.6-82.382-34.205s-10.6-58.775-34.205-82.141-57.812-10.117-81.9-34.205-6.263-59.98-31.556-85.031-59.98-6.5-85.272-31.556-8.431-59.257-32.76-83.586A68.892,68.892,0,0,0,410.5,1H73.265A72.265,72.265,0,0,0,1,73.265V747.735A72.265,72.265,0,0,0,73.265,820H747.735A72.265,72.265,0,0,0,820,747.735V416.281a84.309,84.309,0,0,0-18.307-47.935Z" transform="translate(0 0)" fill="#ebebec"/>
        <circle id="Ellipse_367" data-name="Ellipse 367" cx="37.614" cy="37.614" r="37.614" transform="translate(615.212 130.56)" fill="#ebebec"/>
        <circle id="Ellipse_368" data-name="Ellipse 368" cx="25.076" cy="25.076" r="25.076" transform="translate(744.772 142.756)" fill="#ebebec"/>
        <circle id="Ellipse_369" data-name="Ellipse 369" cx="37.614" cy="37.614" r="37.614" transform="translate(732.234 245.725)" fill="#ebebec"/>
        <circle id="Ellipse_370" data-name="Ellipse 370" cx="12.538" cy="12.538" r="12.538" transform="translate(754.803 41.121)" fill="#ebebec"/>
        <circle id="Ellipse_371" data-name="Ellipse 371" cx="25.076" cy="25.076" r="25.076" transform="translate(628.092 28.584)" fill="#ebebec"/>
        <circle id="Ellipse_372" data-name="Ellipse 372" cx="37.614" cy="37.614" r="37.614" transform="translate(500.047 16.046)" fill="#ebebec"/>
      </g>
    </g>
    <path id="Path_16827" data-name="Path 16827" d="M322.923,260.345V229.056H103.867v31.289H72.578V197.733H197.733V166.444h31.289v31.289H354.178v62.612ZM260.345,135.156h-93.9a31.289,31.289,0,0,1-31.289-31.289V41.289A31.289,31.289,0,0,1,166.444,10h93.9a31.289,31.289,0,0,1,31.289,31.289v62.578A31.289,31.289,0,0,1,260.345,135.156Zm-93.9,187.767V385.5a31.289,31.289,0,0,1-31.289,31.289H41.289A31.289,31.289,0,0,1,10,385.5V322.923a31.289,31.289,0,0,1,31.289-31.289h93.9a31.289,31.289,0,0,1,31.255,31.289ZM291.6,291.634h93.9a31.289,31.289,0,0,1,31.255,31.289V385.5a31.289,31.289,0,0,1-31.289,31.289H291.634A31.289,31.289,0,0,1,260.345,385.5V322.923a31.289,31.289,0,0,1,31.289-31.289Z" transform="translate(157.34 408.082) rotate(-30)" fill="#fff"/>
  </g>
</svg>
