<svg class="fc-icon ci-toolbar-checkpoint-logo" focusable="false" xmlns="http://www.w3.org/2000/svg" fill="currentColor"
     icon-name="checkpoint-infinity-portal" color="inherit" width="24" height="24" viewBox="0 0 138 30">
    <rect fill="#E88697" width="34" height="30"></rect>
    <path fill="#000F9F"
          d="M22,17.5c-2.2,0.3-4.4,0.4-6.6,0.4c-0.8-0.1-1.7-0.2-2.5-0.4c-0.5-0.1-0.9-0.1-1.4-0.3s-1.4-0.1-1.6-0.4c-0.4-0.6-0.6-1.3-0.7-2c-0.2-0.9-0.3-1.8-0.6-2.7c-0.2-0.9-0.2-1.8-0.2-2.8c0-0.8,0-1.6,0.2-2.4c0.3-1.1,0.7-2.2,1.3-3.1c0.2-0.3,0.4-0.6,0.7-0.8c0.4-0.2,0.9-0.3,1.3-0.2c2.2,0,4.4,0.1,6.7,0.1c1.3,0,2.5,0,3.8,0c0.6,0,1.2,0,1.8,0s1-0.2,1.5-0.2c0.4,0,0.8,0.1,1.1,0.4c0.3,0.2,0.2,0.4,0.2,0.8c0,1.1,0.1,2.2,0.2,3.3c0.3,2,0.8,3.9,0.9,5.8c0.2,1.1,0.1,2.2-0.3,3.2c-0.3,0.6-1.2,0.6-1.7,0.7c-0.7,0.1-1.5,0.2-2.3,0.3S22.5,17.4,22,17.5"></path>
    <path fill="#FFFFFF"
          d="M11.5,3.9c0.4-0.8,1.3-0.4,1.9-0.4s1.2,0.1,1.9,0.3c1.8,0.5,3.7,0.7,5.5,0.6c0.9,0,1.8-0.1,2.7-0.3c0.7-0.2,1.9-0.3,2.1,0.7c0.1,0.8,0.1,1.7,0,2.5c0,1,0.1,2,0.1,3s0,1.8,0.1,2.7c0.1,0.5,0.1,1.1-0.1,1.6c-0.5,0.6-1.3,0.6-2,0.8c-1,0.2-1.9,0.4-2.9,0.6c-1.3,0.2-2.6,0.2-3.9,0.5c-0.7,0.1-1.4,0.1-2.1,0c-0.5,0-1-0.1-1.5-0.2c-0.6-0.1-1.1-0.2-1.7-0.3c-1-0.4-1-1.2-1-2.2c0-1.2-0.1-2.3,0-3.5S10.8,8,11,6.9c0.1-0.6,0.2-1.1,0.2-1.7C11.2,4.7,11.3,4.3,11.5,3.9C11.8,3.4,11.5,4,11.5,3.9z"></path>
    <path fill="#000F9F"
          d="M29.8,24.3c-0.9,0.2-1.8,0.3-2.8,0.3c-1.1,0.1-2.3,0-3.5,0s-2.3,0.2-3.4,0.2c-0.5,0-1.1-0.1-1.6-0.1l-1.4,0.1c-0.5,0-1,0.1-1.5,0.2c-0.6,0.1-1.2,0.2-1.9,0.2c-1.2,0.1-2.3,0.4-3.5,0.6S8.1,26.3,7,26.6c-0.7,0.2-1.8,0.5-2.5,0S4,25.1,3.9,24.4c-0.2-0.9-0.4-1.7,0.4-2.4c0.6-0.4,1.2-0.8,1.9-1.1c1-0.5,2-0.8,3.1-1.1c2.2-0.6,4.5-1.1,6.8-1.4c2.3-0.3,4.6-0.5,6.9-0.6c1.4-0.1,2.8-0.1,4.3-0.1c0.8,0,2.5-0.2,2.9,0.7c0.1,0.4,0.2,0.9,0.1,1.3c0,0.4,0,0.7,0.1,1.1c0.1,0.6,0.1,1.2,0.2,1.9C30.5,23.3,30.3,23.9,29.8,24.3"></path>
    <circle fill="#FFFFFF" cx="8.1" cy="22.3" r="0.5"></circle>
    <circle fill="#FFFFFF" cx="11.9" cy="22.3" r="0.5"></circle>
    <circle fill="#FFFFFF" cx="13.3" cy="22.8" r="0.5"></circle>
    <circle fill="#FFFFFF" cx="14.9" cy="20.7" r="0.5"></circle>
    <circle fill="#FFFFFF" cx="16.2" cy="22.1" r="0.5"></circle>
    <circle fill="#FFFFFF" cx="16.4" cy="19.8" r="0.5"></circle>
    <circle fill="#FFFFFF" cx="11.2" cy="24" r="0.5"></circle>
    <circle fill="#FFFFFF" cx="9.5" cy="24.3" r="0.5"></circle>
    <circle fill="#FFDD00" cx="14.9" cy="23.1" r="0.4"></circle>
    <circle fill="#FFDD00" cx="12.1" cy="20.4" r="0.4"></circle>
    <circle fill="#FFDD00" cx="10.4" cy="22.3" r="0.4"></circle>
    <circle fill="#FFDD00" cx="7.7" cy="24.4" r="0.4"></circle>
    <circle fill="#FFDD00" cx="21.3" cy="20.5" r="0.7"></circle>
    <circle fill="#FFDD00" cx="25.5" cy="20.6" r="0.7"></circle>
    <circle fill="#FFDD00" cx="24" cy="22" r="0.7"></circle>
    <circle fill="#FFDD00" cx="22.1" cy="22.9" r="0.7"></circle>
    <path fill="#000F9F" d="M15.3,7.5h-1.3V6.2h1.3V7.5z M15,6.4h-0.9v0.9H15V6.4z"></path>
    <path fill="#000F9F" d="M23.6,6.6h-1.3V5.3h1.3V6.6z M22.5,6.4h0.9V5.5h-0.9V6.4z"></path>
    <path fill="#000F9F" d="M25.1,11.7h-1.3v-1.3h1.3V11.7z M24,11.5h0.9v-0.9H24V11.5z"></path>
    <path fill="#000F9F" d="M20.2,12.9h-1.3v-1.3h1.3V12.9z M19.1,12.7H20v-0.9h-0.9L19.1,12.7z"></path>
    <path fill="#000F9F" d="M17.8,12.6h-1.3v-1.3h1.3V12.6z M16.6,12.4h0.9v-0.9h-0.9V12.4z"></path>
    <path fill="#000F9F"
          d="M12.6,14.1l-1.2-0.6l0.6-1.2l0,0l1.2,0.6L12.6,14.1z M11.7,13.4l0.8,0.4l0.4-0.8l-0.8-0.4L11.7,13.4z"></path>
    <path fill="#000F9F"
          d="M23,7.5L23,7.5L23,7.5V6.5l0,0h-0.2l0,0.9l0,0l-4.1,1.3l-4-0.7l0,0V7.4h-0.2v0.8l0,0l-1.8,3.9l4.5-1.5l2.3,0.3l0,0h0.1l0,0l2.8-1.3l2.3-0.1h0.1L23,7.5z M21.7,8L19,9.4L18.9,9L21.7,8z M18.6,9l0.2,0.5L18,10l-2.8-1.6L18.6,9z M17.1,10.5L17.1,10.5L17.1,10.5l-4,1.3l1.6-3.5l3.1,1.8L17.1,10.5z M17.5,10.5l0.5-0.3l0.9,0.5L17.5,10.5z M18.3,10.1l0.7-0.4l0.4,0.9L18.3,10.1z M19.1,9.6l3.6-1.9l-0.6,1.9l-2.6,1.2L19.1,9.6z M22.4,9.5L23,7.7l1.3,1.8L22.4,9.5z"></path>
    <path fill="#000F9F" d="M24.5,10.5h-0.2v-1h0.2V10.5z"></path>
    <path fill="#000F9F" d="M12.6,12.8l-0.2-0.1l0.4-0.8L13,12L12.6,12.8z"></path>
    <path fill="#000F9F" d="M17.2,11.4H17v-0.9h0.3L17.2,11.4z"></path>
    <path fill="#000F9F" d="M19.6,11.8h-0.3v-1h0.3V11.8z"></path>
    <path fill="#C10230"
          d="M22.9,8c0.3,0,0.5-0.2,0.5-0.5v0c0-0.3-0.2-0.5-0.5-0.5c-0.3,0-0.5,0.2-0.5,0.5v0C22.4,7.8,22.6,8,22.9,8L22.9,8z"></path>
    <path fill="#C10230"
          d="M17.1,11.1c0.3,0,0.5-0.2,0.5-0.6S17.4,10,17.1,10s-0.5,0.2-0.5,0.6S16.8,11.1,17.1,11.1z"></path>
    <path fill="#C10230"
          d="M18.7,9.4C19,9.3,19.2,9,19.1,8.7c0-0.2-0.2-0.3-0.4-0.4c-0.3,0.1-0.4,0.4-0.4,0.6C18.4,9.2,18.5,9.3,18.7,9.4z"></path>
    <path fill="#E88697"
          d="M13,12.5c0.3,0,0.5-0.2,0.5-0.5v0c0-0.3-0.2-0.5-0.5-0.5c-0.3,0-0.5,0.2-0.5,0.5v0C12.5,12.3,12.7,12.5,13,12.5L13,12.5z"></path>
    <path fill="#E88697"
          d="M22.2,10.1c0.3,0,0.5-0.2,0.5-0.5c0,0,0,0,0,0c0-0.3-0.2-0.5-0.5-0.5c-0.3,0-0.5,0.2-0.5,0.5C21.7,9.9,21.9,10.1,22.2,10.1C22.2,10.1,22.2,10.2,22.2,10.1z"></path>
    <path fill="#FFDD00"
          d="M24.5,10.1c0.3,0,0.5-0.2,0.5-0.5c0,0,0,0,0,0c0-0.3-0.2-0.5-0.5-0.5l0,0c-0.3,0-0.5,0.2-0.5,0.5v0C24,9.9,24.2,10.1,24.5,10.1z"></path>
    <path fill="#FFDD00"
          d="M14.6,8.7c0.3,0,0.5-0.2,0.5-0.5c0,0,0,0,0,0c0-0.3-0.2-0.5-0.5-0.5c-0.3,0-0.5,0.2-0.5,0.5C14.1,8.5,14.3,8.7,14.6,8.7C14.6,8.7,14.6,8.7,14.6,8.7z"></path>
    <path fill="#FFDD00"
          d="M19.5,11.4c0.3,0,0.5-0.2,0.5-0.5c0-0.3-0.2-0.5-0.5-0.5c-0.3,0-0.5,0.2-0.5,0.5C19,11.2,19.2,11.4,19.5,11.4L19.5,11.4z"></path>
    <path fill="#FFFFFF"
          d="M46.6,4.2c-1.2,0-2.1,0.4-2.8,1.2c-0.7,0.8-1,1.9-1,3.2c0,1.4,0.3,2.5,1,3.2c0.7,0.8,1.6,1.1,2.8,1.1c0.7,0,1.6-0.1,2.6-0.4v1.1c-0.7,0.3-1.7,0.4-2.7,0.4c-1.6,0-2.8-0.5-3.7-1.4c-0.9-1-1.3-2.3-1.3-4.1c0-1.1,0.2-2.1,0.6-2.9c0.4-0.8,1-1.5,1.8-1.9S45.5,3,46.6,3c1.1,0,2.1,0.2,2.9,0.6L49,4.7C48.2,4.3,47.4,4.2,46.6,4.2z"></path>
    <path fill="#FFFFFF" d="M59.6,13.9h-1.2v-5h-5.6v5h-1.2V3.2h1.2v4.6h5.6V3.2h1.2V13.9z"></path>
    <path fill="#FFFFFF" d="M68.5,13.9h-6V3.2h6v1.1h-4.7v3.4h4.4v1.1h-4.4v3.9h4.7V13.9z"></path>
    <path fill="#FFFFFF"
          d="M75.4,4.2c-1.2,0-2.1,0.4-2.8,1.2c-0.7,0.8-1,1.9-1,3.2c0,1.4,0.3,2.5,1,3.2c0.7,0.8,1.6,1.1,2.8,1.1c0.7,0,1.6-0.1,2.6-0.4v1.1c-0.7,0.3-1.7,0.4-2.7,0.4c-1.6,0-2.8-0.5-3.7-1.4c-0.9-1-1.3-2.3-1.3-4.1c0-1.1,0.2-2.1,0.6-2.9c0.4-0.8,1-1.5,1.8-1.9S74.4,3,75.4,3c1.1,0,2.1,0.2,2.9,0.6l-0.5,1.1C77.1,4.3,76.2,4.2,75.4,4.2z"></path>
    <path fill="#FFFFFF" d="M88,13.9h-1.5l-3.9-5.2l-1.1,1v4.2h-1.2V3.2h1.2v5.3l4.9-5.3h1.5l-4.3,4.7L88,13.9z"></path>
    <path fill="#FFFFFF"
          d="M100.2,6.3c0,1.1-0.4,1.9-1.1,2.5c-0.7,0.6-1.8,0.9-3.2,0.9h-1.3v4.2h-1.2V3.2h2.8C98.9,3.2,100.2,4.2,100.2,6.3z M94.7,8.6h1.1c1.1,0,1.9-0.2,2.4-0.5s0.7-0.9,0.7-1.7c0-0.7-0.2-1.2-0.7-1.6S97,4.3,96,4.3h-1.4V8.6z"></path>
    <path fill="#FFFFFF"
          d="M111.7,8.5c0,1.7-0.4,3.1-1.3,4c-0.9,1-2.1,1.5-3.6,1.5c-1.6,0-2.8-0.5-3.7-1.4c-0.9-1-1.3-2.3-1.3-4.1c0-1.7,0.4-3.1,1.3-4.1c0.9-1,2.1-1.4,3.7-1.4c1.5,0,2.7,0.5,3.6,1.5C111.3,5.5,111.7,6.8,111.7,8.5z M103.2,8.5c0,1.5,0.3,2.6,0.9,3.3c0.6,0.8,1.5,1.1,2.7,1.1c1.2,0,2.1-0.4,2.7-1.1s0.9-1.8,0.9-3.3c0-1.4-0.3-2.5-0.9-3.3c-0.6-0.7-1.5-1.1-2.7-1.1c-1.2,0-2.1,0.4-2.7,1.1C103.5,6,103.2,7.1,103.2,8.5z"></path>
    <path fill="#FFFFFF" d="M114.1,13.9V3.2h1.2v10.7H114.1z"></path>
    <path fill="#FFFFFF"
          d="M126.7,13.9h-1.4l-5.9-9h-0.1c0.1,1.1,0.1,2,0.1,2.9v6.1h-1.2V3.2h1.4l5.8,9h0.1c0-0.1,0-0.6-0.1-1.3c0-0.7,0-1.2,0-1.5V3.2h1.2V13.9z"></path>
    <path fill="#FFFFFF" d="M132.9,13.9h-1.2V4.3h-3.4V3.2h8v1.1h-3.4V13.9z"></path>
    <path fill="#FFFFFF" d="M41.6,28.3v-7.9h0.9v7.9H41.6z"></path>
    <path fill="#FFFFFF"
          d="M51.4,28.3h-1l-4.3-6.6h0c0.1,0.8,0.1,1.5,0.1,2.1v4.5h-0.8v-7.9h1l4.3,6.6h0c0-0.1,0-0.4,0-0.9s0-0.9,0-1.1v-4.5h0.9V28.3z"></path>
    <path fill="#FFFFFF" d="M55.2,28.3h-0.9v-7.9h4.4v0.8h-3.5v2.9h3.3v0.8h-3.3V28.3z"></path>
    <path fill="#FFFFFF" d="M60.6,28.3v-7.9h0.9v7.9H60.6z"></path>
    <path fill="#FFFFFF"
          d="M70.5,28.3h-1l-4.3-6.6h0c0.1,0.8,0.1,1.5,0.1,2.1v4.5h-0.8v-7.9h1l4.3,6.6h0c0-0.1,0-0.4,0-0.9s0-0.9,0-1.1v-4.5h0.9V28.3z"></path>
    <path fill="#FFFFFF" d="M73.3,28.3v-7.9h0.9v7.9H73.3z"></path>
    <path fill="#FFFFFF" d="M79.4,28.3h-0.9v-7H76v-0.8h5.9v0.8h-2.5V28.3z"></path>
    <path fill="#FFFFFF" d="M85.7,24.4l2.1-3.9h1l-2.6,4.8v3h-0.9v-3l-2.6-4.9h1L85.7,24.4z"></path>
    <path fill="#FFFFFF"
          d="M99.1,22.7c0,0.8-0.3,1.4-0.8,1.8s-1.3,0.6-2.3,0.6H95v3.1h-0.9v-7.9h2C98.1,20.4,99.1,21.2,99.1,22.7zM95,24.4h0.8c0.8,0,1.4-0.1,1.8-0.4s0.5-0.7,0.5-1.3c0-0.5-0.2-0.9-0.5-1.2s-0.9-0.4-1.6-0.4h-1V24.4z"></path>
    <path fill="#FFFFFF"
          d="M108.2,24.4c0,1.3-0.3,2.2-1,3c-0.6,0.7-1.5,1.1-2.7,1.1c-1.2,0-2-0.4-2.7-1.1c-0.6-0.7-0.9-1.7-0.9-3c0-1.3,0.3-2.3,0.9-3c0.6-0.7,1.5-1.1,2.7-1.1c1.1,0,2,0.4,2.6,1.1C107.9,22.1,108.2,23.1,108.2,24.4z M101.9,24.4c0,1.1,0.2,1.9,0.7,2.4s1.1,0.8,2,0.8c0.9,0,1.5-0.3,2-0.8s0.7-1.4,0.7-2.4c0-1.1-0.2-1.9-0.7-2.4s-1.1-0.8-2-0.8c-0.9,0-1.5,0.3-2,0.8S101.9,23.3,101.9,24.4z"></path>
    <path fill="#FFFFFF"
          d="M111.5,25v3.3h-0.9v-7.9h2.2c1,0,1.7,0.2,2.1,0.6c0.5,0.4,0.7,0.9,0.7,1.7c0,1-0.5,1.7-1.6,2.1l2.1,3.5H115l-1.9-3.3H111.5z M111.5,24.3h1.3c0.6,0,1.1-0.1,1.4-0.4s0.5-0.6,0.5-1.2c0-0.5-0.2-0.9-0.5-1.1c-0.3-0.2-0.8-0.3-1.5-0.3h-1.2V24.3z"></path>
    <path fill="#FFFFFF" d="M120.5,28.3h-0.9v-7h-2.5v-0.8h5.9v0.8h-2.5V28.3z"></path>
    <path fill="#FFFFFF"
          d="M129.7,28.3l-1-2.5h-3.1l-1,2.5h-0.9l3.1-7.9h0.8l3.1,7.9H129.7z M128.5,25l-0.9-2.4c-0.1-0.3-0.2-0.7-0.4-1.1c-0.1,0.3-0.2,0.7-0.3,1.1l-0.9,2.4H128.5z"></path>
    <path fill="#FFFFFF" d="M132.4,28.3v-7.9h0.9v7h3.5v0.8H132.4z"></path>
</svg>
