<?xml version="1.0" encoding="UTF-8"?>
<svg width="40px" height="40px" viewBox="0 0 40 40" version="1.1" xmlns="http://www.w3.org/2000/svg" xmlns:xlink="http://www.w3.org/1999/xlink">
    <!-- Generator: Sketch 64 (93537) - https://sketch.com -->
    <title>Icon-Architecture/32/Arch_Amazon-API-Gateway_32</title>
    <desc>Created with Sketch.</desc>
    <defs>
        <linearGradient x1="0%" y1="100%" x2="100%" y2="0%" id="linearGradient-1">
            <stop stop-color="#4D27A8" offset="0%"></stop>
            <stop stop-color="#A166FF" offset="100%"></stop>
        </linearGradient>
    </defs>
    <g id="Icon-Architecture/32/Arch_Amazon-API-Gateway_32" stroke="none" stroke-width="1" fill="none" fill-rule="evenodd">
        <g id="Icon-Architecture-BG/32/Networking-Content-Delivery" fill="url(#linearGradient-1)">
            <rect id="Rectangle" x="0" y="0" width="40" height="40"></rect>
        </g>
        <path d="M19,28.0000333 L21,28.0000333 L21,27.0000333 L19,27.0000333 L19,28.0000333 Z M14,7.26212734 L7,10.3021129 L7,30.3570173 L14,32.7960057 L14,7.26212734 Z M15,13.0001 L15,27.0000333 L17,27.0000333 L17,28.0000286 L15,28.0000286 L15,33.5000024 C15,33.6620016 14.922,33.8140009 14.79,33.9080004 C14.704,33.9680002 14.603,34 14.5,34 C14.444,34 14.389,33.991 14.336,33.9720001 L6.336,31.1850134 C6.135,31.1150137 6,30.9260146 6,30.7130157 L6,9.97411442 C6,9.77511537 6.118,9.59511623 6.301,9.5161166 L14.301,6.04213315 C14.455,5.97513347 14.634,5.9901334 14.774,6.08213296 C14.915,6.17413252 15,6.33213177 15,6.50013097 L15,12.0001048 L17,12.0001048 L17,13.0001 L15,13.0001 Z M33,10.3021129 L26,7.26212734 L26,12.0001048 L26,13.0001 L26,27.0000333 L26,28.0000286 L26,32.7960057 L33,30.3570173 L33,10.3021129 Z M34,9.97411442 L34,30.7130157 C34,30.9260146 33.865,31.1150137 33.664,31.1850134 L25.664,33.9720001 C25.611,33.991 25.556,34 25.5,34 C25.397,34 25.296,33.9680002 25.21,33.9080004 C25.078,33.8140009 25,33.6620016 25,33.5 L25,28.0000286 L23,28.0000286 L23,27.0000333 L25,27.0000333 L25,13.0001 L23,13.0001 L23,12.0001048 L25,12.0001048 L25,6.50013097 C25,6.33213177 25.085,6.17413252 25.226,6.08213296 C25.367,5.9891334 25.546,5.97413347 25.699,6.04213315 L33.699,9.5161166 C33.882,9.59511623 34,9.77511537 34,9.97411442 L34,9.97411442 Z M19,13.0001048 L21,13.0001048 L21,12.0001048 L19,12.0001048 L19,13.0001048 Z M23.975,15.6580874 L23.025,15.3420889 L20.025,24.342046 L20.975,24.6580445 L23.975,15.6580874 Z M19.146,22.8540531 L16.146,19.8540674 C15.951,19.6580683 15.951,19.3420698 16.146,19.1460707 L19.146,16.146085 L19.854,16.8540817 L17.207,19.5000691 L19.854,22.1460565 L19.146,22.8540531 Z" id="Amazon-API-Gateway_Icon_32_Squid" fill="#FFFFFF"></path>
    </g>
</svg>