<?xml version="1.0" encoding="UTF-8"?><svg id="a" xmlns="http://www.w3.org/2000/svg" viewBox="0 0 16 16"><defs><style>.b{fill-rule:evenodd;}</style></defs><rect x="9" y="4" width="7" height="2"/><path class="b" d="M7.89,14.68c-.74-.76-1.54-1.45-2.4-2.07-.97-.67-2.06-1.16-3.22-1.43V0c1.33,.24,2.62,.68,3.81,1.3,.64,.37,1.25,.8,1.8,1.3V14.68Z"/><path class="b" d="M6.82,16H-.03V3.53H1.12V12.42c1.15,.27,2.24,.76,3.22,1.43,.89,.65,1.72,1.37,2.48,2.15h0Z"/><rect x="9" y="7.08" width="7" height="1.85"/><rect x="9" y="10" width="7" height="2"/><rect x="9" y="13" width="7" height="2"/></svg>