<?xml version="1.0" encoding="UTF-8"?>
<svg width="32px" height="18px" viewBox="0 0 32 18" version="1.1" xmlns="http://www.w3.org/2000/svg" xmlns:xlink="http://www.w3.org/1999/xlink">
    <!-- Generator: Sketch 50.2 (55047) - http://www.bohemiancoding.com/sketch -->
    <title>a</title>
    <desc>Created with Sketch.</desc>
    <defs></defs>
    <g id="a" stroke="none" stroke-width="1" fill="none" fill-rule="evenodd">
        <g id="logo_aws-copy" transform="translate(1.000000, 0.000000)" fill="#FFFFFF">
            <path d="M9.34010152,6.94680851 C9.34010152,7.34042553 9.38071066,7.65957447 9.45177665,7.89361702 C9.53299492,8.12765957 9.63451777,8.38297872 9.77664975,8.65957447 C9.82741117,8.74468085 9.84771574,8.82978723 9.84771574,8.90425532 C9.84771574,9.0106383 9.78680203,9.11702128 9.65482234,9.22340426 L9.01522843,9.67021277 C8.92385787,9.73404255 8.83238579,9.76595745 8.75126904,9.76595745 C8.64974619,9.76595745 8.54822335,9.71276596 8.44670051,9.61702128 C8.30456853,9.45744681 8.18274112,9.28723404 8.08121827,9.11702128 C7.97969543,8.93617021 7.87817259,8.73404255 7.76649746,8.4893617 C6.97451777,9.46808511 5.97969543,9.95744681 4.78172589,9.95744681 C3.92893401,9.95744681 3.24873096,9.70212766 2.75126904,9.19148936 C2.25380711,8.68085106 2,8 2,7.14893617 C2,6.24468085 2.30446701,5.5106383 2.92385787,4.95744681 C3.54314721,4.40425532 4.36548223,4.12765957 5.41116751,4.12765957 C5.75624365,4.12765957 6.11167513,4.15957447 6.48730964,4.21276596 C6.86294416,4.26595745 7.24873096,4.35106383 7.65482234,4.44680851 L7.65482234,3.67021277 C7.65482234,2.86170213 7.49238579,2.29787234 7.17766497,1.96808511 C6.85279188,1.63829787 6.30456853,1.4787234 5.52284264,1.4787234 C5.16751269,1.4787234 4.80203046,1.5212766 4.42639594,1.61702128 C4.05076142,1.71276596 3.68527919,1.82978723 3.32994924,1.9787234 C3.16751269,2.05319149 3.04568528,2.09574468 2.97461929,2.11702128 C2.9035533,2.13829787 2.85279188,2.14893617 2.81208122,2.14893617 C2.67005076,2.14893617 2.59898477,2.04255319 2.59898477,1.81914894 L2.59898477,1.29787234 C2.59898477,1.12765957 2.61928934,1 2.67005076,0.925531915 C2.72081218,0.85106383 2.81208122,0.776595745 2.95431472,0.70212766 C3.30954315,0.510638298 3.73604061,0.35106383 4.23350254,0.223404255 C4.73096447,0.085106383 5.25888325,0.0212765957 5.81725888,0.0212765957 C7.02538071,0.0212765957 7.90862944,0.308510638 8.47715736,0.882978723 C9.03553299,1.45744681 9.31979695,2.32978723 9.31979695,3.5 L9.31979695,6.94680851 L9.34010152,6.94680851 Z M5.21827411,8.56382979 C5.55329949,8.56382979 5.89837563,8.5 6.26395939,8.37234043 C6.62944162,8.24468085 6.95431472,8.0106383 7.2284264,7.69148936 C7.39086294,7.4893617 7.51258883,7.26595745 7.57360406,7.0106383 C7.63451777,6.75531915 7.6751269,6.44680851 7.6751269,6.08510638 L7.6751269,5.63829787 C7.38071066,5.56382979 7.06598985,5.5 6.74111675,5.45744681 C6.41624365,5.41489362 6.10152284,5.39361702 5.78680203,5.39361702 C5.10659898,5.39361702 4.60913706,5.53191489 4.27411168,5.81914894 C3.93908629,6.10638298 3.77664975,6.5106383 3.77664975,7.04255319 C3.77664975,7.54255319 3.89847716,7.91489362 4.15228426,8.17021277 C4.39593909,8.43617021 4.75126904,8.56382979 5.21827411,8.56382979 Z M13.3705584,9.71276596 C13.1878173,9.71276596 13.0659898,9.68085106 12.9847716,9.60638298 C12.9035533,9.54255319 12.8324873,9.39361702 12.7715736,9.19148936 L10.3857868,0.968085106 C10.3247716,0.755319149 10.2944162,0.617021277 10.2944162,0.542553191 C10.2944162,0.372340426 10.375533,0.276595745 10.5380711,0.276595745 L11.5329949,0.276595745 C11.7257868,0.276595745 11.857868,0.308510638 11.928934,0.382978723 C12.0101523,0.446808511 12.071066,0.595744681 12.1319797,0.79787234 L13.8375635,7.84042553 L15.4212183,0.79787234 C15.4720812,0.585106383 15.5328934,0.446808511 15.6142132,0.382978723 C15.6954315,0.319148936 15.8374619,0.276595745 16.0203046,0.276595745 L16.8324873,0.276595745 C17.0252792,0.276595745 17.1573604,0.308510638 17.2385787,0.382978723 C17.319797,0.446808511 17.3908629,0.595744681 17.4314721,0.79787234 L19.0354315,7.92553191 L20.7918782,0.79787234 C20.8527919,0.585106383 20.9238579,0.446808511 20.9949239,0.382978723 C21.0761421,0.319148936 21.2081218,0.276595745 21.3908629,0.276595745 L22.3350254,0.276595745 C22.4974619,0.276595745 22.5888325,0.361702128 22.5888325,0.542553191 C22.5888325,0.595744681 22.5786802,0.64893617 22.5685279,0.712765957 C22.5582741,0.776595745 22.5380711,0.861702128 22.4974619,0.978723404 L20.0507614,9.20212766 C19.9897462,9.41489362 19.9186802,9.55319149 19.8374619,9.61702128 C19.7563452,9.68085106 19.6243655,9.72340426 19.4517766,9.72340426 L18.5785787,9.72340426 C18.3857868,9.72340426 18.2538071,9.69148936 18.1724873,9.61702128 C18.091269,9.54255319 18.020203,9.40425532 17.9796954,9.19148936 L16.4060914,2.32978723 L14.8426396,9.18085106 C14.7917766,9.39361702 14.7309645,9.53191489 14.6497462,9.60638298 C14.5685279,9.68085106 14.4263959,9.71276596 14.2436548,9.71276596 L13.3705584,9.71276596 Z M26.4162437,10 C25.8883249,10 25.3604061,9.93617021 24.8527919,9.80851064 C24.3451777,9.68085106 23.9492386,9.54255319 23.6852792,9.38297872 C23.5228426,9.28723404 23.411066,9.18085106 23.3705584,9.08510638 C23.3299492,8.9893617 23.3096447,8.88297872 23.3096447,8.78723404 L23.3096447,8.24468085 C23.3096447,8.0212766 23.3908629,7.91489362 23.5431472,7.91489362 C23.6040609,7.91489362 23.6648731,7.92553191 23.7257868,7.94680851 C23.786802,7.96808511 23.8780711,8.0106383 23.9796954,8.05319149 C24.3247716,8.21276596 24.7005076,8.34042553 25.0963452,8.42553191 C25.5025381,8.5106383 25.8983756,8.55319149 26.3045685,8.55319149 C26.9441624,8.55319149 27.4416244,8.43617021 27.7867005,8.20212766 C28.1319797,7.96808511 28.3147208,7.62765957 28.3147208,7.19148936 C28.3147208,6.89361702 28.2233503,6.64893617 28.0405076,6.44680851 C27.857868,6.24468085 27.5126904,6.06382979 27.0151269,5.89361702 L25.5431472,5.41489362 C24.8020305,5.17021277 24.2538071,4.80851064 23.9187817,4.32978723 C23.5837563,3.86170213 23.411066,3.34042553 23.411066,2.78723404 C23.411066,2.34042553 23.5025381,1.94680851 23.6852792,1.60638298 C23.8679188,1.26595745 24.1116751,0.968085106 24.4162437,0.734042553 C24.7208122,0.489361702 25.0659898,0.308510638 25.4720812,0.180851064 C25.8781726,0.0531914894 26.3045685,0 26.751269,0 C26.9745178,0 27.2081218,0.0106382979 27.4313706,0.0425531915 C27.6649746,0.0744680851 27.8780711,0.117021277 28.091269,0.159574468 C28.2943147,0.212765957 28.4872081,0.265957447 28.6700508,0.329787234 C28.8526904,0.393617021 28.9949239,0.457446809 29.0964467,0.521276596 C29.2385787,0.606382979 29.3401015,0.691489362 29.4010152,0.787234043 C29.4619289,0.872340426 29.4923858,0.989361702 29.4923858,1.13829787 L29.4923858,1.63829787 C29.4923858,1.86170213 29.4111675,1.9787234 29.2588832,1.9787234 C29.177665,1.9787234 29.0456853,1.93617021 28.8730964,1.85106383 C28.2944162,1.57446809 27.6446701,1.43617021 26.9238579,1.43617021 C26.3451777,1.43617021 25.8883249,1.53191489 25.5736041,1.73404255 C25.2588832,1.93617021 25.0964467,2.24468085 25.0964467,2.68085106 C25.0964467,2.9787234 25.1979695,3.23404255 25.4010152,3.43617021 C25.6040609,3.63829787 25.9796954,3.84042553 26.5177665,4.0212766 L27.9593909,4.5 C28.6903553,4.74468085 29.2182741,5.08510638 29.5329949,5.5212766 C29.8477157,5.95744681 30,6.45744681 30,7.0106383 C30,7.46808511 29.9086294,7.88297872 29.7360406,8.24468085 C29.5532995,8.60638298 29.3096447,8.92553191 28.9949239,9.18085106 C28.680203,9.44680851 28.3045685,9.63829787 27.8680203,9.77659574 C27.4111675,9.92553191 26.9340102,10 26.4162437,10 Z" id="Fill-1"></path>
            <path d="M27.1224468,14.1540594 C23.8397932,16.666327 19.0704668,18 14.9697441,18 C9.22260597,18 4.04419506,15.7978888 0.132948295,12.1380421 C-0.176459262,11.8485627 0.103015284,11.4556978 0.472189087,11.6831459 C4.70272131,14.2264292 9.92094311,15.7668732 15.3189625,15.7668732 C18.9608122,15.7668732 22.961858,14.9811434 26.6436184,13.3683296 C27.1923902,13.1098658 27.6613407,13.7405174 27.1224468,14.1540594 Z M28.4894874,12.5412456 C28.0703254,11.9829639 25.715695,12.2724433 24.6480843,12.4068444 C24.3286991,12.4481986 24.2788107,12.1587192 24.5682629,11.9416097 C26.444065,10.5769211 29.5270653,10.969786 29.8863612,11.4246822 C30.2455574,11.8899169 29.7865845,15.0845289 28.0304148,16.6146343 C27.7611174,16.8524209 27.501698,16.7283583 27.6213303,16.4182018 C28.0204371,15.3946854 28.9085495,13.0891887 28.4894874,12.5412456 Z" id="Fill-2"></path>
        </g>
    </g>
</svg>