<?xml version="1.0" encoding="UTF-8"?>
<svg width="56px" height="56px" viewBox="0 0 56 56" version="1.1" xmlns="http://www.w3.org/2000/svg" xmlns:xlink="http://www.w3.org/1999/xlink">
    <!-- Generator: Sketch 49.1 (51147) - http://www.bohemiancoding.com/sketch -->
    <title>Artboard</title>
    <desc>Created with Sketch.</desc>
    <defs>
        <circle id="path-1" cx="28" cy="28" r="28"></circle>
    </defs>
    <g id="Artboard" stroke="none" stroke-width="1" fill="none" fill-rule="evenodd">
        <g id="Group-5">
            <g id="avatar-copy">
                <mask id="mask-2" fill="white">
                    <use xlink:href="#path-1"></use>
                </mask>
                <use id="Mask" fill="#102230" xlink:href="#path-1"></use>
            </g>
            <path d="M44.4192789,30.1797997 L45.4167289,27.7761028 C45.3028079,29.555615 44.924048,31.2614999 44.3167134,32.8571268 L44.4192789,30.1797997 Z M45.1156257,27.4292115 L44.4643345,28.9977317 L44.5244086,27.4317756 C44.7379648,27.431043 44.9357697,27.4303104 45.1156257,27.4292115 Z M44.4764226,25.8929261 L44.4753237,23.7339213 L45.3680103,25.897688 C45.0617788,25.8951239 44.6973048,25.8951239 44.2705589,25.8936587 L44.4764226,25.8929261 Z M44.0101157,30.0918863 L43.2408741,31.9435608 C43.5368489,30.7193677 43.7309909,29.4600093 43.8159737,28.190028 C43.9302611,28.0925908 44.0207385,27.9768382 44.0954649,27.8478987 L44.0101157,30.0918863 Z M43.8635935,33.9384607 C43.8262303,34.0201468 43.7921639,34.1043971 43.7529692,34.184618 C43.6339199,34.2036659 43.5027825,34.2227138 43.3562603,34.2395638 C43.1705434,34.2098931 42.982995,34.1809549 42.7943476,34.1509179 C42.7914172,34.1373646 42.7910509,34.123445 42.788853,34.1098917 L43.9646938,31.2743206 L43.8635935,33.9384607 Z M43.6214655,26.6207752 C43.6214655,26.9614393 43.4599248,27.2383663 43.2610209,27.2383663 C43.061018,27.2383663 42.8998436,26.9614393 42.8998436,26.6207752 C42.8998436,26.2779132 43.061018,26.0013525 43.2610209,26.0013525 C43.4599248,26.0013525 43.6214655,26.2779132 43.6214655,26.6207752 Z M42.7027712,19.4400879 L44.0621311,22.7335409 L44.0639626,25.4247876 C43.9950971,25.314896 43.9152425,25.213063 43.8159737,25.125516 C43.6844701,23.1873935 43.3060764,21.278209 42.6895842,19.4726891 C42.6954451,19.4624326 42.697643,19.4507108 42.7027712,19.4400879 Z M41.502388,33.5520083 L39.869398,30.7025176 L42.4163203,28.0061427 C42.4588118,28.0603559 42.5042336,28.1101734 42.5540512,28.1577932 C42.4295073,30.0083687 42.0749236,31.8329365 41.502388,33.5520083 Z M37.2550754,33.4692233 L39.4261683,31.1710224 L40.9833331,33.8901083 C39.7675651,33.7274687 38.5250567,33.5857084 37.2550754,33.4692233 Z M37.4642359,28.2922273 C37.5448231,28.2497358 37.6195494,28.1980868 37.6917116,28.1424083 L39.105651,30.6113076 L36.9993942,32.8391778 C37.2429874,31.3618676 37.3997661,29.840967 37.4642359,28.2922273 Z M36.6675214,27.2383663 C36.4048803,27.2383663 36.1927894,26.9614393 36.1927894,26.6207752 C36.1927894,26.2779132 36.4048803,26.0013525 36.6675214,26.0013525 C36.9283309,26.0013525 37.1396892,26.2779132 37.1396892,26.6207752 C37.1396892,26.9614393 36.9283309,27.2383663 36.6675214,27.2383663 Z M35.886558,18.5382437 C35.6294115,18.5858634 35.3704335,18.3528931 35.3077953,18.0173572 C35.2458896,17.6818214 35.4030347,17.370828 35.6594486,17.3232083 C35.9173277,17.2759549 36.1759394,17.5085589 36.2393102,17.844461 C36.3023148,18.1799969 36.1433382,18.490624 35.886558,18.5382437 Z M35.7634793,25.196213 L32.6286366,22.0031277 L35.0979022,19.3279984 C35.1828851,19.3873399 35.2722636,19.4408205 35.3660378,19.4851435 C35.7026726,21.2668536 35.9067048,23.1350118 35.9817974,25.0449288 C35.904507,25.0885191 35.8319785,25.1401682 35.7634793,25.196213 Z M35.5015709,33.0267262 L32.6312008,30.4519647 L35.7085335,28.0680483 C35.7927838,28.1442398 35.8828949,28.212739 35.9817974,28.26915 C35.9191592,29.894814 35.7550543,31.4867778 35.5015709,33.0267262 Z M29.2604573,33.0640894 L32.1352231,30.8369518 L34.8620014,33.2820412 C33.0370673,33.160794 31.1667113,33.0871666 29.2604573,33.0640894 Z M28.7846264,28.3215317 C28.8996464,28.2669522 29.0066076,28.1980868 29.1077079,28.1218952 L31.6670846,30.4171656 L28.768509,32.6626185 C28.776934,31.2490455 28.7813297,29.7999408 28.7846264,28.3215317 Z M29.0425055,19.2331253 L31.7751448,22.0163147 L28.9417715,25.0852224 C28.8901224,25.054819 28.8403049,25.02002 28.7846264,24.9943786 C28.7802308,23.0829964 28.773271,21.2119077 28.7604503,19.4100509 C28.8615506,19.3613322 28.9542259,19.3001592 29.0425055,19.2331253 Z M28.6747348,12.4762535 C28.6762,12.4758872 28.6776652,12.4736894 28.6787641,12.4725905 L30.6575466,14.1213317 L28.7780329,16.4715479 C28.7630144,16.4634892 28.7494611,16.4528663 28.7348089,16.4455402 C28.7197904,14.9931388 28.7000099,13.6652813 28.6747348,12.4762535 Z M28.0285718,18.4803674 C27.6684935,18.4803674 27.3772806,18.2034405 27.3772806,17.8616774 C27.3772806,17.520647 27.6684935,17.2429874 28.0285718,17.2429874 C28.3875512,17.2429874 28.6787641,17.520647 28.6787641,17.8616774 C28.6787641,18.2034405 28.3875512,18.4803674 28.0285718,18.4803674 Z M28.0285718,27.2383663 C27.6684935,27.2383663 27.3772806,26.9614393 27.3772806,26.6207752 C27.3772806,26.2779132 27.6684935,26.0013525 28.0285718,26.0013525 C28.3875512,26.0013525 28.6787641,26.2779132 28.6787641,26.6207752 C28.6787641,26.9614393 28.3875512,27.2383663 28.0285718,27.2383663 Z M27.2900999,10.5157864 L26.621226,9.73921864 L27.4230688,9.29708787 C27.4051198,9.62456501 27.3890024,10.0014934 27.3754491,10.4571775 C27.3450457,10.4740275 27.3194043,10.4971048 27.2900999,10.5157864 Z M27.2677553,16.4554305 C27.1886333,16.4942589 27.1135406,16.5393144 27.0428437,16.5902309 L25.1343919,14.108511 L27.2054833,12.3755195 C27.2457769,12.4051903 27.2824075,12.4399893 27.3256315,12.4652644 C27.3025543,13.6608856 27.2824075,14.9942377 27.2677553,16.4554305 Z M27.2172051,25.0086645 C27.1190352,25.0570169 27.0259936,25.1134279 26.9384466,25.1771651 L24.1259527,22.0686964 L26.9860663,19.2349568 C27.0659209,19.2957635 27.1494386,19.3503431 27.2406486,19.3964976 C27.2285606,21.2064132 27.2194029,23.0855605 27.2172051,25.0086645 Z M24.3794362,30.3303512 L26.9219628,28.1226278 C27.0142718,28.191127 27.1120754,28.2548641 27.2172051,28.3061469 C27.2194029,29.7332732 27.2245312,31.1336593 27.2318573,32.5021767 L24.3794362,30.3303512 Z M20.9698643,33.2937629 L23.903239,30.7450091 L26.9472379,33.0626242 C24.9102129,33.0835036 22.9134815,33.1596951 20.9698643,33.2937629 Z M20.0196678,28.2830696 C20.1405486,28.217501 20.2486087,28.1306865 20.3478775,28.0372786 L23.4006678,30.3618535 L20.4790149,32.8996182 C20.2376196,31.4028938 20.0819397,29.8578171 20.0196678,28.2830696 Z M19.5555587,17.8836557 C19.5896251,17.5437242 19.8277237,17.2895082 20.0881669,17.3162485 C20.3482438,17.3418899 20.5313966,17.6393299 20.4980628,17.9785289 C20.4632638,18.3177278 20.2240663,18.5719438 19.9639893,18.5455698 C19.7039124,18.5195621 19.521126,18.2224883 19.5555587,17.8836557 Z M19.2017075,27.2383663 C18.940898,27.2383663 18.7288071,26.9614393 18.7288071,26.6207752 C18.7288071,26.2779132 18.940898,26.0013525 19.2017075,26.0013525 C19.4639823,26.0013525 19.6753406,26.2779132 19.6753406,26.6207752 C19.6753406,26.9614393 19.4639823,27.2383663 19.2017075,27.2383663 Z M16.7320757,30.6472055 L18.2434523,28.0614548 C18.3335634,28.1431409 18.4302681,28.2189662 18.536863,28.278674 C18.6035306,29.9123966 18.7753279,31.514617 19.0427309,33.0688514 L16.7320757,30.6472055 Z M14.8551262,33.9117204 C14.8492653,33.9047606 14.8434044,33.8981671 14.8371772,33.890841 L16.407529,31.2025247 L18.585948,33.485707 C17.3148678,33.60439 16.0719931,33.7479818 14.8551262,33.9117204 Z M13.4488792,28.1713465 C13.4616999,28.1607236 13.4708576,28.1475366 13.4825794,28.1361811 L15.963933,30.737683 L14.4357063,33.3523718 C13.9027318,31.6959382 13.5690275,29.946463 13.4488792,28.1713465 Z M12.2503276,34.184618 L12.1118641,31.7395286 L13.1389848,34.1615407 C12.9741473,34.1871821 12.8100424,34.2131898 12.6459375,34.2395638 C12.5005142,34.2212485 12.3693769,34.2036659 12.2503276,34.184618 Z M11.8880514,27.7819637 C11.9646093,27.9303174 12.0598487,28.0651179 12.1832937,28.1775736 C12.2869581,29.7058003 12.5452035,31.2146128 12.9485059,32.6717762 L12.042266,30.5043464 L11.8880514,27.7819637 Z M11.7433607,25.8936587 C11.3169811,25.8951239 10.953606,25.8951239 10.6444441,25.897688 L11.9470266,22.6804266 L11.870835,25.5683794 C11.8210175,25.6709449 11.7770608,25.7786388 11.7433607,25.8936587 Z M10.7568999,27.4292115 C10.9649615,27.4303104 11.1964666,27.431043 11.4550783,27.4317756 L11.5649699,29.3633046 L10.7568999,27.4292115 Z M10.6092788,28.1475366 L11.634568,30.5992195 L11.7770608,33.0970569 C11.1583708,31.5446541 10.7576325,29.8841911 10.6092788,28.1475366 Z M12.0268812,19.6342298 L11.9777962,21.5049522 L10.6495724,24.7848519 C10.8459122,22.9690754 11.3184463,21.2401133 12.0268812,19.6342298 Z M13.1228673,26.6207752 C13.1228673,26.9614393 12.9613266,27.2383663 12.7616901,27.2383663 C12.5631525,27.2383663 12.4016117,26.9614393 12.4016117,26.6207752 C12.4016117,26.2779132 12.5631525,26.0013525 12.7616901,26.0013525 C12.9613266,26.0013525 13.1228673,26.2779132 13.1228673,26.6207752 Z M12.3873258,21.5917666 L13.2844081,19.3774497 C13.2953972,19.4045563 13.3008918,19.4316629 13.3144451,19.4584032 C12.8536328,20.8082391 12.5250567,22.2199806 12.3331126,23.6573634 L12.3873258,21.5917666 Z M12.4532608,19.1074825 C12.6056439,19.087702 12.779639,19.0690204 12.9708505,19.0514377 L12.4180955,20.4166584 L12.4532608,19.1074825 Z M16.7478268,13.3077671 C15.8653968,14.354302 15.0891954,15.5224503 14.4455966,16.7843728 C14.1587794,16.9561701 13.9162851,17.2195438 13.7016301,17.5389622 C13.4803815,17.5569112 13.2796461,17.5755928 13.0869694,17.595007 C14.0741628,15.9755702 15.3053157,14.524634 16.7478268,13.3077671 Z M18.7251441,14.1099762 L16.0804182,16.24627 C16.7617464,15.0601727 17.557362,13.9773736 18.4570084,13.0377999 L18.7251441,14.1099762 Z M16.7709041,22.1851815 L19.1258823,19.3430169 C19.1485932,19.3635301 19.169839,19.3858747 19.1936488,19.4049226 C18.8328379,21.2192339 18.6163513,23.1082715 18.536863,25.0361374 C18.4665324,25.0756984 18.4009637,25.1225856 18.3375928,25.1724031 L16.7709041,22.1851815 Z M17.8401499,27.5266487 L16.2881134,30.1823638 L13.8236098,27.5984446 C13.8437566,27.5456966 13.8642697,27.4929486 13.8811198,27.4380028 C15.0565942,27.4387354 16.3646712,27.4412995 17.794728,27.4423985 C17.807915,27.4717029 17.8251314,27.4977106 17.8401499,27.5266487 Z M17.7892334,25.8852337 C16.3624734,25.8859663 15.0565942,25.8866989 13.8833176,25.8888967 C13.8679328,25.836515 13.8488849,25.7852323 13.829837,25.7343158 L16.3434255,22.701306 L17.9005903,25.6716775 C17.8602967,25.7409093 17.8214683,25.810141 17.7892334,25.8852337 Z M15.1419434,19.0789107 C15.1851674,19.0195692 15.2280252,18.9598614 15.2683188,18.8961242 C16.3163189,18.8441088 17.4819031,18.80235 18.7555474,18.7686499 C18.7595768,18.7803717 18.7654377,18.7920934 18.769467,18.8049141 L16.4595444,21.5917666 L15.1419434,19.0789107 Z M16.0324321,22.1082574 L13.4847772,25.1826597 C13.4726891,25.1691064 13.4624326,25.1562857 13.4496119,25.1441976 C13.5781851,23.2632187 13.9426591,21.4126432 14.5313121,19.6686626 C14.5877231,19.6342298 14.6408374,19.5939362 14.6921202,19.55291 L16.0324321,22.1082574 Z M19.4116006,16.856535 C19.2724045,16.9814452 19.147128,17.125037 19.0405331,17.2854788 C17.8456445,17.3202778 16.7419659,17.3609377 15.7401203,17.4096564 C15.7386551,17.3821835 15.7316953,17.352879 15.7276659,17.3250398 L18.8907142,14.771524 L19.4116006,16.856535 Z M19.4467659,12.3564716 C19.942011,12.3132476 20.4720551,12.2755181 21.0368982,12.2421843 L19.2548218,13.681765 L19.0035363,12.6747911 C19.1511574,12.5806506 19.2991448,12.4725905 19.4467659,12.3564716 Z M22.6607306,10.0286 C22.9720903,9.92823229 23.2922414,9.85057552 23.6105609,9.76779047 C23.3834514,9.98537596 23.1629355,10.216881 22.9537751,10.4656025 C22.6790459,10.5604756 22.409445,10.7194522 22.1665845,10.9278801 C21.716395,10.9483932 21.285986,10.9729357 20.8727934,10.999676 C21.4482593,10.6242128 22.0471689,10.3018639 22.6607306,10.0286 Z M26.5314811,17.16936 C24.8940954,17.177785 23.2918751,17.1961003 21.7416701,17.2254047 C21.7174939,17.1547077 21.6874569,17.0880401 21.6530241,17.023204 L24.6607588,14.5055862 L26.6124347,17.0440835 C26.5849617,17.0851097 26.5549247,17.125037 26.5314811,17.16936 Z M21.320785,18.9682864 C21.3911157,18.8858677 21.4552191,18.7990532 21.5130954,18.7067442 C23.1237408,18.6774398 24.7926288,18.6613224 26.4996126,18.6539963 C26.5208583,18.6964877 26.5479649,18.7349498 26.5721411,18.7748771 L23.7109286,21.6097155 L21.320785,18.9682864 Z M20.8541118,19.3734203 L23.2706293,22.0448865 L20.1606954,25.1247834 C20.1149072,25.0925485 20.070218,25.0577495 20.0196678,25.0299103 C20.0951267,23.1302498 20.3002578,21.2738134 20.63616,19.4968653 C20.7112526,19.4609673 20.7834148,19.4184759 20.8541118,19.3734203 Z M22.9211739,12.6381606 C22.998098,12.6092224 23.0724581,12.5747897 23.1453529,12.5359613 L24.2834641,14.0158357 L21.373533,16.4510348 C21.7969822,15.0348976 22.3112752,13.7484326 22.9211739,12.6381606 Z M19.942011,16.4279576 L19.4203919,14.3425802 L21.4870877,12.6733259 C20.8782879,13.8019132 20.3636287,15.0609053 19.942011,16.4279576 Z M26.4963158,27.6742699 L23.8775976,29.9479283 L20.7185787,27.5434988 C20.7357951,27.5097987 20.7566745,27.4775638 20.7713267,27.4431311 C22.5753815,27.4464278 24.4472027,27.4471604 26.3615154,27.4471604 C26.4003438,27.5266487 26.4464983,27.6006424 26.4963158,27.6742699 Z M26.3571197,25.8801054 C24.4457375,25.880838 22.5786782,25.880838 20.7753561,25.880838 C20.7270038,25.7680159 20.6647318,25.6636188 20.5969653,25.56435 L23.6860198,22.5038673 L26.5069387,25.6214937 C26.4508939,25.7031798 26.3999775,25.7888953 26.3571197,25.8801054 Z M23.6992068,12.1260655 C24.6417109,12.0982262 25.6179152,12.0795447 26.608039,12.0692881 L24.7570972,13.6183942 L23.6457262,12.1740515 C23.6636752,12.157934 23.6823568,12.1425492 23.6992068,12.1260655 Z M25.8072951,9.42529481 L25.9768946,9.6238324 L24.4948224,10.4421589 C24.9157075,10.0095521 25.3604024,9.6633934 25.8072951,9.42529481 Z M26.9867989,10.7952775 C26.9857,10.7974753 26.9835022,10.7989405 26.9824032,10.8007721 C26.1805604,10.8073656 25.3963003,10.8201863 24.6255935,10.8403331 L26.2527226,9.9421519 L26.9867989,10.7952775 Z M26.6534609,9.25056707 L26.3464969,9.42053283 L26.2307443,9.28646501 C26.3714056,9.2725454 26.5120669,9.25972471 26.6534609,9.25056707 Z M27.9197791,10.8553516 C28.2197833,10.8553516 28.4630102,11.0861241 28.4630102,11.3707435 C28.4630102,11.6553629 28.2197833,11.8865016 27.9197791,11.8865016 C27.6197749,11.8865016 27.3772806,11.6553629 27.3772806,11.3707435 C27.3772806,11.0861241 27.6197749,10.8553516 27.9197791,10.8553516 Z M29.3765762,9.85753533 L28.847631,10.6004029 C28.7791319,10.5410614 28.7047718,10.4897787 28.6249172,10.4469209 C28.6128291,10.0666958 28.6007411,9.74031756 28.5868215,9.4516688 L29.3765762,9.85753533 Z M29.7820764,9.28683132 L29.6179715,9.5176038 L29.0674143,9.23481593 C29.3062455,9.2461714 29.5447104,9.26338776 29.7820764,9.28683132 Z M30.1908734,9.42382958 C30.670001,9.67914454 31.1461982,10.0560729 31.5963877,10.5341016 L29.9879401,9.70771637 L30.1908734,9.42382958 Z M29.2091745,10.8033362 L29.7469111,10.0476479 L31.2861269,10.8381352 C30.6044323,10.8212852 29.9132138,10.8091971 29.2091745,10.8033362 Z M31.0436326,13.6389073 L29.1564265,12.0652587 C30.2135843,12.075149 31.2480311,12.0949295 32.2528072,12.1264318 L31.0436326,13.6389073 Z M33.3421998,10.0286 C33.95393,10.3022302 34.5524733,10.6242128 35.1268403,10.999676 C34.7195086,10.9729357 34.293129,10.9491258 33.8498993,10.9278801 C33.6004452,10.7165218 33.3253498,10.5549811 33.0410967,10.4579101 C32.8334014,10.2121191 32.6161823,9.98244551 32.3923696,9.76779047 C32.7106891,9.85057552 33.0308401,9.92823229 33.3421998,10.0286 Z M34.6773835,12.9846856 L36.4671523,14.4759154 L36.1506643,16.5459079 C36.1290523,16.5352851 36.1092718,16.5209992 36.0872934,16.5118415 C35.6968117,15.2374646 35.2268417,14.0572282 34.6773835,12.9846856 Z M31.5190972,14.0348836 L32.7667338,12.4758872 C32.8660026,12.5344961 32.9689345,12.588343 33.0769946,12.6308345 C33.7165641,13.7894589 34.2484397,15.1385621 34.6858085,16.628693 C34.6770171,16.6360191 34.6689584,16.6451767 34.6601671,16.6525029 L31.5190972,14.0348836 Z M29.2652193,16.8525057 L31.1337438,14.5176742 L34.306316,17.1616675 C34.2978909,17.1821806 34.2876344,17.2012285 34.2806746,17.2221079 C32.7315685,17.1961003 31.1297144,17.177785 29.4923287,17.16936 C29.4300568,17.0547063 29.3513011,16.9506756 29.2652193,16.8525057 Z M32.1945646,21.5613632 L29.4556982,18.7726792 C29.4802406,18.7331182 29.5066146,18.6953888 29.5271277,18.6539963 C31.2352104,18.6613224 32.9033658,18.6774398 34.5121797,18.7067442 C34.5539385,18.7748771 34.6019245,18.8386142 34.6499105,18.9005199 L32.1945646,21.5613632 Z M35.3275758,27.5801293 L32.1634286,30.0325448 L29.5337212,27.6742699 C29.5824399,27.6006424 29.6296933,27.5266487 29.6681554,27.4471604 C31.5817354,27.4471604 33.4520915,27.4471604 35.2554136,27.4431311 C35.276293,27.4907508 35.3030333,27.5350738 35.3275758,27.5801293 Z M35.2513842,25.880838 C33.4520915,25.880838 31.5850322,25.8801054 29.6740163,25.8801054 C29.6051508,25.7354147 29.5146734,25.6068415 29.413573,25.4863269 L32.2084842,22.4580792 L35.3620085,25.669846 C35.3217149,25.7376125 35.2836191,25.8075769 35.2513842,25.880838 Z M36.5660547,12.3586695 C36.6327224,12.4114175 36.7001226,12.4619676 36.7667902,12.5106863 L36.5763113,13.7616196 L34.7367249,12.2289973 C35.3916792,12.2663605 36.0037758,12.3081193 36.5660547,12.3586695 Z M39.9719635,17.3968357 C39.0521704,17.352879 38.0572845,17.3166148 36.9829104,17.2854788 C36.9037884,17.1664295 36.8111131,17.059102 36.7133096,16.9580017 L37.0221051,14.938193 L39.9719635,17.3968357 Z M37.3393257,12.8612406 C37.3678975,12.8751603 37.3968357,12.891644 37.4250412,12.9044647 C38.5173643,14.0209639 39.469026,15.350653 40.2455938,16.8188056 L37.1305316,14.2238972 L37.3393257,12.8612406 Z M39.9151862,22.0254723 L41.3016526,19.5378915 C41.3547669,19.5811155 41.4086138,19.623607 41.4657575,19.6595049 C42.061004,21.411178 42.425478,23.268347 42.5536849,25.1584835 C42.5313403,25.1793629 42.513025,25.2028065 42.4925119,25.2244185 L39.9151862,22.0254723 Z M37.2909734,18.7690162 C38.5536285,18.8027163 39.7074909,18.846673 40.747066,18.8972231 C40.7836966,18.9543668 40.8214261,19.0074811 40.8598881,19.0605954 L39.496499,21.5064174 L37.2909734,18.7690162 Z M39.1719523,22.0892095 L37.5177165,25.0570169 C37.4990349,25.0452951 37.4832838,25.0313755 37.4642359,25.0211189 C37.3843813,23.1031432 37.1675284,21.221798 36.8122121,19.4195748 C36.8554361,19.3869736 36.8946308,19.3492441 36.9345581,19.3111484 L39.1719523,22.0892095 Z M42.1045943,27.4380028 L39.549247,30.1424365 L38.1206554,27.6489948 C38.1598501,27.5823272 38.1986785,27.5145606 38.2305471,27.4423985 C39.645219,27.4423985 40.9390101,27.4412995 42.1045943,27.4380028 Z M38.2356753,25.8852337 C38.1723045,25.7368799 38.0873216,25.6020795 37.9902506,25.4775356 L39.5906395,22.6086307 L42.1639358,25.8020823 C42.1540456,25.8317531 42.1426901,25.859226 42.1342651,25.8888967 C40.9635526,25.8866989 39.6602375,25.8859663 38.2356753,25.8852337 Z M42.9130306,17.595007 C42.7258485,17.5755928 42.5287761,17.5569112 42.3108243,17.5389622 C42.0943378,17.2140492 41.8434185,16.9455473 41.5492751,16.7722848 C40.9097057,15.5206188 40.1389989,14.3612618 39.2657265,13.3205878 C40.7020105,14.534158 41.9287677,15.9803322 42.9130306,17.595007 Z M43.7500387,19.1364206 C43.8584652,19.3635301 43.9610307,19.5939362 44.0599332,19.8265402 L44.0613984,21.6525733 L42.9855591,19.0466758 C43.2855633,19.0748813 43.544175,19.1030868 43.7500387,19.1364206 Z M45.3507939,24.7767931 L44.4749574,22.65332 L44.4727595,20.8932219 C44.9071979,22.1302357 45.2042717,23.4298877 45.3507939,24.7767931 Z M44.9266121,34.5102636 C45.0178222,34.3161217 45.1130616,34.1245439 45.1969456,33.9271052 C46.1702194,31.6270728 46.6650981,29.1805182 46.6629003,26.6650981 C46.6650981,24.1449161 46.1702194,21.6994604 45.1969456,19.3983291 C44.2566393,17.1755871 42.9104665,15.1788557 41.1976218,13.4645459 C39.4858761,11.7531664 37.4873131,10.406261 35.2671353,9.46705364 C32.9656377,8.49194832 30.5183505,8 28.0007326,8 C25.4838473,8 23.0354612,8.49194832 20.7354288,9.46705364 C18.5126869,10.406261 16.517787,11.7531664 14.8049423,13.4682089 C13.0891672,15.1788557 11.7455585,17.1755871 10.803787,19.3983291 C9.83197847,21.6994604 9.33783232,24.1449161 9.33783232,26.6650981 C9.33783232,29.1805182 9.83197847,31.6270728 10.803787,33.9271052 C10.8880373,34.1245439 10.9821778,34.3161217 11.0733879,34.5102636 C7.74183914,35.1186971 4.68465321,35.8978289 2,36.8201863 C9.01072148,35.3073444 18.0819116,34.3934121 28.0007326,34.3934121 C37.9173558,34.3934121 46.9900111,35.3073444 54,36.8201863 C51.3153468,35.8985615 48.2585272,35.1186971 44.9266121,34.5102636 Z" id="Fill-17" fill="#59BBAF"></path>
        </g>
    </g>
</svg>