<svg xmlns="http://www.w3.org/2000/svg" xmlns:xlink="http://www.w3.org/1999/xlink" width="250" height="125" viewBox="0 0 250 125">
  <defs>
    <clipPath id="clip-Artboard_9">
      <rect width="250" height="125"/>
    </clipPath>
  </defs>
  <g id="Artboard_9" data-name="Artboard – 9" clip-path="url(#clip-Artboard_9)">
    <g id="Group_11555" data-name="Group 11555" transform="translate(-3158.318 -2478)">
      <g id="g4739" transform="translate(3177.741 2833.327)">
        <path id="path4741" d="M7.9-244.7a8.728,8.728,0,0,1-3.7-1.9c-10.7-10.5,3-22.6,19-29.6v-20c3.7,2.4,5.8,2.5,5.9,2.8l12.2-12.1-4.1-10.4c35.7-12.3,50-17,79-21.9l-5.2-4.9,8.5-4.8c19.5,6.4,37.9,8.1,34.7,24.5.8-11.1-13-15.3-34-21.2l-4.1,2.5,7.8,6.4c-34.7,6-56.1,12.8-81.5,21.6l3.5,9L33.1-292c2.1.6,24.4,8,47.5-8.1,0,0,.5-.3.5-.5a27.416,27.416,0,0,0-4.2-4.1,11.152,11.152,0,0,1,10.4,12.6H84.1a11.047,11.047,0,0,0-.9-5.6c-17.9,13.1-38.7,15-56.4,8.8v15.5c-8.6,3-23.9,12.5-23.8,21.7a8.354,8.354,0,0,0,4.9,7" fill="#fff"/>
      </g>
      <g id="g4743" transform="translate(3212.753 2835.804)">
        <path id="path4745" d="M46.1-252.3c-19.2,9.7-37.6,17.5-65.9,18.6-36.9-.8-42.6-25.3-25.2-50.9,16.5-25.8,42.7-49.2,84.3-63.8,12.1-4.3,29.8-9.1,46.9-9.4,24.6-.2,48.5,7.4,46.9,31-.9,18.1-27,43.5-40.7,61.8-5.9,8-6.9,13.2,3.2,12.7,36.5-2.4,69.5-15,100.2-28.1-20.8,14.1-128.1,67.2-128.5,31,.1-4.6,2.2-9.5,5.7-14.7,3.4-5.2,8.1-10.6,13-16.1,7.3-8.3,25.5-28.3,31.6-40.3C127.9-342.9,104.9-344,85-351l-8.5,4.8,5.2,4.9c-29,4.8-43.3,9.6-79,21.9L6.8-309-5.3-297a28.16,28.16,0,0,1-5.9-2.8v20c-15.9,7-29.7,19.1-19,29.6a8.727,8.727,0,0,0,3.7,1.9c19.6,11,72.7-4,72.6-4" fill="#fff"/>
      </g>
    </g>
  </g>
</svg>
