<?xml version="1.0" encoding="UTF-8"?>
<svg width="27px" height="18px" viewBox="0 0 27 18" version="1.1" xmlns="http://www.w3.org/2000/svg" xmlns:xlink="http://www.w3.org/1999/xlink">
    <!-- Generator: Sketch 50.2 (55047) - http://www.bohemiancoding.com/sketch -->
    <title>Artboard Copy</title>
    <desc>Created with Sketch.</desc>
    <defs></defs>
    <g id="Artboard-Copy" stroke="none" stroke-width="1" fill="none" fill-rule="evenodd">
        <g id="toggle-on-solid-copy-2" transform="translate(13.500000, 9.000000) rotate(-180.000000) translate(-13.500000, -9.000000) " fill="#9B9B9B" fill-rule="nonzero">
            <path d="M27,9 C27,13.9705781 22.9705781,18 18,18 L9,18 C4.02942187,18 0,13.9705781 0,9 C0,4.02942188 4.02942187,0 9,0 L18,0 C22.9705781,0 27,4.02942188 27,9 Z M18,3 C14.6840156,3 12,5.68354687 12,9 C12,12.3159844 14.6835469,15 18,15 C21.3159844,15 24,12.3164531 24,9 C24,5.68401562 21.3164531,3 18,3 Z" id="Shape"></path>
        </g>
    </g>
</svg>