<?xml version="1.0" encoding="UTF-8"?>
<svg width="21px" height="20px" viewBox="0 0 21 20" version="1.1" xmlns="http://www.w3.org/2000/svg" xmlns:xlink="http://www.w3.org/1999/xlink">
    <!-- Generator: Sketch 50.2 (55047) - http://www.bohemiancoding.com/sketch -->
    <title>Artboard</title>
    <desc>Created with Sketch.</desc>
    <defs></defs>
    <g id="Artboard" stroke="none" stroke-width="1" fill="none" fill-rule="evenodd">
        <g id="warning-copy" fill-rule="nonzero">
            <g id="Group" transform="translate(10.500000, 10.000000) scale(-1, 1) rotate(-180.000000) translate(-10.500000, -10.000000) ">
                <g id="Shape">
                    <g>
                        <path d="M1.28606533,0.00733333333 C0.180241206,0.00733333333 -0.307243719,0.788 0.201874372,1.742 L9.57246482,19.278359 C10.0815302,20.232359 10.9159899,20.232359 11.4256884,19.278359 L20.7963317,1.742 C21.3066106,0.788 20.8185452,0.00733333333 19.7121407,0.00733333333 L1.28606533,0.00733333333 Z" fill="#e6922a"></path>
                        <path d="M9.5995603,12.4293323 C9.5995603,12.9399054 9.98729579,13.2559548 10.5001038,13.2559548 C11.0008195,13.2559548 11.4010729,12.9281182 11.4010729,12.4293323 L11.4010729,7.7479408 C11.4010729,7.24953397 11.0008195,6.92131821 10.5001038,6.92131821 C9.98729579,6.92131821 9.5995603,7.23778121 9.5995603,7.7479408 L9.5995603,12.4293323 Z M9.52452387,5.25587221 C9.52452387,5.77861174 9.96229547,6.20405492 10.5001038,6.20405492 C11.0379476,6.20405492 11.4761093,5.77857727 11.4761093,5.25587221 C11.4761093,4.73275357 11.0379476,4.30727592 10.5001038,4.30727592 C9.96229547,4.30727592 9.52452387,4.73275357 9.52452387,5.25587221 Z" fill="#FFFFFF"></path>
                    </g>
                </g>
            </g>
        </g>
    </g>
</svg>