<?xml version="1.0" encoding="UTF-8"?>
<svg width="1024px" height="1024px" viewBox="0 0 1024 1024" version="1.1" xmlns="http://www.w3.org/2000/svg" xmlns:xlink="http://www.w3.org/1999/xlink">
    <!-- Generator: Sketch 52.5 (67469) - http://www.bohemiancoding.com/sketch -->
    <title>1024ww</title>
    <desc>Created with Sketch.</desc>
    <defs>
        <linearGradient x1="8.72268887%" y1="87.9121208%" x2="74.0256933%" y2="15.8800481%" id="linearGradient-1">
            <stop stop-color="#EAEAE9" offset="0%"></stop>
            <stop stop-color="#EAEAE9" offset="100%"></stop>
        </linearGradient>
        <linearGradient x1="74.0256933%" y1="15.8800481%" x2="8.72268887%" y2="87.9121208%" id="linearGradient-2">
            <stop stop-color="#E45784" offset="0%"></stop>
            <stop stop-color="#BF3C6B" offset="100%"></stop>
        </linearGradient>
    </defs>
    <g id="1024ww" stroke="none" stroke-width="1" fill="none" fill-rule="evenodd">
        <g id="Group-3" transform="translate(1.000000, 157.000000)">
            <g id="Group-2-Copy-7" transform="translate(27.872727, 23.227273)" fill="url(#linearGradient-1)">
                <path d="M848.354789,254.847917 C837.365553,249.987584 825.540627,246.686502 813.814787,243.754236 C806.903048,242.025185 804.414672,238.777051 803.279853,232.142023 C787.96447,142.486971 740.920894,74.4258893 658.301584,31.111968 C628.618683,15.5523324 596.626883,6.73362313 563.223569,2.66204515 C559.269464,2.18185457 555.418183,0.907432401 551.518295,0 L514.127224,0 C508.049305,1.18130536 502.0013,2.51963121 495.891599,3.51652878 C387.242495,21.2616706 313.376434,80.5843792 273.962506,180.86205 C271.403088,187.371097 268.907234,190.595495 260.832632,190.111653 C130.709836,182.319054 21.8438636,269.100265 2.45285425,395.680695 C1.86020577,399.538652 0.826342665,403.332705 0,407.157798 L0,447.325831 C1.99107452,457.092141 3.90362779,466.871232 5.98817999,476.617457 C26.7738763,573.732808 111.569347,650.123279 212.22237,662.39644 C268.638018,669.276128 321.673513,656.9062 372.919845,634.990886 C376.286911,633.550314 379.250153,630.139683 381.287967,626.964582 C448.472243,522.255647 543.195042,454.605375 667.051095,428.764548 C777.638926,405.691664 882.924703,422.045532 981.367914,477.318572 C984.839675,479.266722 988.356306,481.14549 993.594795,484.008375 C993.594795,471.255025 994.922178,459.756012 993.385405,448.633118 C980.934178,358.554477 933.969124,292.719069 848.354789,254.847917 Z" id="Fill-1"></path>
            </g>
            <g id="Group-Copy">
                <g id="Group-2-Copy-3" fill="url(#linearGradient-2)">
                    <path d="M848.354789,249.501457 C837.365553,244.74309 825.540627,241.511261 813.814787,238.640511 C806.903048,236.947733 804.414672,233.767743 803.279853,227.27191 C787.96447,139.497734 740.920894,72.864507 658.301584,30.4592694 C628.618683,15.2260597 596.626883,6.59235831 563.223569,2.60619805 C559.269464,2.13608139 555.418183,0.888395358 551.518295,0 L514.127224,0 C508.049305,1.15652273 502.0013,2.46677182 495.891599,3.44275545 C387.242495,20.8156216 313.376434,78.8937978 273.962506,177.067741 C271.403088,183.440235 268.907234,186.596988 260.832632,186.123296 C130.709836,178.494179 21.8438636,263.454805 2.45285425,387.379701 C1.86020577,391.156722 0.826342665,394.87118 0,398.616026 L0,437.941373 C1.99107452,447.502796 3.90362779,457.07673 5.98817999,466.61849 C26.7738763,561.696456 111.569347,636.48433 212.22237,648.500011 C268.638018,655.23537 321.673513,643.124951 372.919845,621.669399 C376.286911,620.259049 379.250153,616.919969 381.287967,613.811479 C448.472243,511.299235 543.195042,445.068199 667.051095,419.769488 C777.638926,397.18065 882.924703,413.19143 981.367914,467.304896 C984.839675,469.212175 988.356306,471.051529 993.594795,473.854354 C993.594795,461.368556 994.922178,450.110781 993.385405,439.221235 C980.934178,351.032355 933.969124,286.57811 848.354789,249.501457 Z" id="Fill-1"></path>
                </g>
            </g>
        </g>
    </g>
</svg>
