<svg xmlns="http://www.w3.org/2000/svg" xmlns:xlink="http://www.w3.org/1999/xlink" width="13" height="14" viewBox="0 0 13 14">
    <defs>
        <linearGradient id="a" x1="74.026%" x2="8.723%" y1="15.88%" y2="87.912%">
            <stop offset="0%" stop-color="#E45784"/>
            <stop offset="100%" stop-color="#BF3C6B"/>
        </linearGradient>
        <path id="b" d="M0 .144h5.64V5.94H0z"/>
    </defs>
    <g fill="none" fill-rule="evenodd">
        <path fill="url(#a)" d="M11.927 5.195c-.15-1.043-.713-1.805-1.741-2.244a2.628 2.628 0 0 0-.415-.128c-.083-.02-.113-.058-.126-.135C9.46 1.65 8.895.862 7.904.36A3.383 3.383 0 0 0 6.762.03C6.715.026 6.67.01 6.622 0h-.45c-.072.014-.145.03-.218.04-1.305.206-2.191.893-2.665 2.054-.03.076-.06.113-.157.107-1.563-.09-2.87.915-3.103 2.38-.007.045-.02.09-.029.134v.465l.072.339c.25 1.125 1.268 2.01 2.476 2.151.677.08 1.314-.063 1.93-.317a.249.249 0 0 0 .1-.093c.807-1.213 1.944-1.996 3.43-2.295a5.454 5.454 0 0 1 3.775.562c.041.023.084.044.147.078 0-.148.015-.281-.003-.41"/>
        <path fill="#57C2BB" d="M12.1 8.732c0-1.614-1.335-2.923-2.983-2.923-1.648 0-2.985 1.309-2.985 2.923 0 1.514 1.176 2.755 2.681 2.904L9.8 10.32l-.087.032a1.778 1.778 0 0 1-.596.103c-.972-.001-1.758-.771-1.76-1.723.002-.952.788-1.721 1.76-1.723.971.002 1.757.771 1.759 1.723 0 .322-.092.622-.249.88l.003.002-.026.036a1.73 1.73 0 0 1-.141.19L7.338 14h1.668l1.986-2.753c.166-.232.446-.637.589-.86l.077-.123c.28-.446.443-.97.443-1.532"/>
        <g transform="translate(0 8)">
            <mask id="c" fill="#fff">
                <use xlink:href="#b"/>
            </mask>
            <path fill="#002A40" d="M2.682.144C2.619.144.545.15 0 .153v4.31h1.228V1.322c.7-.003 1.417-.004 1.454-.004.971.001 1.757.771 1.76 1.723-.003.953-.79 1.756-1.76 1.724C2.617 4.763.54 4.763 0 4.763V5.94h2.682c1.633 0 2.957-1.297 2.957-2.898 0-1.6-1.324-2.897-2.957-2.897" mask="url(#c)"/>
        </g>
    </g>
</svg>
