<svg xmlns="http://www.w3.org/2000/svg" width="24" height="13" viewBox="0 0 24 13">
    <path fill="#5ABBAE" fill-rule="evenodd" d="M19.134 10.005l.45-1.085a7.84 7.84 0 0 1-.496 2.292l.046-1.207zm.314-1.241l-.293.707.027-.706.266-.001zm-.288-.693v-.974l.402.976-.495-.002h.093zm-.21 1.894l-.347.835c.133-.552.22-1.12.259-1.693a.581.581 0 0 0 .126-.154l-.038 1.012zm-.066 1.735l-.05.111a4.046 4.046 0 0 1-.18.025l-.253-.04-.002-.019.53-1.279-.045 1.202zm-.11-3.3c0 .153-.073.278-.162.278-.09 0-.163-.125-.163-.279 0-.154.073-.28.163-.28.09 0 .162.126.162.28zm-.414-3.24l.613 1.486V7.86a.61.61 0 0 0-.111-.135c-.06-.874-.23-1.736-.508-2.55l.006-.015zm-.542 6.366l-.736-1.286 1.149-1.216c.019.025.04.047.062.068a9.808 9.808 0 0 1-.475 2.434zm-1.915-.038l.979-1.036.702 1.226a40.748 40.748 0 0 0-1.681-.19zm.094-2.335a.715.715 0 0 0 .103-.067l.637 1.113-.95 1.005c.11-.666.18-1.352.21-2.05zm-.36-.475c-.118 0-.214-.125-.214-.279 0-.154.096-.28.215-.28.117 0 .213.126.213.28 0 .154-.096.279-.213.279zm-.352-3.924c-.116.021-.233-.084-.26-.235-.029-.152.042-.292.158-.314.116-.02.233.084.261.236.029.15-.043.291-.159.313zm-.055 3.003l-1.414-1.44L14.93 5.11c.038.027.078.05.12.07.152.804.244 1.647.278 2.508a.726.726 0 0 0-.098.069zm-.118 3.532l-1.295-1.162 1.388-1.075a.721.721 0 0 0 .123.09 17.33 17.33 0 0 1-.216 2.147zm-2.816.017l1.297-1.005 1.23 1.103a46.505 46.505 0 0 0-2.527-.098zm-.214-2.14a.846.846 0 0 0 .146-.09l1.154 1.036-1.307 1.013.007-1.959zm.116-4.099l1.233 1.255-1.278 1.385c-.024-.014-.046-.03-.071-.041a526.8 526.8 0 0 0-.011-2.52.748.748 0 0 0 .127-.079zm-.166-3.048l.002-.002.893.744-.848 1.06-.02-.011c-.006-.656-.015-1.255-.027-1.791zm-.291 2.708a.287.287 0 0 1-.294-.279c0-.153.131-.279.294-.279.162 0 .293.126.293.28a.286.286 0 0 1-.293.278zm0 3.95a.286.286 0 0 1-.294-.278c0-.154.131-.28.294-.28.162 0 .293.126.293.28a.286.286 0 0 1-.293.279zm-.333-7.542l-.302-.35.362-.2c-.009.148-.016.318-.022.523-.014.008-.025.018-.038.027zm-.01 2.679a.712.712 0 0 0-.102.06l-.86-1.119.934-.781c.018.013.034.029.054.04-.01.54-.02 1.14-.027 1.8zm-.023 3.858a.856.856 0 0 0-.126.076L9.98 6.346l1.29-1.278a.741.741 0 0 0 .115.072c-.005.817-.01 1.665-.01 2.532zm-1.28 2.4l1.147-.995c.041.03.085.06.133.083 0 .643.003 1.275.006 1.892l-1.286-.98zM8.557 11.41l1.323-1.15 1.373 1.046c-.919.01-1.82.044-2.696.104zm-.429-2.26a.726.726 0 0 0 .148-.11l1.377 1.048-1.318 1.145a17.416 17.416 0 0 1-.207-2.083zm-.21-4.69c.016-.154.124-.269.241-.257.117.012.2.146.185.299-.016.153-.124.268-.24.256-.118-.012-.2-.146-.185-.299zM7.76 8.677c-.117 0-.213-.125-.213-.279 0-.154.096-.28.213-.28.119 0 .214.126.214.28 0 .154-.095.279-.214.279zm-1.114 1.538l.682-1.167c.04.037.084.071.132.098.03.737.108 1.46.229 2.16l-1.043-1.091zM5.8 11.688l-.009-.01.709-1.212.982 1.03c-.573.053-1.134.118-1.682.192zm-.635-2.59c.006-.004.01-.01.015-.015l1.12 1.173-.69 1.18a9.814 9.814 0 0 1-.445-2.337zm-.54 2.713l-.063-1.103.463 1.093-.222.035a5.496 5.496 0 0 1-.178-.025zM4.46 8.923a.625.625 0 0 0 .133.179c.047.689.164 1.37.346 2.027l-.41-.978-.069-1.228zm-.065-.852l-.496.002.588-1.451-.035 1.303a.924.924 0 0 0-.057.146zm-.445.693l.315.001.05.871-.365-.872zm-.067.324l.463 1.106.064 1.127c-.279-.7-.46-1.45-.527-2.233zm.64-3.84l-.022.844-.6 1.479a7.827 7.827 0 0 1 .622-2.323zm.494 3.151c0 .154-.073.279-.163.279-.09 0-.162-.125-.162-.279 0-.154.073-.28.162-.28.09 0 .163.126.163.28zm-.332-2.268l.405-.999c.005.012.008.025.014.037a9.944 9.944 0 0 0-.443 1.894l.024-.932zm.03-1.12a6.8 6.8 0 0 1 .234-.026l-.25.616.016-.59zm1.937-2.617a8.238 8.238 0 0 0-1.038 1.568 1.1 1.1 0 0 0-.336.34l-.277.026c.445-.73 1-1.385 1.651-1.934zm.892.362l-1.193.964a7.466 7.466 0 0 1 1.072-1.448l.121.484zm-.881 3.643l1.062-1.283.03.028a16.54 16.54 0 0 0-.296 2.54.708.708 0 0 0-.09.062l-.706-1.347zm.482 2.409l-.7 1.198L5.333 8.84c.01-.023.019-.047.026-.072l1.766.002.02.038zm-.023-.74l-1.762.001A1.021 1.021 0 0 0 5.336 8L6.47 6.631l.702 1.34a.886.886 0 0 0-.05.097zm-1.194-3.07c.02-.027.039-.054.057-.083.473-.024.998-.043 1.573-.058l.006.017L6.522 6.13l-.594-1.134zm.402 1.366L5.18 7.75l-.015-.017a9.84 9.84 0 0 1 .488-2.47.713.713 0 0 0 .072-.052l.605 1.153zm1.524-2.37a1.02 1.02 0 0 0-.167.194c-.54.016-1.037.034-1.49.056 0-.012-.003-.025-.005-.038L7.62 3.054l.235.94zm.016-2.029c.223-.02.462-.036.717-.051l-.804.649-.113-.454c.066-.043.133-.092.2-.144zM9.32.915c.14-.045.284-.08.428-.118a4.015 4.015 0 0 0-.296.315 1.102 1.102 0 0 0-.355.209c-.203.009-.398.02-.584.032.26-.17.53-.315.806-.438zm1.745 3.221c-.738.004-1.46.012-2.16.025a.635.635 0 0 0-.04-.091l1.357-1.136.88 1.146c-.012.018-.026.036-.037.056zm-2.35.811a.998.998 0 0 0 .087-.117c.726-.014 1.48-.021 2.25-.024.009.019.02.036.032.054L9.794 6.14 8.714 4.947zm-.21.183l1.09 1.205-1.403 1.39c-.02-.015-.041-.03-.064-.043.034-.857.127-1.695.278-2.496a.889.889 0 0 0 .099-.056zm.932-3.038a.884.884 0 0 0 .101-.046l.513.667L8.74 3.812c.19-.639.423-1.22.698-1.72zm-1.344 1.71l-.235-.941.932-.753a9.404 9.404 0 0 0-.697 1.694zm2.957 5.073L9.868 9.9 8.443 8.816c.008-.016.017-.03.024-.046.814.002 1.658.002 2.522.002.017.036.038.07.06.103zm-.063-.81H8.469a.852.852 0 0 0-.08-.142l1.393-1.38 1.272 1.406a.831.831 0 0 0-.067.116zm-1.2-6.204c.426-.012.866-.02 1.313-.025l-.835.698-.501-.651.024-.022zM10.74.643l.076.09-.668.369c.19-.196.39-.352.592-.46zm.532.618l-.002.002c-.362.003-.716.01-1.063.018l.734-.405.33.385zm-.15-.697l-.139.077-.052-.06a5.63 5.63 0 0 1 .19-.017zm.57.724c.136 0 .246.104.246.232 0 .129-.11.233-.245.233a.239.239 0 0 1-.245-.233c0-.128.11-.232.245-.232zm.658-.45l-.239.335a.543.543 0 0 0-.1-.07c-.006-.17-.011-.318-.017-.448l.356.183zm.183-.258l-.074.105-.249-.128c.108.005.216.013.323.023zm.184.062c.216.115.431.285.634.501L12.625.77l.091-.128zm-.443.622l.243-.34.694.356a58.98 58.98 0 0 0-.937-.016zm.828 1.28l-.851-.71c.476.004.943.013 1.396.027l-.545.683zM14.138.915c.276.123.546.269.805.438a32.774 32.774 0 0 0-.576-.032 1.14 1.14 0 0 0-.365-.212 4.081 4.081 0 0 0-.293-.312c.144.038.288.073.429.118zm.602 1.333l.807.673-.143.934-.028-.016a9.761 9.761 0 0 0-.636-1.59zm-1.425.474l.563-.703c.045.026.091.05.14.07.288.522.528 1.13.726 1.803-.004.003-.008.008-.012.01l-1.417-1.18zM12.3 3.993l.842-1.053 1.431 1.193-.011.027c-.699-.012-1.421-.02-2.16-.024a.794.794 0 0 0-.102-.143zm1.32 2.124L12.386 4.86l.032-.053c.77.003 1.523.01 2.248.024.02.03.04.059.062.087l-1.107 1.2zm1.414 2.715l-1.427 1.106-1.186-1.063a.888.888 0 0 0 .06-.103c.864 0 1.707 0 2.52-.002.01.022.022.042.033.062zM15 8.066h-2.516a.842.842 0 0 0-.117-.179l1.26-1.365L15.05 7.97a.884.884 0 0 0-.05.096zm.593-6.1l.09.069-.086.564-.83-.691c.296.016.572.035.826.058zm1.536 2.272a72.42 72.42 0 0 0-1.348-.05 1.05 1.05 0 0 0-.122-.147l.14-.911 1.33 1.108zm-1.187-2.045l.038.02a7.622 7.622 0 0 1 1.273 1.765l-1.406-1.17.095-.615zm1.162 4.134l.625-1.123c.024.02.048.04.074.055a9.78 9.78 0 0 1 .49 2.48l-.027.03-1.162-1.442zm-1.184-1.47c.57.016 1.09.035 1.559.058.016.026.033.05.05.074l-.614 1.103-.995-1.234zm.848 1.498l-.746 1.339c-.008-.005-.015-.012-.024-.016a16.688 16.688 0 0 0-.294-2.527c.02-.015.037-.032.055-.049l1.01 1.253zm1.323 2.413l-1.153 1.22-.644-1.125a.91.91 0 0 0 .05-.093c.638 0 1.221 0 1.747-.002zm-1.745-.7a.83.83 0 0 0-.11-.184l.721-1.294 1.16 1.44-.013.04c-.528-.002-1.116-.002-1.758-.002zm2.11-3.74a13.984 13.984 0 0 0-.272-.025 1.095 1.095 0 0 0-.343-.346A8.293 8.293 0 0 0 16.81 2.4a7.91 7.91 0 0 1 1.645 1.928zm.377.695c.05.103.095.207.14.312v.823l-.485-1.175a5.5 5.5 0 0 1 .345.04zm.722 2.545l-.395-.958v-.794c.195.558.33 1.144.395 1.752zm-.191 4.39c.041-.088.084-.174.122-.263a8.346 8.346 0 0 0 .661-3.276 8.403 8.403 0 0 0-2.465-5.954A8.398 8.398 0 0 0 11.728 0a8.372 8.372 0 0 0-5.952 2.466A8.372 8.372 0 0 0 3.31 8.42c0 1.135.223 2.239.661 3.276.038.089.08.175.122.263C2.59 12.232 1.21 12.584 0 13c3.162-.682 7.254-1.095 11.728-1.095 4.473 0 8.566.413 11.728 1.095-1.211-.416-2.59-.768-4.093-1.042z"/>
</svg>
