<?xml version="1.0" encoding="UTF-8"?>
<svg width="123px" height="30px" viewBox="0 0 123 30" version="1.1" xmlns="http://www.w3.org/2000/svg" xmlns:xlink="http://www.w3.org/1999/xlink">
    <!-- Generator: Sketch 52.4 (67378) - http://www.bohemiancoding.com/sketch -->
    <title>Group 28</title>
    <desc>Created with Sketch.</desc>
    <defs>
        <polygon id="path-1" points="0.328842724 0.287392405 14.8406889 0.287392405 14.8406889 20.5066329 0.328842724 20.5066329"></polygon>
        <polygon id="path-3" points="0 29.8776076 122.520262 29.8776076 122.520262 -0.000113924051 0 -0.000113924051"></polygon>
    </defs>
    <g id="Page-1" stroke="none" stroke-width="1" fill="none" fill-rule="evenodd">
        <g id="1-copy-2" transform="translate(-661.000000, -172.000000)">
            <g id="Group-3" transform="translate(292.000000, 152.000000)">
                <g id="Group-4">
                    <g id="Group-5">
                        <g id="Group-6">
                            <g id="Group-7">
                                <g id="Group-8">
                                    <g id="Group-10">
                                        <g id="Group-2" transform="translate(354.000000, 0.000000)">
                                            <g id="Group-28" transform="translate(15.000000, 20.000000)">
                                                <g id="Group-27">
                                                    <path d="M70.1575947,16.1548101 C70.1606494,14.1903797 71.7590419,12.6011392 73.7335493,12.5981013 C75.7092021,12.6011392 77.3064491,14.1903797 77.3095039,16.1548101 C77.3064491,18.118481 75.7092021,19.706962 73.7335493,19.7103797 C71.7590419,19.706962 70.1606494,18.118481 70.1575947,16.1548101 M73.7335493,10.1768354 C70.4134291,10.1768354 67.723349,12.8532911 67.723349,16.1548101 C67.723349,19.4555696 70.4134291,22.1316456 73.7335493,22.1324051 C77.0536694,22.1316456 79.7437495,19.4555696 79.7437495,16.1548101 C79.7437495,12.8532911 77.0536694,10.1768354 73.7335493,10.1768354" id="Fill-1" fill="#002A40"></path>
                                                    <path d="M90.6357674,10.1575063 C89.4241813,10.1575063 88.198467,10.583962 87.3943068,11.4881392 C86.5909103,10.583962 85.3648142,10.1575063 84.1524644,10.1575063 C81.7693856,10.1613038 79.9510518,11.8428228 79.9479971,13.9010506 L79.9479971,22.0557342 L80.1706112,22.0557342 L82.4307367,22.0557342 L82.4307367,14.3320633 C82.4483015,13.0883924 83.1222534,12.3949747 84.199431,12.3832025 C85.423236,12.4120633 86.1174256,12.9232025 86.1533188,14.6343418 L86.1525551,22.0557342 L88.6356766,22.0557342 L88.6356766,14.6335823 C88.671188,12.9232025 89.3649957,12.4120633 90.5903282,12.3832025 C91.6663602,12.3949747 92.3395485,13.0887722 92.3590224,14.3320633 L92.3590224,22.0557342 L94.8409984,22.0557342 L94.8409984,13.9010506 C94.8364163,11.8428228 93.0188462,10.1613038 90.6357674,10.1575063" id="Fill-3" fill="#002A40"></path>
                                                    <path d="M101.116274,12.5531772 C102.661208,12.5596329 103.851793,13.4296329 104.316495,14.8236835 L97.9164339,14.8236835 C98.3822817,13.4296329 99.5721028,12.5596329 101.116274,12.5531772 M101.116274,10.175962 C97.9236889,10.1816582 95.1343298,12.6230506 95.1293658,16.153557 C95.1343298,19.6855823 97.9236889,22.1277342 101.116274,22.1334304 C103.726549,22.1277342 106.065716,20.495962 106.835892,17.9702658 L106.86453,17.8745696 L104.164904,17.8745696 L104.145048,17.9163418 C103.592522,19.055962 102.49587,19.7512785 101.116274,19.7546962 C99.4831335,19.7486203 98.2444366,18.7749494 97.8427383,17.2350759 L104.485652,17.2350759 L105.850738,17.2350759 L107.003903,17.2350759 L107.014212,17.1731772 C107.068052,16.8450759 107.103945,16.5071013 107.105091,16.1550759 C107.099745,12.6230506 104.308858,10.1816582 101.116274,10.175962" id="Fill-5" fill="#002A40"></path>
                                                    <g id="Group-9" transform="translate(107.679573, 7.472544)">
                                                        <mask id="mask-2" fill="white">
                                                            <use xlink:href="#path-1"></use>
                                                        </mask>
                                                        <g id="Clip-8"></g>
                                                        <path d="M14.8407653,7.50372152 C14.8407653,3.51827848 11.5916678,0.287772152 7.58499493,0.287392405 C3.57794019,0.287772152 0.329606409,3.51827848 0.328842724,7.50372152 C0.329606409,11.2400506 3.1876972,14.3038481 6.84765714,14.6725823 L9.24753698,11.4234684 L9.03408705,11.5013165 C8.57931268,11.6649873 8.09322724,11.7572658 7.58499493,11.7572658 C5.22329933,11.7527089 3.31217784,9.85321519 3.30759573,7.50372152 C3.31217784,5.15422785 5.22329933,3.25511392 7.58499493,3.25055696 C9.94669052,3.25511392 11.8574302,5.15422785 11.8616304,7.50372152 C11.8616304,8.2981519 11.6390163,9.03789873 11.2583194,9.67397468 L11.2648107,9.68043038 L11.2002793,9.77043038 C11.0910724,9.94093671 10.9795744,10.0951139 10.8581485,10.2378987 L3.26024726,20.5066329 L7.31694152,20.5066329 L12.1445757,13.711443 C12.5493287,13.1391646 13.2278628,12.1381519 13.5757212,11.5867595 L13.7647332,11.2848608 L13.7635877,11.2848608 C14.4459402,10.1851139 14.8411471,8.88979747 14.8407653,7.50372152" id="Fill-7" fill="#57C2BB" mask="url(#mask-2)"></path>
                                                    </g>
                                                    <path d="M60.2897164,7.82893671 C60.1369794,7.82893671 55.094368,7.83956962 53.7693746,7.85058228 L53.7693746,10.7526076 L53.7693746,18.4884304 L56.7557645,18.4884304 L56.7557645,10.735519 C58.4584,10.7298228 60.1999834,10.7256456 60.2897164,10.7252658 C62.6517939,10.7298228 64.5629154,12.6304557 64.5674975,14.9803291 C64.5629154,17.3305823 62.6502665,19.3147595 60.2897164,19.2353924 C60.133161,19.2300759 55.0848219,19.2308354 53.7693746,19.2308354 L53.7693746,22.1332405 L60.2897164,22.1332405 C64.260878,22.1313418 67.4798099,18.9308354 67.4798099,14.9803291 C67.4798099,11.030962 64.260878,7.82893671 60.2897164,7.82893671" id="Fill-10" fill="#002A40"></path>
                                                    <path d="M61.054165,27.6773924 L61.1920101,27.331443 C61.262651,27.3823291 61.3508566,27.4252405 61.4562451,27.4597975 C61.5616336,27.4943544 61.6559487,27.511443 61.7388085,27.511443 C61.8865816,27.511443 62.0049527,27.4715696 62.0946857,27.391443 C62.1840368,27.310557 62.2287124,27.2084051 62.2287124,27.0846076 C62.2287124,26.9915696 62.2038927,26.9053671 62.1542531,26.826 C62.1042318,26.7462532 61.9793693,26.6589114 61.7785202,26.5651139 L61.5551423,26.4625823 C61.3661303,26.3737215 61.2343947,26.2704304 61.1591717,26.1496709 C61.0843306,26.0292911 61.0465282,25.8842278 61.0465282,25.7152405 C61.0465282,25.5094177 61.1198419,25.3389114 61.2664694,25.2033418 C61.4123332,25.0677722 61.6001997,25.0001772 61.829687,25.0001772 C62.1363065,25.0001772 62.3493746,25.0499241 62.4688913,25.1494177 L62.3570115,25.4767595 C62.3066083,25.4395443 62.2302398,25.4053671 62.1267605,25.3708101 C62.0232812,25.3373924 61.9274387,25.3199241 61.839615,25.3199241 C61.710934,25.3199241 61.609364,25.3571392 61.5356684,25.4292911 C61.4615909,25.5018228 61.424934,25.5956203 61.424934,25.7091646 C61.424934,25.7797975 61.4382985,25.8435949 61.4646457,25.9020759 C61.4913746,25.9594177 61.5280315,26.0076456 61.5749981,26.0456203 C61.6223466,26.0851139 61.7193346,26.1397975 61.8659621,26.2096709 L62.0923947,26.3171392 C62.2817885,26.4056203 62.4146697,26.5127089 62.4910382,26.6357468 C62.5670248,26.7591646 62.6052091,26.9163797 62.6052091,27.1070127 C62.6052091,27.3139747 62.5219674,27.4897975 62.3543386,27.6337215 C62.1874734,27.7776456 61.9644774,27.8497975 61.6838232,27.8497975 C61.4382985,27.8497975 61.2282852,27.7924557 61.054165,27.6773924" id="Fill-12" fill="#000000"></path>
                                                    <polygon id="Fill-14" fill="#000000" points="67.7587458 25.3863038 67.7587458 26.1518734 68.674404 26.1518734 68.674404 26.4708608 67.7587458 26.4708608 67.7587458 27.465038 69.0146256 27.465038 69.0146256 27.8022532 67.3803399 27.8022532 67.3803399 25.0468101 69.0360088 25.0468101 69.0360088 25.3863038"></polygon>
                                                    <path d="M75.5619255,25.1493418 L75.4351538,25.4709873 C75.3144916,25.3825063 75.124334,25.3388354 74.8646812,25.3388354 C74.6206838,25.3388354 74.4255623,25.4425063 74.2789348,25.6506076 C74.1323073,25.8590886 74.0582299,26.1279494 74.0582299,26.4564304 C74.0582299,26.7697215 74.1334529,27.0237722 74.2846625,27.2185823 C74.4351084,27.4137722 74.6298481,27.5113671 74.8681178,27.5113671 C75.1277706,27.5113671 75.3282379,27.4198481 75.4676104,27.2371899 L75.6753327,27.5246582 C75.456537,27.7411139 75.1735917,27.8497215 74.8284061,27.8497215 C74.4668013,27.8497215 74.181565,27.7202278 73.973079,27.4612405 C73.7653567,27.2007342 73.6614956,26.858962 73.6614956,26.4340253 C73.6614956,26.0223797 73.7722299,25.6802278 73.9940804,25.4087089 C74.2163127,25.1360506 74.5030764,25.0001013 74.8547533,25.0001013 C75.1564088,25.0001013 75.3920056,25.0498481 75.5619255,25.1493418" id="Fill-16" fill="#000000"></path>
                                                    <path d="M80.4494326,25.047 L80.8270748,25.047 L80.8270748,26.9332025 C80.8270748,27.1021899 80.8809146,27.240038 80.9878304,27.3486456 C81.0951282,27.4572532 81.2367917,27.5111772 81.4132029,27.5111772 C81.6006876,27.5111772 81.7469332,27.4587722 81.8546128,27.3535823 C81.9611469,27.2483924 82.0149866,27.1052278 82.0149866,26.9244684 L82.0149866,25.047 L82.3933925,25.047 L82.3933925,26.963962 C82.3933925,27.2423165 82.3059506,27.4599114 82.1310668,27.6159873 C81.9565648,27.772443 81.7186769,27.8499114 81.4174032,27.8499114 C81.1073471,27.8499114 80.8686956,27.7735823 80.7003031,27.6201646 C80.5330561,27.4675063 80.4494326,27.2483924 80.4494326,26.962443 L80.4494326,25.047 Z" id="Fill-18" fill="#000000"></path>
                                                    <path d="M87.6966115,25.3863038 L87.6966115,26.2813671 C87.78749,26.2931392 87.8749319,26.2995949 87.9616101,26.2995949 C88.1880427,26.2995949 88.3533805,26.2638987 88.4568598,26.1909873 C88.5603391,26.1188354 88.6118879,25.9885823 88.6118879,25.8013671 C88.6118879,25.6471899 88.5561389,25.5363038 88.4457864,25.4687089 C88.3346702,25.4011139 88.1594045,25.3669367 87.9196075,25.3669367 C87.8814232,25.3669367 87.806964,25.3733924 87.6966115,25.3863038 Z M88.8364112,27.8022532 L88.0967824,26.6201013 C88.0123952,26.6201013 87.8791322,26.6140253 87.6966115,26.6014937 L87.6966115,27.8022532 L87.3185874,27.8022532 L87.3185874,25.0468101 C87.3315701,25.0468101 87.4304673,25.0426329 87.6122243,25.0327595 C87.7943632,25.0240253 87.9272443,25.0190886 88.0101041,25.0190886 C88.6756555,25.0190886 89.009004,25.2830127 89.009004,25.8085823 C89.009004,25.9817468 88.9551642,26.1378228 88.8486302,26.2764304 C88.7409506,26.4146582 88.6137971,26.5016203 88.4664059,26.5354177 L89.2701842,27.8022532 L88.8364112,27.8022532 Z" id="Fill-20" fill="#000000"></path>
                                                    <mask id="mask-4" fill="white">
                                                        <use xlink:href="#path-3"></use>
                                                    </mask>
                                                    <g id="Clip-23"></g>
                                                    <polygon id="Fill-22" fill="#000000" mask="url(#mask-4)" points="93.9580641 27.8022911 94.33647 27.8022911 94.33647 25.0468481 93.9580641 25.0468481"></polygon>
                                                    <polygon id="Fill-24" fill="#000000" mask="url(#mask-4)" points="100.319025 25.3863038 100.319025 27.8022532 99.940619 27.8022532 99.940619 25.3863038 99.0589447 25.3863038 99.0589447 25.0468101 101.239647 25.0468101 101.239647 25.3863038"></polygon>
                                                    <polygon id="Fill-25" fill="#000000" mask="url(#mask-4)" points="106.90806 26.5685696 106.90806 27.8023671 106.529654 27.8023671 106.529654 26.5685696 105.636907 25.0469241 106.026386 25.0469241 106.717139 26.2511013 107.40751 25.0469241 107.796607 25.0469241"></polygon>
                                                    <path d="M44.2183874,22.9935949 L45.2581445,20.5016962 C45.1393915,22.3465063 44.7449482,24.1149873 44.1118534,25.7691646 L44.2183874,22.9935949 Z M44.9438881,20.1420759 L44.2653541,21.7677722 L44.3279762,20.1447342 C44.5509722,20.1439747 44.7567853,20.1432152 44.9438881,20.1420759 Z M44.2779549,18.5494177 L44.2764275,16.3108101 L45.2073594,18.5543544 C44.8881391,18.5516962 44.5082059,18.5516962 44.0633594,18.5501772 L44.2779549,18.5494177 Z M43.7922513,22.9024557 L42.9900003,24.8220759 C43.298529,23.552962 43.5009055,22.2473924 43.5898748,20.9304304 C43.7086278,20.8297975 43.8033247,20.7097975 43.8812206,20.5761266 L43.7922513,22.9024557 Z M43.6387506,26.8901772 C43.6001845,26.9748608 43.5646732,27.0622025 43.5241979,27.1453671 C43.3997172,27.1651139 43.2630176,27.1848608 43.1102806,27.2023291 C42.9166865,27.1715696 42.721565,27.1415696 42.5245343,27.1104304 C42.5218614,27.0963797 42.5214796,27.0819494 42.5188067,27.0678987 L43.7449028,24.1282785 L43.6387506,26.8901772 Z M43.3867346,19.3039747 C43.3867346,19.6571392 43.2183421,19.9442278 43.0110016,19.9442278 C42.8028975,19.9442278 42.6348868,19.6571392 42.6348868,19.3039747 C42.6348868,18.9489114 42.8028975,18.6618228 43.0110016,18.6618228 C43.2183421,18.6618228 43.3867346,18.9489114 43.3867346,19.3039747 Z M42.4290737,11.8597975 L43.8460911,15.2741013 L43.8483821,18.0641013 C43.7762139,17.9501772 43.6933541,17.8442278 43.5898748,17.7538481 C43.4524115,15.7446076 43.0579682,13.7653671 42.4149455,11.8935949 C42.4214368,11.882962 42.4237279,11.8708101 42.4290737,11.8597975 Z M41.1781578,26.4895443 L39.4759041,23.5354937 L42.1308547,20.7401772 C42.1747666,20.7963797 42.2221151,20.8480253 42.2740457,20.8970127 C42.1438374,22.8158734 41.7749776,24.7073924 41.1781578,26.4895443 Z M36.7503127,26.4037215 L39.0134929,24.0211899 L40.6367052,26.8400506 C39.3693701,26.671443 38.0741605,26.524481 36.7503127,26.4037215 Z M36.9683447,21.0367595 C37.0519682,20.9923291 37.1306278,20.9391646 37.2054689,20.881443 L38.6793808,23.4409367 L36.4837866,25.750557 C36.7377119,24.219038 36.9015223,22.6423291 36.9683447,21.0367595 Z M36.1378374,19.9442278 C35.8640563,19.9442278 35.6429696,19.6571392 35.6429696,19.3039747 C35.6429696,18.9489114 35.8640563,18.6618228 36.1378374,18.6618228 C36.4100911,18.6618228 36.6300323,18.9489114 36.6300323,19.3039747 C36.6300323,19.6571392 36.4100911,19.9442278 36.1378374,19.9442278 Z M35.3237493,10.9248608 C35.0556959,10.9742278 34.7857332,10.7327089 34.7204382,10.3848608 C34.6559068,10.0370127 34.8197172,9.71460759 35.0870069,9.66486076 C35.355824,9.61625316 35.6254048,9.85739241 35.6914636,10.2052405 C35.7571405,10.5534684 35.5914208,10.8754937 35.3237493,10.9248608 Z M35.1954502,17.8271392 L31.9276425,14.5168861 L34.5020243,11.7435949 C34.5902299,11.8047342 34.6833995,11.860557 34.7811511,11.9065063 C35.1324462,13.7535949 35.3451324,15.6903038 35.4234101,17.6699241 C35.3424595,17.7154937 35.2672366,17.769038 35.1954502,17.8271392 Z M34.9224328,25.9446076 L31.9303154,23.2757468 L35.1381738,20.8043544 C35.2259976,20.882962 35.3199308,20.9543544 35.4234101,21.0128354 C35.3577332,22.6981519 35.1866678,24.3485316 34.9224328,25.9446076 Z M28.4166011,25.9837215 L31.4133007,23.6748608 L34.2557359,26.2096709 C32.3533968,26.0839747 30.4037092,26.0076456 28.4166011,25.9837215 Z M27.9202059,21.0671392 C28.0408681,21.010557 28.1519842,20.9391646 28.2573728,20.8601772 L30.925306,23.2392911 L27.9034048,25.567519 C27.912569,24.1020759 27.9171511,22.5997975 27.9202059,21.0671392 Z M28.189023,11.6448608 L31.0379495,14.530557 L28.08478,17.7120759 C28.0305583,17.680557 27.9790096,17.644481 27.9202059,17.6178987 C27.9163874,15.6363797 27.9087506,13.6966329 27.8953861,11.8286582 C28.0007746,11.7781519 28.0973808,11.7147342 28.189023,11.6448608 Z M27.806035,4.64005063 C27.8071805,4.63967089 27.8087079,4.63777215 27.8102352,4.63663291 L29.87333,6.34549367 L27.9137146,8.78232911 C27.8984409,8.77397468 27.8843127,8.76296203 27.8686571,8.75536709 C27.8530016,7.24967089 27.832764,5.87308861 27.806035,4.64005063 Z M27.1324649,10.8648608 C26.7571138,10.8648608 26.4539308,10.5777722 26.4539308,10.2234684 C26.4539308,9.86992405 26.7571138,9.5824557 27.1324649,9.5824557 C27.5066705,9.5824557 27.8102352,9.86992405 27.8102352,10.2234684 C27.8102352,10.5777722 27.5066705,10.8648608 27.1324649,10.8648608 Z M27.1324649,19.9442278 C26.7571138,19.9442278 26.4539308,19.6571392 26.4539308,19.3039747 C26.4539308,18.9489114 26.7571138,18.6618228 27.1324649,18.6618228 C27.5066705,18.6618228 27.8102352,18.9489114 27.8102352,19.3039747 C27.8102352,19.6571392 27.5066705,19.9442278 27.1324649,19.9442278 Z M26.3626705,2.60802532 L25.6654262,1.80258228 L26.5016611,1.34422785 C26.482569,1.68410127 26.4661498,2.07486076 26.4520216,2.54688608 C26.4203287,2.56435443 26.3932179,2.58865823 26.3626705,2.60802532 Z M26.3393781,8.76562025 C26.2569001,8.80587342 26.1786224,8.85258228 26.1049268,8.90536709 L24.1159095,6.33258228 L26.2748467,4.536 C26.3164676,4.56675949 26.3550336,4.60283544 26.4000911,4.62903797 C26.3752713,5.8681519 26.3550336,7.25081013 26.3393781,8.76562025 Z M26.2866838,17.6327089 C26.1843501,17.6828354 26.0877439,17.7413165 25.9961017,17.8073924 L23.0646972,14.584481 L26.0457413,11.6471392 C26.1289829,11.7101772 26.216043,11.7667595 26.3115036,11.8146076 C26.298521,13.6909367 26.2889749,15.6394177 26.2866838,17.6327089 Z M23.3285503,23.1496709 L25.9789188,20.8609367 C26.0751431,20.9319494 26.1770951,20.9980253 26.2866838,21.0511899 C26.2889749,22.5306835 26.2943207,23.9824557 26.3019575,25.4011899 L23.3285503,23.1496709 Z M19.7743607,26.2218228 L22.8321551,23.5795443 L26.0056478,25.9822025 C23.8814582,26.0038481 21.8004168,26.0828354 19.7743607,26.2218228 Z M18.7842433,21.0272658 C18.9102513,20.9592911 19.0228948,20.8692911 19.1259923,20.7724557 L22.3086491,23.1823291 L19.2630737,25.8132152 C19.0110577,24.2615696 18.8491565,22.6597975 18.7842433,21.0272658 Z M18.300067,10.2462532 C18.3355784,9.8938481 18.5841578,9.6303038 18.8556478,9.65802532 C19.1263741,9.68460759 19.3172953,9.99296203 19.2821658,10.3446076 C19.2466545,10.6962532 18.9969295,10.9601772 18.7258214,10.9324557 C18.4547132,10.9054937 18.2641738,10.597519 18.300067,10.2462532 Z M17.9312072,19.9442278 C17.6593354,19.9442278 17.4382486,19.6571392 17.4382486,19.3039747 C17.4382486,18.9489114 17.6593354,18.6618228 17.9312072,18.6618228 C18.2046064,18.6618228 18.4253113,18.9489114 18.4253113,19.3039747 C18.4253113,19.6571392 18.2046064,19.9442278 17.9312072,19.9442278 Z M15.3568254,23.4781519 L16.9323073,20.797519 C17.0262406,20.8818228 17.127047,20.9604304 17.238545,21.0227089 C17.3076585,22.7163797 17.4871244,24.3773924 17.7654876,25.9886582 L15.3568254,23.4781519 Z M13.4006465,26.8624557 C13.3941551,26.8552405 13.3880457,26.8480253 13.3815543,26.8408101 L15.018513,24.0538481 L17.28933,26.4204304 C15.9643367,26.5438481 14.6687453,26.6927089 13.4006465,26.8624557 Z M11.9343714,20.911443 C11.9473541,20.9004304 11.957282,20.8867595 11.9695009,20.8749873 L14.5561017,23.5715696 L12.963055,26.2825823 C12.4074742,24.5653671 12.0596158,22.7516962 11.9343714,20.911443 Z M10.6853648,27.1453671 L10.5410283,24.610557 L11.6113327,27.121443 C11.4395036,27.1476456 11.2684382,27.1749873 11.0977546,27.2023291 C10.9457813,27.1833418 10.8090817,27.1651139 10.6853648,27.1453671 Z M10.3073407,20.5077722 C10.3871458,20.6615696 10.4864248,20.8013165 10.6151057,20.9178987 C10.7231672,22.5022025 10.9919842,24.0663797 11.4127746,25.5770127 L10.4677146,23.3300506 L10.3073407,20.5077722 Z M10.1568948,18.5501772 C9.71243017,18.5516962 9.33364246,18.5516962 9.01098558,18.5543544 L10.3688174,15.2186582 L10.289776,18.212962 C10.2374636,18.3192911 10.1916425,18.4309367 10.1568948,18.5501772 Z M9.12859306,20.1420759 C9.34509773,20.1432152 9.58680401,20.1439747 9.85600294,20.1447342 L9.97093752,22.1471392 L9.12859306,20.1420759 Z M8.9743287,20.8867595 L10.0434876,23.4284051 L10.1916425,26.0178987 C9.54671055,24.4085316 9.1289749,22.6867595 8.9743287,20.8867595 Z M10.452059,12.0610633 L10.4008921,14.0000506 L9.01671322,17.4003038 C9.22099893,15.5178987 9.71395754,13.7258734 10.452059,12.0610633 Z M11.5945316,19.3039747 C11.5945316,19.6571392 11.4261391,19.9442278 11.218035,19.9442278 C11.0114582,19.9442278 10.8426838,19.6571392 10.8426838,19.3039747 C10.8426838,18.9489114 11.0114582,18.6618228 11.218035,18.6618228 C11.4261391,18.6618228 11.5945316,18.9489114 11.5945316,19.3039747 Z M10.8281738,14.0904304 L11.763306,11.7948608 C11.7743794,11.8225823 11.7801071,11.8506835 11.7946171,11.8784051 C11.3142593,13.2781519 10.9717466,14.7416962 10.7712793,16.2318228 L10.8281738,14.0904304 Z M10.8965236,11.5146076 C11.0553701,11.494481 11.2367453,11.4751139 11.436067,11.4568861 L10.8602486,12.8722025 L10.8965236,11.5146076 Z M15.3732446,5.50207595 C14.4533861,6.58739241 13.6442619,7.79802532 12.9733648,9.10663291 C12.674764,9.28435443 12.4219842,9.55777215 12.1982246,9.88891139 C11.9672099,9.90751899 11.7579602,9.92688608 11.5574929,9.94701266 C12.5861765,8.2681519 13.8699308,6.76397468 15.3732446,5.50207595 Z M17.4340483,6.33410127 L14.6779095,8.54878481 C15.3877546,7.31916456 16.2171164,6.19663291 17.1549215,5.22258228 L17.4340483,6.33410127 Z M15.3973007,14.7056203 L17.8521658,11.7587848 C17.8758401,11.7804304 17.8979869,11.8032152 17.9228067,11.8233418 C17.5466919,13.7042278 17.321023,15.6622025 17.238545,17.6611899 C17.1648494,17.7022025 17.0968814,17.7508101 17.0308227,17.8024557 L15.3973007,14.7056203 Z M16.511517,20.2430886 L14.8940323,22.9962532 L12.3253781,20.317519 C12.3459976,20.2628354 12.3673808,20.2081519 12.3849455,20.1511899 C13.610278,20.1519494 14.9738374,20.1542278 16.4645503,20.1557468 C16.4786785,20.1857468 16.4958614,20.2130886 16.511517,20.2430886 Z M16.4588227,18.541443 C14.9715463,18.5422025 13.610278,18.542962 12.3872366,18.5452405 C12.371581,18.4909367 12.3517252,18.4377722 12.3314876,18.3849873 L14.9516905,15.2406835 L16.574521,18.3200506 C16.5329001,18.3918228 16.4924248,18.4635949 16.4588227,18.541443 Z M13.6992473,11.4853671 C13.7443047,11.4238481 13.7893621,11.3615696 13.8309829,11.2958734 C14.9230523,11.2419494 16.1384569,11.1982785 17.4657413,11.1637215 C17.4703234,11.1758734 17.4764328,11.1880253 17.4806331,11.2009367 L15.0731164,14.0904304 L13.6992473,11.4853671 Z M14.6275063,14.6258734 L11.971792,17.8127089 C11.959573,17.799038 11.9484996,17.7857468 11.935517,17.7732152 C12.0695437,15.8228354 12.4494769,13.9043544 13.0630977,12.0967595 C13.1215196,12.0610633 13.1768868,12.0192911 13.2303447,11.9763797 L14.6275063,14.6258734 Z M18.1500029,9.18106329 C18.0052846,9.31093671 17.8743127,9.45979747 17.7635784,9.62612658 C16.5176264,9.66220253 15.3671351,9.70435443 14.322796,9.75486076 C14.3212686,9.72637975 14.3143955,9.69562025 14.3101952,9.66713924 L17.6074048,7.01992405 L18.1500029,9.18106329 Z M18.1866598,4.51625316 C18.7029108,4.47144304 19.2558187,4.43232911 19.8442379,4.39777215 L17.9865744,5.89017722 L17.7246304,4.84625316 C17.8788948,4.74827848 18.0327773,4.63663291 18.1866598,4.51625316 Z M21.5373274,2.10296203 C21.8615116,1.99891139 22.1952419,1.91840506 22.5266812,1.83258228 C22.2903207,2.05777215 22.0608334,2.2981519 21.8424195,2.556 C21.5560377,2.65397468 21.2750016,2.81878481 21.0218401,3.03486076 C20.5521738,3.05612658 20.1042726,3.08194937 19.6735543,3.10967089 C20.2734288,2.72005063 20.8977413,2.38625316 21.5373274,2.10296203 Z M25.5718748,9.50574684 C23.8646571,9.51448101 22.1948601,9.53346835 20.5789028,9.5638481 C20.5537012,9.49055696 20.5223901,9.42144304 20.4868788,9.3538481 L23.6221872,6.74422785 L25.6562619,9.37587342 C25.6276238,9.41840506 25.5963127,9.45979747 25.5718748,9.50574684 Z M20.1401658,11.3706835 C20.2134796,11.2852405 20.2806838,11.1952405 20.341015,11.0995443 C22.0195944,11.0691646 23.7592686,11.0524557 25.5386545,11.0448608 C25.5608013,11.0889114 25.5890577,11.1287848 25.6142593,11.1701772 L22.6316879,14.109038 L20.1401658,11.3706835 Z M19.6536985,11.7906835 L22.1730951,14.5597975 L18.9308708,17.7530886 C18.8831405,17.7196709 18.8365557,17.6835949 18.7842433,17.6547342 C18.862521,15.6853671 19.0763527,13.7608101 19.4261204,11.9182785 C19.50478,11.881443 19.5803848,11.8373924 19.6536985,11.7906835 Z M21.8084355,4.80789873 C21.8886224,4.77789873 21.9665183,4.74220253 22.0421231,4.70232911 L23.2281258,6.23612658 L20.1951511,8.76106329 C20.636561,7.29296203 21.1726678,5.95929114 21.8084355,4.80789873 Z M18.7029108,8.73713924 L18.1591672,6.57524051 L20.3135223,4.84473418 C19.6789001,6.01473418 19.1427933,7.31992405 18.7029108,8.73713924 Z M25.5352179,20.3961266 L22.8054262,22.7532152 L19.5124168,20.260557 C19.5307453,20.2256203 19.5521284,20.1922025 19.5674021,20.1565063 C21.4479762,20.1599241 23.399573,20.1606835 25.3946999,20.1606835 C25.4351752,20.2430886 25.4836692,20.3197975 25.5352179,20.3961266 Z M25.3901178,18.5361266 C23.3976638,18.5368861 21.4514128,18.5368861 19.5716024,18.5368861 C19.5211992,18.4199241 19.456286,18.3116962 19.386027,18.2084051 L22.6053407,15.0356203 L25.5466732,18.2680253 C25.4878694,18.3527089 25.4351752,18.4415696 25.3901178,18.5361266 Z M22.6198507,4.27739241 C23.6023314,4.24853165 24.6195597,4.22916456 25.6516798,4.21853165 L23.7222299,5.82448101 L22.5637199,4.32713924 C22.5824302,4.31043038 22.6019041,4.29448101 22.6198507,4.27739241 Z M24.8165904,1.47751899 L24.9941471,1.68334177 L23.4488307,2.53131646 C23.8875677,2.08321519 24.3515063,1.72435443 24.8165904,1.47751899 Z M26.0465049,2.89739241 C26.0453594,2.90005063 26.0430684,2.90156962 26.0419228,2.90346835 C25.2060697,2.90992405 24.388545,2.92359494 23.5855303,2.94448101 L25.2812927,2.01334177 L26.0465049,2.89739241 Z M25.6994101,1.296 L25.3794262,1.47258228 L25.258764,1.33359494 C25.4050096,1.31916456 25.5516371,1.30587342 25.6994101,1.296 Z M27.0190577,2.96005063 C27.3317866,2.96005063 27.58533,3.19929114 27.58533,3.49435443 C27.58533,3.78979747 27.3317866,4.02903797 27.0190577,4.02903797 C26.7067105,4.02903797 26.4539308,3.78979747 26.4539308,3.49435443 C26.4539308,3.19929114 26.7067105,2.96005063 27.0190577,2.96005063 Z M28.538027,1.92562025 L27.9862646,2.69574684 C27.9152419,2.63422785 27.8377279,2.58106329 27.7544862,2.53663291 C27.7418854,2.1424557 27.7289028,1.80372152 27.7147746,1.50486076 L28.538027,1.92562025 Z M28.9603447,1.33397468 L28.7896611,1.57321519 L28.2153701,1.28005063 C28.4643314,1.29182278 28.7132927,1.30929114 28.9603447,1.33397468 Z M29.3860991,1.476 C29.8859308,1.74068354 30.3827079,2.13144304 30.8516104,2.62663291 L29.175322,1.7703038 L29.3860991,1.476 Z M28.3631431,2.90612658 L28.9236879,2.12232911 L30.527808,2.94182278 C29.817581,2.92435443 29.0966625,2.91182278 28.3631431,2.90612658 Z M30.2750283,5.84574684 L28.3081578,4.21435443 C29.4101551,4.22460759 30.4884782,4.24473418 31.5362539,4.27777215 L30.2750283,5.84574684 Z M32.6718534,2.10296203 C33.3091485,2.38663291 33.933079,2.72005063 34.5321899,3.10967089 C34.107581,3.08194937 33.6623527,3.05726582 33.2007052,3.03486076 C32.9406705,2.81612658 32.6542887,2.64865823 32.3575971,2.54802532 C32.1410924,2.29321519 31.914278,2.05473418 31.6813541,1.83258228 C32.0131752,1.91840506 32.3469055,1.99891139 32.6718534,2.10296203 Z M34.0632873,5.16751899 L35.9289696,6.71308861 L35.5990577,8.85941772 C35.5769108,8.84840506 35.5555276,8.83359494 35.5329989,8.82410127 C35.1259549,7.50296203 34.636051,6.27941772 34.0632873,5.16751899 Z M30.7710417,6.25625316 L32.0712152,4.63967089 C32.1750764,4.70081013 32.2819923,4.75663291 32.3953995,4.80106329 C33.0617146,6.00182278 33.6161498,7.40005063 34.0720697,8.94524051 C34.0629055,8.95283544 34.0545049,8.96232911 34.0453407,8.96992405 L30.7710417,6.25625316 Z M28.421565,9.17726582 L30.3693434,6.75675949 L33.6768628,9.49777215 C33.6676985,9.51903797 33.6573888,9.53878481 33.6497519,9.56043038 C32.035322,9.53346835 30.365525,9.51448101 28.6586892,9.50574684 C28.5933941,9.38650633 28.511298,9.27903797 28.421565,9.17726582 Z M31.4751591,14.0589114 L28.6201231,11.167519 C28.6460884,11.1268861 28.6731992,11.0873924 28.6949642,11.0448608 C30.4754956,11.0524557 32.2144061,11.0691646 33.8914582,11.0995443 C33.9342246,11.1701772 33.9846278,11.2358734 34.0346491,11.3000506 L31.4751591,14.0589114 Z M34.7410577,20.2985316 L31.4427025,22.8409367 L28.7014555,20.3961266 C28.7522406,20.3197975 28.8014983,20.2430886 28.8412099,20.1606835 C30.8363367,20.1606835 32.7864061,20.1606835 34.6654529,20.1565063 C34.6879816,20.2058734 34.7154742,20.2518228 34.7410577,20.2985316 Z M34.6620163,18.5368861 C32.7864061,18.5368861 30.8397733,18.5361266 28.8477012,18.5361266 C28.7762967,18.3861266 28.6815997,18.2528354 28.5762112,18.1278987 L31.490051,14.9885316 L34.776569,18.3177722 C34.7349482,18.3884051 34.6956184,18.460557 34.6620163,18.5368861 Z M36.0324489,4.51853165 C36.1015623,4.57321519 36.1722032,4.62562025 36.2413167,4.67612658 L36.0427586,5.97296203 L34.1251458,4.38410127 C34.8078801,4.42283544 35.445557,4.46612658 36.0324489,4.51853165 Z M39.5824382,9.74156962 C38.6240136,9.69562025 37.5869295,9.65840506 36.4666037,9.62612658 C36.3841258,9.50270886 36.2875196,9.39144304 36.1855677,9.28663291 L36.5078427,7.19270886 L39.5824382,9.74156962 Z M36.8381364,5.0395443 C36.8679202,5.05397468 36.8980857,5.07106329 36.9274876,5.08435443 C38.0661418,6.24182278 39.0581685,7.6203038 39.8676745,9.14194937 L36.6208681,6.45220253 L36.8381364,5.0395443 Z M39.5236344,14.5400506 L40.9689081,11.9611899 C41.0238935,12.0056203 41.0800243,12.0500506 41.1395917,12.0872658 C41.7604676,13.9032152 42.140019,15.8285316 42.2740457,17.7880253 C42.2507533,17.8096709 42.2316611,17.8339747 42.2098961,17.8563797 L39.5236344,14.5400506 Z M36.7881151,11.1641013 C38.1035623,11.199038 39.3071298,11.2446076 40.3907987,11.2970127 C40.4286011,11.3558734 40.4683127,11.4113165 40.5080243,11.4663797 L39.0871885,14.0015696 L36.7881151,11.1641013 Z M38.7488761,14.6061266 L37.0240937,17.6828354 C37.0046198,17.6706835 36.9878187,17.6562532 36.9683447,17.6456203 C36.8851031,15.6572658 36.6590523,13.7068861 36.2882833,11.8381519 C36.3341044,11.8043544 36.3749615,11.7656203 36.4162005,11.7261266 L38.7488761,14.6061266 Z M41.8059068,20.1511899 L39.141792,22.954481 L37.6529883,20.3699241 C37.6934636,20.3008101 37.7343207,20.230557 37.7671591,20.1557468 C39.2422166,20.1557468 40.5905023,20.1542278 41.8059068,20.1511899 Z M37.7725049,18.541443 C37.7064462,18.3876456 37.6182406,18.2478987 37.5166705,18.1187848 L39.1845583,15.1442278 L41.8677653,18.4552405 C41.8570737,18.486 41.8452366,18.514481 41.836836,18.5452405 C40.6160857,18.542962 39.2574903,18.5422025 37.7725049,18.541443 Z M42.6486331,9.94701266 C42.4531298,9.92688608 42.2476985,9.90751899 42.0205023,9.88891139 C41.7944515,9.55207595 41.5336531,9.27334177 41.2266518,9.09372152 C40.5599549,7.79612658 39.7565583,6.59460759 38.8466278,5.51574684 C40.3434502,6.7738481 41.6222406,8.27270886 42.6486331,9.94701266 Z M43.5207613,11.5449873 C43.6341685,11.7804304 43.7407025,12.0192911 43.8441818,12.2604304 L43.8453274,14.1538481 L42.7238561,11.4519494 C43.036585,11.4811899 43.3061658,11.5104304 43.5207613,11.5449873 Z M45.1894128,17.3923291 L44.2764275,15.190557 L44.2741364,13.3658734 C44.7270016,14.6482785 45.0366758,15.9956203 45.1894128,17.3923291 Z M44.7476211,27.482962 C44.842318,27.2816962 44.9419789,27.0830886 45.029039,26.8780253 C46.0435944,24.4939747 46.5594636,21.9572658 46.5571725,19.3499241 C46.5594636,16.7372658 46.0435944,14.2020759 45.029039,11.8165063 C44.0492312,9.51220253 42.6455784,7.44220253 40.860083,5.66498734 C39.0757332,3.89081013 36.9924008,2.49448101 34.6784355,1.52043038 C32.2789375,0.509924051 29.7278481,-7.59493671e-05 27.1038267,-7.59493671e-05 C24.4798053,-7.59493671e-05 21.9275704,0.509924051 19.5299816,1.52043038 C17.2125797,2.49448101 15.1334475,3.89081013 13.3479522,5.66840506 C11.559784,7.44220253 10.1591858,9.51220253 9.17670521,11.8165063 C8.16405901,14.2020759 7.64895354,16.7372658 7.64895354,19.3499241 C7.64895354,21.9572658 8.16405901,24.4939747 9.17670521,26.8780253 C9.26491081,27.0830886 9.36342617,27.2816962 9.45850494,27.482962 C5.98526595,28.1133418 2.79802697,28.921443 -0.000114552737,29.8776456 C7.30796822,28.3092911 16.7642967,27.3618228 27.1038267,27.3618228 C37.4410657,27.3618228 46.8985397,28.3092911 54.2054769,29.8776456 C51.4069535,28.9222025 48.2200964,28.1133418 44.7476211,27.482962 Z" id="Fill-26" fill="#57C2BB" mask="url(#mask-4)"></path>
                                                </g>
                                            </g>
                                        </g>
                                    </g>
                                </g>
                            </g>
                        </g>
                    </g>
                </g>
            </g>
        </g>
    </g>
</svg>