<?xml version="1.0" encoding="UTF-8" standalone="no"?>
<!-- Generator: Adobe Illustrator 14.0.0, SVG Export Plug-In . SVG Version: 6.00 Build 43363)  -->

<svg
   xmlns:dc="http://purl.org/dc/elements/1.1/"
   xmlns:cc="http://creativecommons.org/ns#"
   xmlns:rdf="http://www.w3.org/1999/02/22-rdf-syntax-ns#"
   xmlns:svg="http://www.w3.org/2000/svg"
   xmlns="http://www.w3.org/2000/svg"
   xmlns:sodipodi="http://sodipodi.sourceforge.net/DTD/sodipodi-0.dtd"
   xmlns:inkscape="http://www.inkscape.org/namespaces/inkscape"
   version="1.1"
   id="Layer_1"
   x="0px"
   y="0px"
   width="70"
   height="70"
   viewBox="0 0 70 70"
   enable-background="new 0 0 70 70"
   xml:space="preserve"
   inkscape:version="0.91 r13725"
   sodipodi:docname="AWS_Simple_Icons_Virtual_Private_Cloud.svg"><metadata
     id="metadata19"><rdf:RDF><cc:Work
         rdf:about=""><dc:format>image/svg+xml</dc:format><dc:type
           rdf:resource="http://purl.org/dc/dcmitype/StillImage" /><dc:title></dc:title></cc:Work></rdf:RDF></metadata><defs
     id="defs17" /><sodipodi:namedview
     pagecolor="#ffffff"
     bordercolor="#666666"
     borderopacity="1"
     objecttolerance="10"
     gridtolerance="10"
     guidetolerance="10"
     inkscape:pageopacity="0"
     inkscape:pageshadow="2"
     inkscape:window-width="1920"
     inkscape:window-height="1017"
     id="namedview15"
     showgrid="false"
     inkscape:zoom="6.7428571"
     inkscape:cx="65.862092"
     inkscape:cy="55.758673"
     inkscape:window-x="-8"
     inkscape:window-y="-8"
     inkscape:window-maximized="1"
     inkscape:current-layer="g3"
     units="px" /><g
     id="g3"
     transform="matrix(1.7816019,0,0,1.8707897,2.3241121,-25.069967)"><path
       d="m 4.1075642,33.899426 c -0.003,-0.099 -0.014706,-0.194 -0.014706,-0.294 0,-5.58 4.4310938,-10.102 9.9001298,-10.102 4.026307,0 7.484144,2.457 9.032726,5.977 0.807614,-0.566 1.785768,-0.9 2.840369,-0.9 2.715895,0 4.92409,2.204 5.011322,4.955 3.903792,0.34 6.940184,4.205 6.940184,7.284 l 0,0.666 c 0,3.311 -3.507827,6.66 -7.832089,6.66 l -23.0650139,0 c -4.3242614,0 -7.83208824,-3.35 -7.83208824,-6.66 l 0,-0.666 c 0,-2.55 2.08568184,-6.054 5.01916204,-6.92 z"
       id="path5"
       inkscape:connector-curvature="0"
       style="fill:#262261" /><g
       id="g7"
       transform="matrix(0.98011366,0,0,1,-15.850489,0.30842592)"><path
         d="m 25.546,34.849 1.573,0 1.573,7.41 0.025,0 1.664,-7.41 1.573,0 -2.34,9.282 -1.886,0 -2.182,-9.282 z"
         id="path9"
         inkscape:connector-curvature="0"
         style="fill:#ffffff" /><path
         d="m 32.903,34.849 2.938,0 c 1.781,0 2.562,1.118 2.562,2.704 0,1.664 -0.976,2.743 -2.717,2.743 l -1.301,0 0,3.835 -1.482,0 0,-9.282 z m 1.483,4.329 1.053,0 c 0.793,0 1.482,-0.429 1.482,-1.6 0,-1.001 -0.402,-1.611 -1.586,-1.611 l -0.949,0 0,3.211 z"
         id="path11"
         inkscape:connector-curvature="0"
         style="fill:#ffffff" /><path
         d="m 45.371,40.803 0,0.195 c 0,1.677 -0.676,3.314 -2.86,3.314 -2.34,0 -3.068,-1.508 -3.068,-4.823 0,-3.314 0.729,-4.823 3.082,-4.823 2.639,0 2.795,1.95 2.795,2.912 l 0,0.17 -1.482,0 0,-0.156 c 0,-0.858 -0.26,-1.847 -1.326,-1.808 -1.092,0 -1.586,0.677 -1.586,3.667 0,2.989 0.494,3.744 1.586,3.744 1.235,0 1.379,-1.379 1.379,-2.236 l 0,-0.156 1.48,0 z"
         id="path13"
         inkscape:connector-curvature="0"
         style="fill:#ffffff" /></g></g></svg>