<?xml version="1.0" encoding="UTF-8"?>
<svg width="54px" height="54px" viewBox="0 0 54 54" version="1.1" xmlns="http://www.w3.org/2000/svg" xmlns:xlink="http://www.w3.org/1999/xlink">
    <!-- Generator: Sketch 49.1 (51147) - http://www.bohemiancoding.com/sketch -->
    <title>Artboard 3</title>
    <desc>Created with Sketch.</desc>
    <defs></defs>
    <g id="Artboard-3" stroke="none" stroke-width="1" fill="none" fill-rule="evenodd">
        <g id="Group-Copy">
            <circle id="Oval-2" fill="#000000" cx="27" cy="27" r="27"></circle>
            <g id="binoculars-copy" transform="translate(8.000000, 16.000000)" fill="#FFFFFF" fill-rule="nonzero">
                <path d="M29.2208696,10 C27.44,10 26,11.4494774 26,13.2264808 C26,13.6515679 26.3478261,14 26.7721739,14 C27.1965217,14 27.5443478,13.6515679 27.5443478,13.2264808 C27.5443478,12.2996516 28.3026087,11.5400697 29.2278261,11.5400697 C29.6521739,11.5400697 30,11.1916376 30,10.7665505 C29.9930435,10.3414634 29.6452174,10 29.2208696,10 Z" id="XMLID_1737_"></path>
                <path d="M35.420384,7.40872031 C35.2099659,7.20595533 34.9839612,7.01098901 34.7501633,6.82382134 L31.5549251,4.10989011 C30.3235895,3.23644098 28.8584559,2.68273662 27.2686301,2.57355548 L27.4400819,2.74512584 L25.4995592,0.795462602 C24.9462374,0.304147465 24.2214639,0 23.4343443,0 C22.0783164,0 20.9327066,0.881247784 20.5430434,2.1056363 C20.1533802,1.8560794 19.7013709,1.707905 19.2103953,1.67671039 C19.1324626,1.66891173 19.0467367,1.66891173 18.9688041,1.66891173 C18.4154824,1.66891173 17.901127,1.83268345 17.4647042,2.1056363 C17.0672477,0.889046437 15.921638,0.00779865296 14.5734033,0.00779865296 C13.7862837,0.00779865296 13.0693034,0.304147465 12.5237749,0.803261255 L10.5676657,2.75292449 L10.7391175,2.58135413 C9.14929171,2.69053527 7.67636485,3.25203828 6.45282243,4.11768876 L3.25758427,6.83161999 C3.02378636,7.01098901 2.79778171,7.20595533 2.58736358,7.41651896 C0.989744503,8.96065225 0,11.1208791 0,13.5150656 C0,18.1942574 3.80311274,22 8.47907102,22 C12.7965392,22 16.3736473,18.7479617 16.8880027,14.5600851 C17.5114638,14.9188231 18.2362373,15.1215881 18.9999772,15.1215881 C19.7715103,15.1215881 20.4884905,14.9188231 21.1119516,14.5600851 C21.6341003,18.7401631 25.2034151,21.9922013 29.5208833,21.9922013 C34.1968416,21.9922013 37.9999543,18.1864587 37.9999543,13.5072669 C38.0077476,11.1130805 37.0180031,8.9528536 35.420384,7.40872031 Z M8.47907102,19.3016661 C5.28383286,19.3016661 2.69646928,16.7125133 2.69646928,13.5150656 C2.69646928,10.3176179 5.28383286,7.72846508 8.47907102,7.72846508 C11.6743092,7.72846508 14.2616728,10.3176179 14.2616728,13.5150656 C14.269466,16.7047146 11.6743092,19.3016661 8.47907102,19.3016661 Z M19.0077704,12.719603 C17.9712663,12.719603 17.1295938,11.8773485 17.1295938,10.8401276 C17.1295938,9.80290677 17.9712663,8.96065225 19.0077704,8.96065225 C20.0442745,8.96065225 20.885947,9.80290677 20.885947,10.8401276 C20.885947,11.8773485 20.0442745,12.719603 19.0077704,12.719603 Z M29.5364698,19.3016661 C26.3412317,19.3016661 23.7538681,16.7125133 23.7538681,13.5150656 C23.7538681,10.3176179 26.3412317,7.72846508 29.5364698,7.72846508 C32.731708,7.72846508 35.3190716,10.3176179 35.3190716,13.5150656 C35.3190716,16.7047146 32.731708,19.3016661 29.5364698,19.3016661 Z" id="XMLID_1738_"></path>
                <path d="M8.22086957,10 C6.44,10 5,11.4494774 5,13.2264808 C5,13.6515679 5.34782609,14 5.77217391,14 C6.19652174,14 6.54434783,13.6515679 6.54434783,13.2264808 C6.54434783,12.2996516 7.3026087,11.5400697 8.22782609,11.5400697 C8.65217391,11.5400697 9,11.1916376 9,10.7665505 C8.99304348,10.3414634 8.64521739,10 8.22086957,10 Z" id="XMLID_1745_"></path>
            </g>
        </g>
    </g>
</svg>