<?xml version="1.0" encoding="UTF-8"?>
<svg width="26px" height="21px" viewBox="0 0 26 21" version="1.1" xmlns="http://www.w3.org/2000/svg" xmlns:xlink="http://www.w3.org/1999/xlink">
    <!-- Generator: Sketch 50.2 (55047) - http://www.bohemiancoding.com/sketch -->
    <title>g</title>
    <desc>Created with Sketch.</desc>
    <defs></defs>
    <g id="g" stroke="none" stroke-width="1" fill="none" fill-rule="evenodd">
        <g id="Group-Copy-2" fill="#FFFFFF">
            <path d="M15.9374705,5.38119917 L16.0174479,5.38119917 L15.9691597,5.34263897 L18.993964,2.42588727 L19,2.3735036 C16.4535509,0.205401809 12.9217203,-0.541793002 9.66679242,0.399657909 C6.41186457,1.34401902 3.89182307,3.83879118 3,7 C3.05281524,6.97962857 3.10713949,6.96216735 3.16221824,6.94907143 C4.28567387,6.23534397 5.62189946,5.82646034 7.0320664,5.81700218 C7.50136754,5.81554708 7.96614166,5.85920013 8.41884372,5.94432359 C8.44223333,5.93050012 8.46411393,5.92467972 8.48297652,5.92831747 C10.4303499,3.86498302 13.7056493,3.62634631 15.9533151,5.38119917 L15.9374705,5.38119917" id="Fill-1"></path>
            <path d="M22.7901751,7.84574355 C22.2728239,5.97324687 21.2133381,4.29082425 19.7402812,3 L16.5873816,6.10683306 C17.9179347,7.17933931 18.676923,8.79306046 18.6443949,10.48846 L18.6443949,11.0388351 C22.3843487,11.0388351 22.3843487,16.5693033 18.6443949,16.5693033 L13.0325281,16.5693033 L13.0240088,16.5784635 L13.0240088,20.967724 L13,20.967724 L13.0325281,20.9997846 L18.6443949,20.9997846 C21.8631251,21.0242118 24.7147527,18.9685112 25.6720074,15.9387765 C26.6246152,12.9120951 25.4536046,9.62282152 22.7901751,7.84574355" id="Fill-2"></path>
            <path d="M7.39839159,20.9999096 L13,20.9999096 L13,16.2661611 L7.39839159,16.2661611 C7.00247448,16.2661611 6.60733065,16.1755357 6.2477575,16 L3.00850603,19.419272 L3,19.4551956 C4.26662543,20.4626888 5.81163006,21.0080741 7.39839159,20.9999096" id="Fill-3"></path>
            <path d="M7.21580394,6.00005067 C4.11729252,6.02083088 1.36999194,8.0026478 0.381056151,10.9365065 C-0.610960431,13.8726741 0.377975354,17.1120789 2.83491083,19 L6.07282831,15.7659826 C4.29212774,14.9617113 3.86697777,12.6327878 5.24794496,11.2535972 C6.62737174,9.87517617 8.95799455,10.2992465 9.76285272,12.0771095 L13,8.84386174 C11.623654,7.04444894 9.48018961,5.99158465 7.21580394,6.00005067" id="Fill-4"></path>
        </g>
    </g>
</svg>