<svg id="Infected_host" data-name="Infected host" xmlns="http://www.w3.org/2000/svg" width="48" height="48" viewBox="0 0 48 48"><defs><style>.cls-1,.cls-2{fill:#2e3f58;}.cls-2{fill-rule:evenodd;}</style></defs><path class="cls-1" d="M31.13,31.4h1.2V30.19A2.65,2.65,0,0,0,31.13,31.4Z"/><path class="cls-1" d="M33.67,32.74V34a2.16,2.16,0,0,0,1.2-1.21Z"/><path class="cls-1" d="M33.67,38.11A6.1,6.1,0,0,0,39,32.87H36.33a3.44,3.44,0,0,1-2.66,2.69Z"/><path class="cls-1" d="M27.13,31.4H29.8a3.26,3.26,0,0,1,2.67-2.55V26.16A5.75,5.75,0,0,0,27.13,31.4Z"/><path class="cls-1" d="M32.33,34V32.74h-1.2A1.83,1.83,0,0,0,32.33,34Z"/><path class="cls-1" d="M40.33,32.74a7.17,7.17,0,0,1-6.66,6.58V42a9.93,9.93,0,0,0,9.2-9.26Z"/><path class="cls-1" d="M29.67,32.74H27A5.85,5.85,0,0,0,32.33,38V35.29A3.12,3.12,0,0,1,29.67,32.74Z"/><path class="cls-1" d="M25.67,32.74H23A9.85,9.85,0,0,0,32.33,42V39.32A7.29,7.29,0,0,1,25.67,32.74Z"/><path class="cls-1" d="M25.8,31.4a7.28,7.28,0,0,1,6.53-6.58V22.13A10.06,10.06,0,0,0,23,31.4Z"/><path class="cls-1" d="M43,31.4A10.07,10.07,0,0,0,33.67,22v9.4Z"/><path class="cls-2" d="M21,32A12,12,0,0,1,33,20V17.43L21.5,6H14.6A4.59,4.59,0,0,0,10,10.57V33.43A4.59,4.59,0,0,0,14.6,38h8A12,12,0,0,1,21,32ZM22,8.29,30.7,17H22Z"/></svg>