<svg xmlns="http://www.w3.org/2000/svg" width="24" height="24" viewBox="0 0 24 24">
  <defs>
    <style>
      .cls-1 {
        fill: #2e3f58;
        fill-rule: evenodd;
      }
    </style>
  </defs>
  <path id="network_copy_5" data-name="network copy 5" class="cls-1" d="M2065,248h-4a1,1,0,0,1-1-1v-1h-8v1a1,1,0,0,1-1,1h-4a1,1,0,0,1-1-1v-4a1,1,0,0,1,1-1h4a1,1,0,0,1,1,1v1h3v-4h-6a1,1,0,0,1-1-1V229a1,1,0,0,1,1-1h14a1,1,0,0,1,1,1v10a1,1,0,0,1-1,1h-6v4h3v-1a1,1,0,0,1,1-1h4a1,1,0,0,1,1,1v4A1,1,0,0,1,2065,248Zm-10-12h-1v-4h1v-1h-3v1h1v4h-1v1h3v-1Zm4-1,1-1v-3h-4v6h1v-2h2Zm-2-3h2v2h-2v-2Z" transform="translate(-2044 -226)"/>
</svg>
