<svg xmlns="http://www.w3.org/2000/svg" width="1em" height="1em" viewBox="0 0 140 140"><path d="M102.31 83.85v-9.23H37.69v9.23h-9.23V65.38h36.92v-9.23h9.23v9.23h36.92v18.47zM83.85 46.92h-27.7a9.23 9.23 0 0 1-9.23-9.23V19.23A9.23 9.23 0 0 1 56.15 10h27.7a9.23 9.23 0 0 1 9.23 9.23v18.46a9.23 9.23 0 0 1-9.23 9.23zm-27.7 55.39v18.46a9.23 9.23 0 0 1-9.23 9.23H19.23a9.23 9.23 0 0 1-9.23-9.23v-18.46a9.23 9.23 0 0 1 9.23-9.23h27.7a9.23 9.23 0 0 1 9.22 9.23zm36.92-9.23h27.7a9.23 9.23 0 0 1 9.22 9.23v18.46a9.23 9.23 0 0 1-9.23 9.23H93.08a9.23 9.23 0 0 1-9.23-9.23v-18.46a9.23 9.23 0 0 1 9.23-9.23z"></path></svg>