<svg xmlns="http://www.w3.org/2000/svg" xmlns:xlink="http://www.w3.org/1999/xlink" width="957" height="626" viewBox="0 0 957 626">
  <defs>
    <clipPath id="clip-path">
      <rect id="Rectangle_16623" data-name="Rectangle 16623" width="1022" height="696" transform="translate(879 334)" fill="#fff" stroke="#707070" stroke-width="1"/>
    </clipPath>
    <clipPath id="clip-Intelligence">
      <rect width="957" height="626"/>
    </clipPath>
  </defs>
  <g id="Intelligence" clip-path="url(#clip-Intelligence)">
    <g id="Mask_Group_1" data-name="Mask Group 1" transform="translate(-941 -402)" opacity="0.4" clip-path="url(#clip-path)">
      <g id="menu" transform="matrix(0.891, -0.454, 0.454, 0.891, 922.367, 743.381)">
        <path id="Path_1788" data-name="Path 1788" d="M801.693,368.346c-24.088-24.088-58.775-10.6-82.382-34.205s-10.6-58.775-34.205-82.141-57.812-10.117-81.9-34.205-6.263-59.98-31.556-85.031-59.98-6.5-85.272-31.556-8.431-59.257-32.76-83.586A68.892,68.892,0,0,0,410.5,1H73.265A72.265,72.265,0,0,0,1,73.265V747.735A72.265,72.265,0,0,0,73.265,820H747.735A72.265,72.265,0,0,0,820,747.735V416.281a84.309,84.309,0,0,0-18.307-47.935Z" transform="translate(0 0)" fill="#ebebec"/>
        <circle id="Ellipse_367" data-name="Ellipse 367" cx="37.614" cy="37.614" r="37.614" transform="translate(615.212 130.56)" fill="#ebebec"/>
        <circle id="Ellipse_368" data-name="Ellipse 368" cx="25.076" cy="25.076" r="25.076" transform="translate(744.772 142.756)" fill="#ebebec"/>
        <circle id="Ellipse_369" data-name="Ellipse 369" cx="37.614" cy="37.614" r="37.614" transform="translate(732.234 245.725)" fill="#ebebec"/>
        <circle id="Ellipse_370" data-name="Ellipse 370" cx="12.538" cy="12.538" r="12.538" transform="translate(754.803 41.121)" fill="#ebebec"/>
        <circle id="Ellipse_371" data-name="Ellipse 371" cx="25.076" cy="25.076" r="25.076" transform="translate(628.092 28.584)" fill="#ebebec"/>
        <circle id="Ellipse_372" data-name="Ellipse 372" cx="37.614" cy="37.614" r="37.614" transform="translate(500.047 16.046)" fill="#ebebec"/>
      </g>
    </g>
    <g id="Group_11553" data-name="Group 11553" transform="matrix(0.966, -0.259, 0.259, 0.966, 333.927, 335.295)">
      <path id="Path_16833" data-name="Path 16833" d="M140.543,205.555v22.728H186v11.364c-20.456,11.364-43.184,18.183-70.458,9.091-31.82-9.091-54.548-34.092-63.639-65.912-6.819-27.274-2.273-52.275,11.364-72.731l75,75,50-47.73L51.9,1l-50,47.73,31.82,31.82C15.537,101,4.173,130.552,4.173,160.1c0,68.185,47.73,122.733,111.369,134.1l2.273,25H49.63v22.728H231.456V319.2H163.271v-25c25-4.546,45.457-13.637,63.639-29.547,0,0,4.546-2.273,4.546-9.091V228.283h45.457V205.555Z" transform="translate(20.532 21.753)" fill="#fff" fill-rule="evenodd"/>
      <rect id="Rectangle_16626" data-name="Rectangle 16626" width="22.728" height="38.638" transform="translate(0.955 16.07) rotate(-45)" fill="#fff"/>
    </g>
  </g>
</svg>
