<svg xmlns="http://www.w3.org/2000/svg" xmlns:xlink="http://www.w3.org/1999/xlink" width="957" height="626" viewBox="0 0 957 626">
  <defs>
    <clipPath id="clip-path">
      <rect id="Rectangle_16623" data-name="Rectangle 16623" width="1022" height="696" transform="translate(879 334)" fill="#fff" stroke="#707070" stroke-width="1"/>
    </clipPath>
    <clipPath id="clip-Posture">
      <rect width="957" height="626"/>
    </clipPath>
  </defs>
  <g id="Posture" clip-path="url(#clip-Posture)">
    <g id="Group_11549" data-name="Group 11549" transform="translate(-941 -402)">
      <g id="Mask_Group_1" data-name="Mask Group 1" opacity="0.4" clip-path="url(#clip-path)">
        <g id="menu" transform="matrix(0.891, -0.454, 0.454, 0.891, 922.367, 743.381)">
          <path id="Path_1788" data-name="Path 1788" d="M801.693,368.346c-24.088-24.088-58.775-10.6-82.382-34.205s-10.6-58.775-34.205-82.141-57.812-10.117-81.9-34.205-6.263-59.98-31.556-85.031-59.98-6.5-85.272-31.556-8.431-59.257-32.76-83.586A68.892,68.892,0,0,0,410.5,1H73.265A72.265,72.265,0,0,0,1,73.265V747.735A72.265,72.265,0,0,0,73.265,820H747.735A72.265,72.265,0,0,0,820,747.735V416.281a84.309,84.309,0,0,0-18.307-47.935Z" transform="translate(0 0)" fill="#ebebec"/>
          <circle id="Ellipse_367" data-name="Ellipse 367" cx="37.614" cy="37.614" r="37.614" transform="translate(615.212 130.56)" fill="#ebebec"/>
          <circle id="Ellipse_368" data-name="Ellipse 368" cx="25.076" cy="25.076" r="25.076" transform="translate(744.772 142.756)" fill="#ebebec"/>
          <circle id="Ellipse_369" data-name="Ellipse 369" cx="37.614" cy="37.614" r="37.614" transform="translate(732.234 245.725)" fill="#ebebec"/>
          <circle id="Ellipse_370" data-name="Ellipse 370" cx="12.538" cy="12.538" r="12.538" transform="translate(754.803 41.121)" fill="#ebebec"/>
          <circle id="Ellipse_371" data-name="Ellipse 371" cx="25.076" cy="25.076" r="25.076" transform="translate(628.092 28.584)" fill="#ebebec"/>
          <circle id="Ellipse_372" data-name="Ellipse 372" cx="37.614" cy="37.614" r="37.614" transform="translate(500.047 16.046)" fill="#ebebec"/>
        </g>
      </g>
      <path id="topic_posture_management" data-name="topic posture management" d="M192.12,0,2,116.426V162.96H382.24V116.426ZM273.6,217.28V362.134h54.32V217.28ZM2,434.561H382.24v-54.32H2ZM164.96,217.28V362.134h54.32V217.28Zm-108.64,0V362.134h54.32V217.28Z" transform="matrix(0.899, -0.438, 0.438, 0.899, 1163.82, 805.43)" fill="#fff"/>
    </g>
  </g>
</svg>
