<?xml version="1.0" standalone="no"?><!DOCTYPE svg PUBLIC "-//W3C//DTD SVG 1.1//EN" "http://www.w3.org/Graphics/SVG/1.1/DTD/svg11.dtd"><svg t="1618723141158" class="icon" viewBox="0 0 1024 1024" version="1.1" xmlns="http://www.w3.org/2000/svg" p-id="542" xmlns:xlink="http://www.w3.org/1999/xlink" width="200" height="200"><defs><style type="text/css"></style></defs><path d="M828.739 195.144c174.771 174.5 174.999 457.642 0.49 632.413a8.596 8.596 0 0 1-0.49 0.482C745.287 912.539 631.457 960.061 512.7 960c-247.421 0.367-448.296-199.905-448.663-447.332C63.67 265.242 263.946 64.368 511.372 64a447.988 447.988 0 0 1 317.367 131.144zM227.61 226.908A407.277 407.277 0 0 0 103.8 494.896h56.203c8.174-181.227 152.781-326.538 333.964-335.594v-56.203A407.283 407.283 0 0 0 227.61 226.908z m0 578.33a407.329 407.329 0 0 0 272.061 118.928v-60.285C316.56 857.735 168.806 712.11 160.003 529.112H103.8a407.275 407.275 0 0 0 123.81 272.052v4.074z m-29.321-276.126a313.598 313.598 0 0 0 92.041 204.441 305.42 305.42 0 0 0 203.637 91.231V756.37c-121.283-9.057-217.454-105.919-225.628-227.258h-70.05zM493.967 198.4c-159.617 8.957-286.792 136.831-294.865 296.496h69.237c8.174-121.349 104.345-218.21 225.628-227.258V198.4z m0 109.962c-99.161 8.161-177.612 87.307-184.903 186.534h184.903V308.362z m-184.903 220.75a203.625 203.625 0 0 0 57.02 128.691 210.915 210.915 0 0 0 127.883 57.828v-186.52H309.064z m389.348-383.658a407.217 407.217 0 0 0-168.6-42.355v56.203c101.355 4.279 195.753 52.815 258.206 132.77l44.794-35.025a416.213 416.213 0 0 0-134.4-111.593z m-26.059 236.219a204.471 204.471 0 0 0-62.725-52.133 209.32 209.32 0 0 0-81.45-22.804v188.16l144.175-113.223z m81.449-65.976a312.727 312.727 0 0 0-99.371-81.458 308.785 308.785 0 0 0-127.888-35.025v68.424a244.365 244.365 0 0 1 95.307 26.877 244.446 244.446 0 0 1 81.458 63.537l50.494-42.355z m43.99 488.72a407.3 407.3 0 0 0 118.927-272.053h-52.138c-8.576 180.907-153.073 325.765-333.964 334.776v56.203a407.288 407.288 0 0 0 271.248-122.18l-4.073 3.254z m-267.175-88.785c98.873-9.074 177.079-87.612 185.716-186.52H530.617v186.52z m0 108.341C689.67 815.536 816.99 688.925 826.3 529.916h-69.229C748.452 651.238 651.94 747.751 530.617 756.37v67.603z" p-id="543" fill="#e0620d"></path></svg>