<?xml version="1.0" encoding="utf-8"?>
<svg id="Layer_1" data-name="Layer 1" width="100" height="100" viewBox="0 0 100 100" xmlns="http://www.w3.org/2000/svg">
  <title>General</title>
  <g transform="matrix(1, 0, 0, 1, 4.715068, 4.303166)">
    <path d="M 85.23 58 L 85.23 61.19 C 85.23 67 78.85 73 71 73 L 29 73 C 21.15 73 14.77 67 14.77 61.19 L 14.77 58 Z" fill="#9d5125"/>
    <path d="M 41.89 26.9 C 48.963 26.888 55.387 31.02 58.31 37.46 C 64.119 33.49 72.047 37.297 72.581 44.313 C 72.589 44.422 72.596 44.531 72.6 44.64 C 79.7 45.23 85.23 52.08 85.23 57.52 L 85.23 58.7 C 85.23 64.55 78.85 70.48 70.97 70.48 L 29 70.48 C 21.14 70.48 14.76 64.55 14.76 58.7 L 14.76 57.53 C 14.76 53.02 18.55 46.82 23.88 45.28 C 23.88 45.12 23.88 44.94 23.88 44.77 C 23.919 34.862 31.982 26.861 41.89 26.9 Z" fill="#f58535"/>
    <path d="M 32.42 47.81 L 27.71 64.26 L 30.47 64.26 L 31.53 60.26 L 36.38 60.26 L 37.38 64.26 L 40.14 64.26 L 35.81 47.81 Z M 32 58.13 L 34 50 L 34 50 L 35.9 58.11 Z" fill="#fff"/>
    <polygon points="51.99 60.66 51.95 60.66 49.72 47.81 46.94 47.81 44.76 60.59 44.71 60.59 42.54 47.81 39.87 47.81 43.06 64.26 46.13 64.26 48.24 51.87 48.29 51.87 50.42 64.26 53.48 64.26 56.77 47.81 54.15 47.81 51.99 60.66" fill="#fff"/>
    <path d="M 65.28 55.28 L 63.49 54.63 C 61.74 54 61 53.25 61 51.84 C 60.835 50.529 61.901 49.391 63.22 49.47 C 64.596 49.285 65.76 50.479 65.54 51.85 L 65.54 52.2 L 68.19 52.2 L 68.19 51.83 C 68.19 50.13 67.75 47.5 63.51 47.5 C 60.4 47.5 58.36 49.16 58.36 52.16 C 58.36 54.51 59.36 55.75 61.81 56.67 L 63.62 57.3 C 65.049 57.496 66.087 58.76 66 60.2 C 66.039 61.585 64.872 62.701 63.49 62.6 C 61.66 62.6 60.78 61.6 60.78 59.6 L 60.78 59.18 L 58.14 59.18 L 58.14 59.57 C 58.14 61.87 59.07 64.57 63.14 64.57 C 66.48 64.57 68.62 63.12 68.62 59.62 C 68.65 57.37 67.62 56.1 65.28 55.28 Z" fill="#fff"/>
  </g>
  <g transform="matrix(1, 0, 0, 1, 0.808442, -1.766273)">
    <path d="M 85.23 58 L 85.23 61.19 C 85.23 67 78.85 73 71 73 L 29 73 C 21.15 73 14.77 67 14.77 61.19 L 14.77 58 Z" fill="#9d5125"/>
    <path d="M 41.89 26.9 C 48.963 26.888 55.387 31.02 58.31 37.46 C 64.119 33.49 72.047 37.297 72.581 44.313 C 72.589 44.422 72.596 44.531 72.6 44.64 C 79.7 45.23 85.23 52.08 85.23 57.52 L 85.23 58.7 C 85.23 64.55 78.85 70.48 70.97 70.48 L 29 70.48 C 21.14 70.48 14.76 64.55 14.76 58.7 L 14.76 57.53 C 14.76 53.02 18.55 46.82 23.88 45.28 C 23.88 45.12 23.88 44.94 23.88 44.77 C 23.919 34.862 31.982 26.861 41.89 26.9 Z" fill="#f58535"/>
    <path d="M 32.42 47.81 L 27.71 64.26 L 30.47 64.26 L 31.53 60.26 L 36.38 60.26 L 37.38 64.26 L 40.14 64.26 L 35.81 47.81 Z M 32 58.13 L 34 50 L 34 50 L 35.9 58.11 Z" fill="#fff"/>
    <polygon points="51.99 60.66 51.95 60.66 49.72 47.81 46.94 47.81 44.76 60.59 44.71 60.59 42.54 47.81 39.87 47.81 43.06 64.26 46.13 64.26 48.24 51.87 48.29 51.87 50.42 64.26 53.48 64.26 56.77 47.81 54.15 47.81 51.99 60.66" fill="#fff"/>
    <path d="M 65.28 55.28 L 63.49 54.63 C 61.74 54 61 53.25 61 51.84 C 60.835 50.529 61.901 49.391 63.22 49.47 C 64.596 49.285 65.76 50.479 65.54 51.85 L 65.54 52.2 L 68.19 52.2 L 68.19 51.83 C 68.19 50.13 67.75 47.5 63.51 47.5 C 60.4 47.5 58.36 49.16 58.36 52.16 C 58.36 54.51 59.36 55.75 61.81 56.67 L 63.62 57.3 C 65.049 57.496 66.087 58.76 66 60.2 C 66.039 61.585 64.872 62.701 63.49 62.6 C 61.66 62.6 60.78 61.6 60.78 59.6 L 60.78 59.18 L 58.14 59.18 L 58.14 59.57 C 58.14 61.87 59.07 64.57 63.14 64.57 C 66.48 64.57 68.62 63.12 68.62 59.62 C 68.65 57.37 67.62 56.1 65.28 55.28 Z" fill="#fff"/>
  </g>
  <g transform="matrix(1, 0, 0, 1, -4.023122, -8.378481)">
    <path d="M 85.23 58 L 85.23 61.19 C 85.23 67 78.85 73 71 73 L 29 73 C 21.15 73 14.77 67 14.77 61.19 L 14.77 58 Z" fill="#9d5125"/>
    <path d="M 41.89 26.9 C 48.963 26.888 55.387 31.02 58.31 37.46 C 64.119 33.49 72.047 37.297 72.581 44.313 C 72.589 44.422 72.596 44.531 72.6 44.64 C 79.7 45.23 85.23 52.08 85.23 57.52 L 85.23 58.7 C 85.23 64.55 78.85 70.48 70.97 70.48 L 29 70.48 C 21.14 70.48 14.76 64.55 14.76 58.7 L 14.76 57.53 C 14.76 53.02 18.55 46.82 23.88 45.28 C 23.88 45.12 23.88 44.94 23.88 44.77 C 23.919 34.862 31.982 26.861 41.89 26.9 Z" fill="#f58535"/>
    <path d="M 32.42 47.81 L 27.71 64.26 L 30.47 64.26 L 31.53 60.26 L 36.38 60.26 L 37.38 64.26 L 40.14 64.26 L 35.81 47.81 Z M 32 58.13 L 34 50 L 34 50 L 35.9 58.11 Z" fill="#fff"/>
    <polygon points="51.99 60.66 51.95 60.66 49.72 47.81 46.94 47.81 44.76 60.59 44.71 60.59 42.54 47.81 39.87 47.81 43.06 64.26 46.13 64.26 48.24 51.87 48.29 51.87 50.42 64.26 53.48 64.26 56.77 47.81 54.15 47.81 51.99 60.66" fill="#fff"/>
    <path d="M 65.28 55.28 L 63.49 54.63 C 61.74 54 61 53.25 61 51.84 C 60.835 50.529 61.901 49.391 63.22 49.47 C 64.596 49.285 65.76 50.479 65.54 51.85 L 65.54 52.2 L 68.19 52.2 L 68.19 51.83 C 68.19 50.13 67.75 47.5 63.51 47.5 C 60.4 47.5 58.36 49.16 58.36 52.16 C 58.36 54.51 59.36 55.75 61.81 56.67 L 63.62 57.3 C 65.049 57.496 66.087 58.76 66 60.2 C 66.039 61.585 64.872 62.701 63.49 62.6 C 61.66 62.6 60.78 61.6 60.78 59.6 L 60.78 59.18 L 58.14 59.18 L 58.14 59.57 C 58.14 61.87 59.07 64.57 63.14 64.57 C 66.48 64.57 68.62 63.12 68.62 59.62 C 68.65 57.37 67.62 56.1 65.28 55.28 Z" fill="#fff"/>
  </g>
  <g transform="matrix(1, 0, 0, 1, 0, 2.961709)">
    <circle style="fill: rgb(255, 255, 255);" cx="67.455" cy="51" r="1.974"/>
    <circle style="fill: rgb(255, 255, 255);" cx="71.97" cy="51" r="1.974"/>
    <circle style="fill: rgb(255, 255, 255);" cx="76.485" cy="51" r="1.974"/>
  </g>
</svg>