<?xml version="1.0" encoding="UTF-8"?>
<svg width="90px" height="90px" viewBox="0 0 90 90" version="1.1" xmlns="http://www.w3.org/2000/svg" xmlns:xlink="http://www.w3.org/1999/xlink">
    <!-- Generator: Sketch 49.3 (51167) - http://www.bohemiancoding.com/sketch -->
    <title>Artboard 2 Copy</title>
    <desc>Created with Sketch.</desc>
    <defs></defs>
    <g id="Artboard-2-Copy" stroke="none" stroke-width="1" fill="none" fill-rule="evenodd">
        <path d="M45.5,9 C25.3506114,9.02182065 9.02182065,25.3506114 9,45.5 C9,65.6583152 25.3416848,82 45.5,82 C65.6583152,82 82,65.6583152 82,45.5 C82,25.3416848 65.6583152,9 45.5,9 Z M40,13 C35.6080458,16.896352 32.0318673,21.6582238 29.4853832,27 C26.8231499,25.7288497 24.3116276,24.1511065 22,22.2978331 C26.9065051,17.3616874 33.1988412,14.1113993 40,13 Z M19.6681446,24 C22.2331264,26.0765531 25.0296581,27.8388778 28,29.250501 C26.1505567,33.9507014 25.1141984,38.9406814 24.9368411,44 L12,44 C12.3287023,36.6583166 15.023155,29.6304609 19.6681446,24 Z M19.3423352,66 C14.8945592,60.5976453 12.3218824,53.9403124 12,47 L25.0357427,47 C25.2059174,51.8295697 26.2081017,56.5957567 28,61.0963212 C24.927919,62.3910843 22.0220413,64.0370853 19.3423352,66 Z M22,68.4561284 C24.356959,66.6788218 26.9044749,65.1838817 29.5929295,64 C32.0908272,69.3473541 35.633023,74.1121664 40,78 C33.1577141,76.8760742 26.8480994,73.530614 22,68.4561284 Z M43,77 C38.3485507,73.2659459 34.5865598,68.4903194 32,63.0363636 C35.5540108,61.8235872 39.2578896,61.1379853 43,61 L43,77 Z M43,57.7178194 C38.8062199,57.8618216 34.6563174,58.6308087 30.6834651,60 C29.0753875,55.8502792 28.1681977,51.4552864 28,47 L43,47 L43,57.7178194 Z M43,43 L28,43 C28.1683901,38.5421515 29.0942472,34.1456602 30.7373499,30 C34.669981,31.4592585 38.8094914,32.2810199 43,32.4342199 L43,43 Z M44,30 C40.2433483,29.8456251 36.532716,29.0988903 33,27.7861141 C35.6026992,22.4047923 39.3628168,17.6922322 44,14 L44,30 Z M79,44 L66.0567823,44 C65.8815063,38.9392542 64.8473975,33.9472735 63,29.244587 C65.9686514,27.8344026 68.7638013,26.074178 71.3280757,24 C75.9741719,29.6301123 78.6699527,36.6579791 79,44 Z M69,22.2978331 C66.6889596,24.1515099 64.1778095,25.7290514 61.5155399,27 C58.9684372,21.6584255 55.3919447,16.8967554 51,13 C57.8013608,14.1109959 64.0938543,17.3614857 69,22.2978331 Z M47,14 C51.6375683,17.6924286 55.3976859,22.4055779 58,27.7876854 C54.467284,29.0998723 50.7566517,29.8462143 47,30 L47,14 Z M47,32.4342199 C51.190701,32.2821776 55.3304039,31.4606091 59.2626501,30 C60.905368,34.1458531 61.831225,38.5421515 62,43 L47,43 L47,32.4342199 Z M47,47 L62,47 C61.8352663,51.454738 60.9323104,55.8495223 59.3288515,60 C55.3513805,58.6320004 51.1974366,57.8651003 47,57.7237111 L47,47 Z M47,77 L47,61 C50.7423863,61.1413268 54.4463392,61.829484 58,63.044226 C55.4131032,68.4952334 51.6510221,73.2681081 47,77 Z M51,78 C55.3632853,74.1121236 58.9028064,69.3472662 61.3995881,64 C64.0896627,65.1808637 66.6395469,66.6729398 69,68.4469097 C64.152034,73.5265452 57.8424949,76.8753962 51,78 Z M71.6549568,66 C68.9753895,64.041205 66.0705567,62.3991935 63,61.107691 C64.795971,56.6041 65.8004366,51.8338258 65.9707254,47 L79,47 C78.6782773,53.9409731 76.1044954,60.5986929 71.6549568,66 Z" id="Shape-Copy-2" fill="#000000" fill-rule="nonzero"></path>
    </g>
</svg>