<?xml version="1.0" encoding="UTF-8"?>
<svg width="90px" height="90px" viewBox="0 0 90 90" version="1.1" xmlns="http://www.w3.org/2000/svg" xmlns:xlink="http://www.w3.org/1999/xlink">
    <!-- Generator: Sketch 49.3 (51167) - http://www.bohemiancoding.com/sketch -->
    <title>Artboard 2</title>
    <desc>Created with Sketch.</desc>
    <defs></defs>
    <g id="Artboard-2" stroke="none" stroke-width="1" fill="none" fill-rule="evenodd">
        <g id="002-death-skull-and-bones" transform="translate(16.000000, 2.000000)" fill="#000000" fill-rule="nonzero">
            <path d="M11.1052912,42.8502088 C11.1052912,42.8502088 15.0942747,43.5288709 18.3506209,45.6600027 C21.6061566,47.7930797 22.8561786,51.6713571 22.8561786,51.6713571 L35.4596484,51.6713571 C35.4596484,51.6713571 37.3714753,46.1407555 40.4072198,44.7288077 C43.4413434,43.3119973 48.1769038,42.363783 48.1769038,42.363783 C48.1769038,42.363783 47.972511,42.4318599 48.1031538,36.2939148 C52.3106319,32.3976456 54.4834203,27.5410055 54.4834203,21.769217 C54.4835824,9.74650824 43.2880082,0 29.4826566,0 C15.6781154,0 4.48659341,9.74650824 4.48659341,21.7690549 C4.48659341,27.4927033 7.02375549,32.6966978 11.1659121,36.5824313 C10.9568187,40.726533 11.1052912,42.8502088 11.1052912,42.8502088 Z M39.6711786,19.7439286 C43.5001813,19.7439286 46.6023819,23.3665934 46.6023819,27.831467 C46.6023819,32.2992582 43.4983984,35.9181951 39.6711786,35.9181951 C35.8421758,35.9181951 32.7399753,32.2974753 32.7399753,27.831467 C32.7399753,23.3665934 35.8441209,19.7439286 39.6711786,19.7439286 Z M29.1419478,36.9931621 L29.9094341,37.9802775 C31.8313104,40.4530907 32.647261,43.7861044 32.6830824,43.9263104 L30.6749753,44.4090082 C30.6673571,44.3833984 30.1553214,42.3042967 29.0433984,40.3869588 C27.7505852,42.3782088 27.6124863,44.213044 27.6107033,44.2349258 L25.5505659,44.0966648 C25.5619121,43.9632665 25.7966154,40.8100082 28.3204863,37.9311648 L29.1419478,36.9931621 Z M19.9282225,19.7439286 C23.7580357,19.7439286 26.8584533,23.3665934 26.8584533,27.831467 C26.8584533,32.2992582 23.7562527,35.9181951 19.9282225,35.9181951 C16.1001923,35.9181951 12.9971813,32.2974753 12.9971813,27.831467 C12.9952363,23.3665934 16.0982473,19.7439286 19.9282225,19.7439286 Z" id="Shape"></path>
            <path d="M55.7838516,67.7858132 C52.9372637,66.3795385 49.399533,67.3580632 47.8665055,69.9738379 C47.4843022,70.6286731 47.2609451,71.3288929 47.190761,72.0273297 L35.5316154,66.2527857 L47.117011,60.2793599 C47.2230165,60.9001566 47.4387555,61.5190082 47.7947005,62.0999313 C49.3693846,64.6910687 52.9333736,65.6165907 55.7498132,64.1631484 C58.5641456,62.7093819 59.5674698,59.4313159 57.9887335,56.8401786 C56.8246181,54.9285137 54.5856978,53.9290797 52.3579615,54.1164533 C53.6922692,52.4660742 53.9363736,50.1833901 52.7724203,48.2736703 C51.1957912,45.682533 47.6356923,44.757011 44.8174698,46.2106154 C42.0047582,47.6642198 40.9980302,50.9424478 42.5783874,53.5355302 C43.0743764,54.3454835 43.7634121,54.9927005 44.5602363,55.4583791 L29.4581813,63.2486484 L14.2121923,55.6985934 C14.9996154,55.2218929 15.6800604,54.5630055 16.1578956,53.745272 C17.68525,51.1278764 16.6196841,47.8684505 13.7787692,46.4584478 C10.9368819,45.050228 7.39185714,46.0326429 5.86353022,48.6502005 C4.73556044,50.5769396 5.02229396,52.8555714 6.38869505,54.4834203 C4.15917582,54.3320302 1.93419505,55.3692308 0.808008242,57.2996978 C-0.721291209,59.9156346 0.345409341,63.1786264 3.18632418,64.584739 C6.03015659,65.9910137 9.57420879,65.0126511 11.1015632,62.3949313 C11.4489176,61.8081731 11.654283,61.1873764 11.7431071,60.5626896 L23.4401813,66.3542527 L11.8889863,72.3087143 C11.8056731,71.6141676 11.5729148,70.9196209 11.1772582,70.2683516 C9.59965659,67.6789973 6.0393956,66.7518544 3.22311813,68.2052967 C0.404895604,69.6589011 -0.599239011,72.936967 0.983063187,75.5282665 C2.14328846,77.4399313 4.38626099,78.4411484 6.61286264,78.2555577 C5.27563736,79.9060989 5.03526099,82.1868379 6.19451374,84.0965577 C7.77406044,86.689478 11.3341593,87.613217 14.152544,86.1596126 C16.9668764,84.7060082 17.9719835,81.4279423 16.3887088,78.8368049 C15.942967,78.0984945 15.3250879,77.4986071 14.6133599,77.0462198 L29.5137775,69.361794 L44.5581291,76.8095714 C43.8540192,77.2731429 43.2463516,77.8808104 42.8129286,78.6265769 C41.2836291,81.2441346 42.3474121,84.5055055 45.1920549,85.9135632 C48.0386429,87.321783 51.5781566,86.3393681 53.1094011,83.7235934 C54.239478,81.7949093 53.9498269,79.5161154 52.5832637,77.8882665 C54.8108379,78.0399808 57.0348462,77.002456 58.162978,75.071989 C59.6904945,72.4570247 58.6229835,69.1938709 55.7838516,67.7858132 Z" id="Shape"></path>
        </g>
    </g>
</svg>