<?xml version="1.0" encoding="UTF-8"?>
<svg width="17px" height="17px" viewBox="0 0 17 17" version="1.1" xmlns="http://www.w3.org/2000/svg" xmlns:xlink="http://www.w3.org/1999/xlink">
    <!-- Generator: Sketch 49.3 (51167) - http://www.bohemiancoding.com/sketch -->
    <title>Artboard 2 Copy</title>
    <desc>Created with Sketch.</desc>
    <defs></defs>
    <g id="Artboard-2-Copy" stroke="none" stroke-width="1" fill="none" fill-rule="evenodd">
        <g id="Group-3-Copy" fill="#979797" fill-rule="nonzero">
            <polygon id="Shape" transform="translate(13.245484, 13.245484) rotate(-270.000000) translate(-13.245484, -13.245484) " points="15.569816 9.89573071 11.2629921 14.2469698 11.2629921 11.0698649 9.89573071 11.0698649 9.89573071 16.5952381 15.3647444 16.5952381 15.3647444 15.2138867 12.2884142 15.2138867 16.5952381 10.8626799"></polygon>
            <polygon id="Shape" transform="translate(3.754516, 3.475369) rotate(-270.000000) translate(-3.754516, -3.475369) " points="1.70743393 0.125615764 1.70743393 1.50696715 4.71409541 1.50696715 0.683908046 5.85817395 1.57948198 6.82512315 5.54569337 2.54295647 5.54569337 5.65098901 6.82512315 5.65098901 6.82512315 0.125615764"></polygon>
            <polygon id="Shape" transform="translate(13.245484, 3.754516) rotate(-360.000000) translate(-13.245484, -3.754516) " points="15.569816 0.404761905 11.2629921 4.756001 11.2629921 1.57889605 9.89573071 1.57889605 9.89573071 7.10426929 15.3647444 7.10426929 15.3647444 5.72291791 12.2884142 5.72291791 16.5952381 1.3717111"></polygon>
            <polygon id="Shape" transform="translate(3.475369, 13.245484) rotate(-360.000000) translate(-3.475369, -13.245484) " points="1.42828779 9.89573071 1.42828779 11.2770821 4.43494927 11.2770821 0.404761905 15.6282889 1.30033583 16.5952381 5.26654723 12.3130714 5.26654723 15.421104 6.54597701 15.421104 6.54597701 9.89573071"></polygon>
        </g>
    </g>
</svg>