<?xml version="1.0" encoding="UTF-8"?>
<svg width="17px" height="17px" viewBox="0 0 17 17" version="1.1" xmlns="http://www.w3.org/2000/svg" xmlns:xlink="http://www.w3.org/1999/xlink">
    <!-- Generator: Sketch 49.3 (51167) - http://www.bohemiancoding.com/sketch -->
    <title>Artboard 2</title>
    <desc>Created with Sketch.</desc>
    <defs></defs>
    <g id="Artboard-2" stroke="none" stroke-width="1" fill="none" fill-rule="evenodd">
        <g id="Group-5-Copy" fill="#979797" fill-rule="nonzero">
            <polygon id="Shape" transform="translate(13.245484, 13.245484) rotate(-90.000000) translate(-13.245484, -13.245484) " points="15.569816 9.89573071 11.2629921 14.2469698 11.2629921 11.0698649 9.89573071 11.0698649 9.89573071 16.5952381 15.3647444 16.5952381 15.3647444 15.2138867 12.2884142 15.2138867 16.5952381 10.8626799"></polygon>
            <polygon id="Shape" transform="translate(8.500000, 8.500000) rotate(-90.000000) translate(-8.500000, -8.500000) " points="15.2460212 14.3015978 2.69840218 1.75397877 5.80159782 1.75397877 5.80159782 0.404761905 0.404761905 0.404761905 0.404761905 5.80159782 1.75397877 5.80159782 1.75397877 2.69840218 14.3015978 15.2460212 11.1984022 15.2460212 11.1984022 16.5952381 16.5952381 16.5952381 16.5952381 11.1984022 15.2460212 11.1984022"></polygon>
            <polygon id="Shape" transform="translate(3.754516, 3.475369) rotate(-90.000000) translate(-3.754516, -3.475369) " points="1.70743393 0.125615764 1.70743393 1.50696715 4.71409541 1.50696715 0.683908046 5.85817395 1.57948198 6.82512315 5.54569337 2.54295647 5.54569337 5.65098901 6.82512315 5.65098901 6.82512315 0.125615764"></polygon>
        </g>
    </g>
</svg>