<svg id="Layer_1" data-name="Layer 1" xmlns="http://www.w3.org/2000/svg" viewBox="0 0 16 16">
    <path d="M12,7.49v1a.48.48,0,0,1-.48.49H7v1.93a.07.07,0,0,1-.12.05L4.06,8.12a.16.16,0,0,1,0-.25L6.88,5A.07.07,0,0,1,7,5.07V7h4.48A.48.48,0,0,1,12,7.49Z"/><path d="M16,11.51A1.49,1.49,0,1,1,14.46,10l.23,0A6.68,6.68,0,0,0,15,8.3,7.11,7.11,0,0,0,8.25,1,6.92,6.92,0,0,0,4.21,2L3.8,1.62A7.65,7.65,0,0,1,8.28.38a7.69,7.69,0,0,1,7.28,8,7.16,7.16,0,0,1-.34,1.91A1.46,1.46,0,0,1,16,11.51Z"/><path d="M12.09,14.37a7.51,7.51,0,0,1-3.81,1.25A7.73,7.73,0,0,1,.34,7.67,7.64,7.64,0,0,1,.67,5.75a1.47,1.47,0,0,1-.62-1.2A1.49,1.49,0,1,1,1.54,6a1,1,0,0,1-.35,0A7,7,0,0,0,.89,7.7a7.17,7.17,0,0,0,7.36,7.35A6.94,6.94,0,0,0,11.68,14Z"/>
</svg>
