<?xml version="1.0" encoding="UTF-8" standalone="no"?>
<svg
   xmlns:dc="http://purl.org/dc/elements/1.1/"
   xmlns:cc="http://creativecommons.org/ns#"
   xmlns:rdf="http://www.w3.org/1999/02/22-rdf-syntax-ns#"
   xmlns:svg="http://www.w3.org/2000/svg"
   xmlns="http://www.w3.org/2000/svg"
   xmlns:sodipodi="http://sodipodi.sourceforge.net/DTD/sodipodi-0.dtd"
   xmlns:inkscape="http://www.inkscape.org/namespaces/inkscape"
   width="70"
   height="43.47"
   id="svg3423"
   version="1.1"
   inkscape:version="0.91 r13725"
   sodipodi:docname="Microsoft_Azure.svg">
  <defs
     id="defs3431" />
  <sodipodi:namedview
     pagecolor="#ffffff"
     bordercolor="#666666"
     borderopacity="1"
     objecttolerance="10"
     gridtolerance="10"
     guidetolerance="10"
     inkscape:pageopacity="0"
     inkscape:pageshadow="2"
     inkscape:window-width="1280"
     inkscape:window-height="657"
     id="namedview3429"
     showgrid="false"
     inkscape:zoom="4.8428571"
     inkscape:cx="4.5427726"
     inkscape:cy="21.735001"
     inkscape:window-x="-8"
     inkscape:window-y="-8"
     inkscape:window-maximized="1"
     inkscape:current-layer="svg3423" />
  <metadata
     id="metadata3425">
    <rdf:RDF>
      <cc:Work>
        <dc:subject>
                    Miscellaneous
                </dc:subject>
        <dc:identifier>
                    microsoft-azure
                </dc:identifier>
        <dc:title />
        <dc:format>
                    image/svg+xml
                </dc:format>
        <dc:publisher>
                    Amido Limited
                </dc:publisher>
        <dc:creator>
                    Richard Slater
                </dc:creator>
        <dc:type
           rdf:resource="http://purl.org/dc/dcmitype/StillImage" />
      </cc:Work>
    </rdf:RDF>
  </metadata>
  <path
     d="M 15.950738,37.004104 C 12.651432,36.702514 9.2161332,35.065575 7.4525588,32.954636 5.9198348,31.119979 5.2674361,29.300031 5.3813993,27.177079 5.5173053,24.646547 6.5710971,22.73063 8.806128,20.950701 c 1.772193,-1.411403 3.292236,-2.112609 5.674396,-2.6177 0.945677,-0.200547 1.300814,-0.229196 2.865646,-0.231316 1.470866,0 1.943786,0.03083 2.679259,0.184551 0.49113,0.102781 0.970552,0.211018 1.065168,0.240566 0.132258,0.04111 0.258164,-0.115626 0.543152,-0.676538 2.188862,-4.308662 6.807273,-7.381157 12.71764,-8.4605873 1.244647,-0.2273329 4.443647,-0.3215031 5.859726,-0.1725393 7.778881,0.8184376 13.90937,5.5827926 15.163691,11.7845676 0.285718,1.412689 0.114682,4.06071 -0.34327,5.315248 l -0.104698,0.286687 0.689953,0 c 2.543511,0.0064 4.905349,1.159597 5.973443,2.918585 0.564855,0.930208 0.735311,1.61529 0.662235,2.661959 -0.153224,2.195474 -1.938989,3.957095 -4.773585,4.709111 -0.58729,0.155774 -1.487448,0.163354 -20.652429,0.174274 -11.021206,0.0064 -20.415236,-0.02313 -20.875719,-0.06507 z M 35.06776,28.716378 c 0.230038,-0.05075 0.59428,-0.234977 0.809362,-0.410021 l 0.391147,-0.318228 0,0.366405 0,0.366405 0.837243,0 0.837243,0 0,-2.249626 0,-2.249562 -0.837243,0 -0.837243,0 0,1.442559 c 0,1.355904 -0.01545,1.460609 -0.254913,1.74235 -0.219633,0.258295 -0.326036,0.303453 -0.768881,0.326257 -0.445445,0.02313 -0.54559,-0.0064 -0.74986,-0.210374 -0.219392,-0.22046 -0.23581,-0.343408 -0.23581,-1.76888 l 0,-1.531912 -0.907475,0 -0.907554,0 0.05528,1.69822 c 0.03332,1.009669 0.109649,1.805559 0.189314,1.962874 0.38115,0.753173 1.291793,1.072235 2.379234,0.833533 z m 13.061723,-0.09404 c 0.414394,-0.106377 0.418621,-0.112159 0.418621,-0.577872 0,-0.25868 -0.0187,-0.470404 -0.04227,-0.470404 -0.02358,0 -0.222561,0.05974 -0.443007,0.132327 -0.527301,0.174145 -1.664082,0.170998 -2.096765,-0.0064 -0.274909,-0.112345 -0.65549,-0.5683 -0.65549,-0.785291 0,-0.0257 0.828872,-0.04689 1.842017,-0.04689 l 1.841935,0 0,-0.639603 c -0.0082,-1.304836 -0.950798,-2.094238 -2.50929,-2.094238 -1.849821,0 -3.097232,1.309396 -2.759244,2.896038 0.192158,0.902137 0.834398,1.479109 1.876075,1.685628 0.532746,0.105609 1.958822,0.05267 2.529773,-0.09379 z m -2.748758,-2.618087 c -0.112254,-0.14344 0.349121,-0.773921 0.643863,-0.880039 0.371802,-0.133869 0.539169,-0.135861 0.887234,-0.01024 0.304334,0.109588 0.519904,0.41818 0.519904,0.744309 0,0.213521 -0.01304,0.216347 -0.998108,0.216347 -0.549004,0 -1.022818,-0.03147 -1.052893,-0.07008 z m -24.752075,1.986449 0.281411,-0.68611 1.448757,0.02441 1.448755,0.02441 0.280597,0.683733 0.280517,0.683668 0.93373,0 c 0.91731,0 0.932348,-0.0064 0.854883,-0.19849 -0.04308,-0.109134 -0.667925,-1.50853 -1.387954,-3.109752 l -1.309107,-2.911262 -1.058828,-0.02505 -1.058828,-0.02505 -1.412339,3.068705 c -0.776766,1.687748 -1.412178,3.100052 -1.412097,3.138401 8.2e-5,0.03855 0.411713,0.05845 0.914629,0.04433 l 0.914463,-0.02569 0.281411,-0.686109 z m 0.680525,-1.805945 c 0,-0.03597 0.196548,-0.542476 0.436748,-1.12478 0.2402,-0.582368 0.472107,-1.177905 0.515351,-1.323464 0.07072,-0.236712 0.105995,-0.18545 0.337742,0.485242 0.142494,0.412398 0.362698,0.98436 0.48934,1.270918 0.346279,0.783621 0.37229,0.758119 -0.774491,0.758119 -0.552578,0 -1.00469,-0.02955 -1.00469,-0.06604 z m 10.270452,2.051008 0,-0.485243 -1.277243,0 c -0.702471,0 -1.299271,-0.02955 -1.326258,-0.06617 -0.02682,-0.03661 0.547784,-0.679173 1.277243,-1.428363 1.160028,-1.191522 1.326258,-1.404338 1.326258,-1.69822 l 0,-0.336021 -2.400206,0 -2.400123,0 0,0.485179 0,0.485242 1.283827,0 c 0.706047,0 1.282688,0.02955 1.281388,0.06617 0,0.03661 -0.629071,0.701334 -1.395025,1.477696 -1.129303,1.144566 -1.392749,1.465684 -1.393076,1.69822 l 0,0.286688 2.511811,0 2.51173,0 0,-0.485178 z m 9.618215,-0.816061 c 0.03251,-1.11855 0.0699,-1.344598 0.267024,-1.610023 0.313844,-0.423255 0.729215,-0.571319 1.288459,-0.459163 l 0.436262,0.08755 0,-0.597913 c 0,-0.673198 -0.122419,-0.765185 -0.812045,-0.610438 -0.484788,0.108877 -0.563635,0.157314 -0.904141,0.555708 l -0.293199,0.343152 0,-0.453445 0,-0.453382 -0.837243,0 -0.837323,0 0,2.249562 0,2.249626 0.827082,0 0.827,0 0.03821,-1.301239 z"
     id="path3427"
     inkscape:connector-curvature="0"
     style="fill:#00bcf2" />
</svg>
