<svg width="97" height="128" viewBox="0 0 97 128" fill="none" xmlns="http://www.w3.org/2000/svg">
<path d="M0 17.5127V110.487C0 120.274 21.7284 128 48.3702 128V17.5127H0Z" fill="#3998C5"/>
<path d="M47.8545 128H48.6258C75.5273 128 96.996 120.274 96.996 110.487V17.5127H47.8545V128Z" fill="#59B3D8"/>
<path d="M97 17.513C97 27.0465 75.2716 35.026 48.6298 35.026C21.9881 35.026 0 27.0414 0 17.513C0 7.98467 21.7284 0 48.3702 0C75.0119 0 97 7.98467 97 17.513Z" fill="white"/>
<path d="M87.1602 16.4817C87.1602 22.9202 69.8309 28.0709 48.6193 28.0709C27.4077 28.0709 9.8291 22.9227 9.8291 16.4817C9.8291 10.0408 27.1583 4.89258 48.3699 4.89258C69.5815 4.89258 87.1602 10.0433 87.1602 16.4817Z" fill="#7FB900"/>
<path d="M78.8915 23.4347C84.0646 21.3867 86.9108 19.0571 86.9108 16.4817C86.9108 10.0433 69.5815 4.89258 48.3699 4.89258C27.1583 4.89258 9.8291 10.0433 9.8291 16.4817C9.8291 19.0571 12.9324 21.6325 17.8484 23.4347C24.8315 20.6008 35.9541 19.0571 48.3699 19.0571C58.7161 18.8385 69.0279 20.3175 78.8915 23.4347Z" fill="#B7D332"/>
<path d="M75.7591 86.5716C68.0612 88.1511 67.5316 85.5476 67.5316 85.5476C75.6589 73.5386 79.0579 58.2963 76.1242 54.5715C68.1255 44.3955 54.2698 49.2083 54.0487 49.3337L53.9742 49.3465C52.2807 49.0084 50.559 48.8301 48.832 48.814C45.9232 48.6686 43.0527 49.5236 40.7021 51.2358C40.7021 51.2358 15.999 41.1033 17.1483 63.9744C17.4054 68.8384 24.1545 100.798 32.2175 91.1438C35.164 87.6135 38.0128 84.6311 38.0128 84.6311C39.4477 85.5956 41.1742 86.0345 42.8979 85.8727L43.0367 85.7575C42.9959 86.2171 43.0149 86.6801 43.0933 87.1348C41.0158 89.4388 41.6252 89.851 37.4728 90.7035C33.2717 91.5662 35.7425 93.0996 37.3494 93.5016C39.0602 94.0543 40.9026 94.0549 42.6137 93.5032C44.3249 92.9516 45.8173 91.8758 46.8779 90.4296L46.7545 90.916C47.8731 93.2374 48.3184 95.8237 48.0401 98.3835C47.7736 100.793 47.9364 103.23 48.5209 105.582C49.1611 107.318 49.8064 111.227 55.2597 110.062C57.2006 109.871 59.0056 108.984 60.3396 107.567C61.6735 106.151 62.4457 104.3 62.5128 102.359C62.7442 99.3717 63.2841 99.7992 63.3073 97.1368L63.7315 95.8721C64.22 91.8171 63.8086 90.5089 66.6163 91.1182L67.3002 91.1771C69.4738 91.2682 71.6425 90.9045 73.6662 90.1096C77.0884 88.53 79.117 85.8881 75.7437 86.5819L75.7591 86.5716Z" fill="#336790"/>
<path d="M43.2625 66.5088C42.9152 66.3282 42.5381 66.2111 42.1492 66.1632C41.5924 66.0424 41.0105 66.1242 40.5089 66.3936C40.4411 66.4387 40.3832 66.4972 40.339 66.5654C40.2948 66.6337 40.2651 66.7102 40.2518 66.7904C40.1798 67.3024 40.9434 68.2649 41.8999 68.398C41.9766 68.4082 42.0539 68.4134 42.1313 68.4134C42.4745 68.4126 42.8103 68.314 43.0991 68.1294C43.3879 67.9448 43.6177 67.6818 43.7613 67.3715L43.787 67.2819C43.8205 67.118 43.7845 66.7929 43.2625 66.5088Z" fill="white"/>
<path d="M64.5355 65.7101C64.1715 65.6355 63.7968 65.6277 63.43 65.687C62.6304 65.8022 61.8565 66.1581 61.9207 66.6291L61.9336 66.6752C62.0635 66.9589 62.2727 67.1994 62.5363 67.3678C62.7998 67.5362 63.1065 67.6255 63.4197 67.625C63.4902 67.6251 63.5606 67.6209 63.6305 67.6122C64.0518 67.5376 64.4366 67.3271 64.7258 67.0131C64.9662 66.7992 65.1145 66.5012 65.1398 66.1811C65.1012 65.961 64.8852 65.792 64.5355 65.7101Z" fill="white"/>
<path d="M78.083 86.4723C77.7128 85.3408 76.093 85.6787 75.5607 85.7888C70.1383 86.9024 68.6188 85.8041 68.3025 85.4944C72.1135 79.7342 74.9478 73.3896 76.692 66.7141C78.191 60.7416 78.1627 56.0031 76.6278 54.0498C75.0074 51.9854 72.9412 50.3106 70.5822 49.1495C68.2233 47.9884 65.6322 47.3708 63.0009 47.3426C59.9149 47.2116 56.8299 47.6214 53.8864 48.5534L53.8221 48.5688L53.7192 48.6046L53.6267 48.6405C52.0474 48.2487 50.4281 48.0391 48.8007 48.0158C45.9041 47.9045 43.0468 48.7112 40.64 50.3198C38.1212 49.378 35.5035 48.7228 32.8367 48.3666C28.8668 47.592 24.7494 48.3302 21.3002 50.435C17.7238 52.9618 16.0654 57.5007 16.3868 63.9212C16.5437 66.9497 20.9942 91.0726 27.9799 93.3946C28.866 93.6297 29.8046 93.5744 30.6567 93.2369C31.5088 92.8994 32.229 92.2976 32.7108 91.5206C35.1996 88.5408 37.5239 86.0678 38.1101 85.4534C39.3505 86.1427 40.7443 86.5123 42.1647 86.5286C42.1674 86.6717 42.1785 86.8144 42.1981 86.9561C41.941 87.2454 41.7096 87.5373 41.4654 87.847C40.532 89.0297 40.3109 89.3088 37.2847 89.9309C36.0583 90.1869 34.4257 90.6579 34.4 91.8688C34.3743 93.0797 36.0815 93.84 37.0893 94.0883C38.7075 94.6123 40.4399 94.6787 42.0937 94.28C43.7475 93.8814 45.2577 93.0333 46.4559 91.8304C46.199 96.6277 46.5019 101.439 47.3583 106.166C47.7401 107.578 48.5769 108.826 49.74 109.718C50.9031 110.61 52.3282 111.097 53.7964 111.105C54.5194 111.099 55.2398 111.017 55.9458 110.862C57.902 110.709 59.7369 109.857 61.113 108.465C62.4891 107.072 63.3138 105.231 63.4354 103.281C63.8802 100.721 64.6516 94.4979 64.9781 91.367C65.9044 91.6885 66.8825 91.836 67.8629 91.8022C69.937 91.819 71.9946 91.4329 73.9204 90.6656C75.8461 89.7491 78.5561 87.9008 78.083 86.4723ZM63.7157 89.8003C63.582 91.5488 62.569 99.9738 62.0393 103.028C61.9616 104.699 61.2653 106.283 60.0847 107.474C58.904 108.664 57.3225 109.378 55.645 109.477C54.9338 109.715 54.1806 109.803 53.4332 109.736C52.6859 109.669 51.9607 109.448 51.3038 109.087C50.6469 108.725 50.0726 108.232 49.6173 107.638C49.1621 107.044 48.8358 106.363 48.6593 105.637C47.7915 100.112 47.5414 94.5091 47.9137 88.9299C47.9155 88.8215 47.8908 88.7143 47.8417 88.6176C47.8175 88.4007 47.7736 88.1865 47.7106 87.9776C47.5749 87.5315 47.3517 87.1167 47.0537 86.7572C46.7558 86.3978 46.3892 86.1008 45.9751 85.8835L45.8902 85.84C45.5513 85.6507 45.1737 85.5404 44.7859 85.5174C44.398 85.4943 44.0099 85.5591 43.6508 85.7069C43.8751 84.7082 44.1838 83.7302 44.5738 82.7833L44.7178 82.3993C44.8824 81.959 45.0803 81.5212 45.2937 81.0374C46.4276 78.5286 47.978 75.0982 46.2887 67.326C46.1832 66.6895 45.9481 66.0813 45.5977 65.5387C45.2473 64.9961 44.7891 64.5307 44.2513 64.171C43.7135 63.8113 43.1075 63.5649 42.4705 63.4471C41.8336 63.3293 41.1791 63.3426 40.5475 63.486C38.6227 63.7465 36.7734 64.403 35.1173 65.4137C35.2436 60.7861 36.9227 56.3339 39.8867 52.7672C41.0545 51.6293 42.4474 50.7458 43.9767 50.1729C45.506 49.5999 47.1383 49.3501 48.7699 49.4392C51.2795 49.4449 53.7611 49.9639 56.061 50.9639C58.3608 51.964 60.4298 53.4239 62.1396 55.253C64.3346 57.5279 66.0021 60.2543 67.0247 63.2402C63.3557 62.8024 60.89 63.4578 59.6765 65.1833C57.1054 68.8594 61.1754 76.1427 63.1372 79.6448C63.4714 80.2412 63.8185 80.8582 63.9265 81.1193C64.4446 82.3204 65.1424 83.4365 65.9963 84.4294C66.2532 84.727 66.4846 85.0455 66.6879 85.3817L66.5208 85.4278C65.482 85.7069 63.5408 86.2496 63.7157 89.7952V89.8003ZM28.4273 92.0557C26.0876 91.2877 23.4908 86.608 21.1151 78.9049C19.5514 74.0004 18.4429 68.9634 17.8035 63.8572C17.5078 57.9461 18.9579 53.8194 22.1204 51.5896C24.3445 50.1723 26.9539 49.4732 29.592 49.5877C32.9136 49.6731 36.2021 50.2681 39.3416 51.3515C39.1925 51.4821 39.0382 51.6075 38.8917 51.7637C33.4589 57.2216 33.6518 66.5964 33.6621 66.9906V67.0367C33.8954 69.9576 33.842 72.8942 33.5027 75.8047C33.2833 77.2547 33.399 78.7354 33.841 80.1341C34.283 81.5328 35.0396 82.8127 36.0532 83.8764C36.324 84.1519 36.6135 84.4085 36.9196 84.6444C36.03 85.5865 33.9115 87.8726 31.6232 90.617C30.5227 91.9277 29.4737 92.3962 28.4273 92.0506V92.0557ZM34.9039 75.9814C35.2487 73.0457 35.3089 70.0837 35.0839 67.1365C37.137 65.5565 39.6918 64.7634 42.283 64.9017C42.958 65.0056 43.5801 65.3274 44.0534 65.8177C44.5268 66.308 44.8253 66.9396 44.9029 67.6153C46.4919 74.9343 45.1112 77.9935 43.9979 80.4537C43.7845 80.9273 43.5634 81.4163 43.3808 81.9001L43.2368 82.2841C42.8647 83.209 42.5546 84.1574 42.3087 85.1232C41.3262 85.1411 40.351 84.9524 39.4468 84.5695C38.5425 84.1866 37.7296 83.6181 37.0611 82.9011C36.1961 81.9862 35.5523 80.887 35.1785 79.687C34.8047 78.487 34.7107 77.2179 34.9039 75.9763V75.9814ZM43.5634 87.5219C43.5878 87.4955 43.6102 87.4673 43.6302 87.4374C43.7944 87.1878 44.0479 87.0097 44.3392 86.9393C44.6305 86.869 44.9377 86.9116 45.1986 87.0585L45.3143 87.1174C45.8036 87.3774 46.1738 87.8147 46.3485 88.3388C46.5231 88.8629 46.4889 89.4338 46.2527 89.9334C45.2757 91.2656 43.9002 92.2555 42.3234 92.7614C40.7465 93.2673 39.0493 93.2631 37.475 92.7494C36.8694 92.6198 36.3052 92.3437 35.8321 91.9456C36.3516 91.606 36.9446 91.3937 37.5624 91.3261C40.9408 90.6374 41.4191 90.1843 42.5684 88.7353C42.8255 88.4077 43.1443 88.0057 43.5711 87.5321L43.5634 87.5219ZM65.2378 80.5766C65.1041 80.2515 64.8058 79.7216 64.3945 78.9843L64.3765 78.9535C62.6975 75.9558 58.7663 68.9362 60.8412 65.982C61.352 65.4291 61.989 65.0067 62.6983 64.7505C63.4076 64.4943 64.1683 64.4118 64.9164 64.51C65.6614 64.5165 66.4053 64.5721 67.143 64.6764C67.1293 65.6628 67.0356 66.6465 66.8627 67.6178C66.6846 68.6473 66.573 69.6871 66.5285 70.7308C66.5246 71.9115 66.6106 73.0907 66.7856 74.2585C67.359 76.8597 67.0805 79.5754 65.9911 82.0076C65.6998 81.5513 65.4486 81.0708 65.2403 80.5715L65.2378 80.5766ZM74.8948 67.8124C73.1406 73.5286 70.6654 79.0004 67.5286 84.0966C67.4129 83.9328 67.2715 83.751 67.0915 83.5334L66.927 83.3235L66.8807 83.2672C68.4259 80.4594 68.8833 77.1849 68.1663 74.0639C68.0055 72.973 67.9264 71.8718 67.9297 70.7692C67.9742 69.7787 68.0816 68.792 68.2511 67.8149C68.4709 66.6273 68.5691 65.4204 68.5442 64.213C68.5872 64.0643 68.6004 63.9086 68.5828 63.7548C67.7022 60.57 66.1104 57.6244 63.9262 55.138C61.742 52.6516 59.0219 50.6886 55.9689 49.3957C67.4823 46.595 73.4524 52.3039 75.5093 54.9099C77.052 56.8632 76.8232 61.4456 74.8948 67.8098V67.8124ZM66.9244 86.7565C67.0993 86.7114 67.2711 86.6549 67.4386 86.5875C67.5525 86.6865 67.6728 86.778 67.7986 86.8614C70.3625 87.9259 73.2268 88.0296 75.8616 87.1533C76.1052 87.1 76.3529 87.0674 76.602 87.056C75.6999 88.0524 74.5886 88.839 73.347 89.36C70.807 90.4243 67.9871 90.632 65.3175 89.9514C65.1786 89.8694 65.1478 89.8106 65.1452 89.7952C65.0012 87.3069 65.9808 87.0329 66.945 86.7667L66.9244 86.7565Z" fill="white"/>
</svg>
