<?xml version="1.0" encoding="UTF-8"?>
<svg width="1024px" height="1024px" viewBox="0 0 1024 1024" version="1.1" xmlns="http://www.w3.org/2000/svg" xmlns:xlink="http://www.w3.org/1999/xlink">
    <!-- Generator: Sketch 52.5 (67469) - http://www.bohemiancoding.com/sketch -->
    <title>1024ww</title>
    <desc>Created with Sketch.</desc>
    <defs>
        <linearGradient x1="8.72268887%" y1="87.9121208%" x2="74.0256933%" y2="15.8800481%" id="linearGradient-1">
            <stop stop-color="#EAEAE9" offset="0%"></stop>
            <stop stop-color="#EAEAE9" offset="100%"></stop>
        </linearGradient>
        <linearGradient x1="74.0256933%" y1="15.8800481%" x2="8.72268887%" y2="87.9121208%" id="linearGradient-2">
            <stop stop-color="#E45784" offset="0%"></stop>
            <stop stop-color="#BF3C6B" offset="100%"></stop>
        </linearGradient>
    </defs>
    <g id="1024ww" stroke="none" stroke-width="1" fill="none" fill-rule="evenodd">
        <g id="Group-3" transform="translate(1.000000, 157.000000)">
            <g id="Group-2-Copy-7" transform="translate(27.872727, 23.227273)" fill="url(#linearGradient-1)">
                <path d="M848.354789,254.847917 C837.365553,249.987584 825.540627,246.686502 813.814787,243.754236 C806.903048,242.025185 804.414672,238.777051 803.279853,232.142023 C787.96447,142.486971 740.920894,74.4258893 658.301584,31.111968 C628.618683,15.5523324 596.626883,6.73362313 563.223569,2.66204515 C559.269464,2.18185457 555.418183,0.907432401 551.518295,0 L514.127224,0 C508.049305,1.18130536 502.0013,2.51963121 495.891599,3.51652878 C387.242495,21.2616706 313.376434,80.5843792 273.962506,180.86205 C271.403088,187.371097 268.907234,190.595495 260.832632,190.111653 C130.709836,182.319054 21.8438636,269.100265 2.45285425,395.680695 C1.86020577,399.538652 0.826342665,403.332705 0,407.157798 L0,447.325831 C1.99107452,457.092141 3.90362779,466.871232 5.98817999,476.617457 C26.7738763,573.732808 111.569347,650.123279 212.22237,662.39644 C268.638018,669.276128 321.673513,656.9062 372.919845,634.990886 C376.286911,633.550314 379.250153,630.139683 381.287967,626.964582 C448.472243,522.255647 543.195042,454.605375 667.051095,428.764548 C777.638926,405.691664 882.924703,422.045532 981.367914,477.318572 C984.839675,479.266722 988.356306,481.14549 993.594795,484.008375 C993.594795,471.255025 994.922178,459.756012 993.385405,448.633118 C980.934178,358.554477 933.969124,292.719069 848.354789,254.847917 Z" id="Fill-1"></path>
            </g>
            <g id="Group-Copy">
                <g id="Group-2-Copy-3" fill="url(#linearGradient-2)">
                    <path d="M848.354789,249.501457 C837.365553,244.74309 825.540627,241.511261 813.814787,238.640511 C806.903048,236.947733 804.414672,233.767743 803.279853,227.27191 C787.96447,139.497734 740.920894,72.864507 658.301584,30.4592694 C628.618683,15.2260597 596.626883,6.59235831 563.223569,2.60619805 C559.269464,2.13608139 555.418183,0.888395358 551.518295,0 L514.127224,0 C508.049305,1.15652273 502.0013,2.46677182 495.891599,3.44275545 C387.242495,20.8156216 313.376434,78.8937978 273.962506,177.067741 C271.403088,183.440235 268.907234,186.596988 260.832632,186.123296 C130.709836,178.494179 21.8438636,263.454805 2.45285425,387.379701 C1.86020577,391.156722 0.826342665,394.87118 0,398.616026 L0,437.941373 C1.99107452,447.502796 3.90362779,457.07673 5.98817999,466.61849 C26.7738763,561.696456 111.569347,636.48433 212.22237,648.500011 C268.638018,655.23537 321.673513,643.124951 372.919845,621.669399 C376.286911,620.259049 379.250153,616.919969 381.287967,613.811479 C448.472243,511.299235 543.195042,445.068199 667.051095,419.769488 C777.638926,397.18065 882.924703,413.19143 981.367914,467.304896 C984.839675,469.212175 988.356306,471.051529 993.594795,473.854354 C993.594795,461.368556 994.922178,450.110781 993.385405,439.221235 C980.934178,351.032355 933.969124,286.57811 848.354789,249.501457 Z" id="Fill-1"></path>
                </g>
                <path d="M373.55986,187.107873 C372.099261,195.250251 366.315288,199.754545 358.720172,199.754545 C354.163103,199.754545 350.657665,198.253114 347.970162,195.596735 C343.938908,191.55442 343.763636,187.454357 343.763636,178.85 C343.763636,170.245643 343.938908,166.14558 347.970162,162.103265 C350.657665,159.446886 354.163103,157.945455 358.720172,157.945455 C366.373712,157.945455 372.099261,162.449749 373.55986,170.592127 L367.133224,170.592127 C366.19844,166.37657 363.335666,163.489201 358.720172,163.489201 C356.207942,163.489201 354.104679,164.413159 352.585656,166.030085 C350.482393,168.224485 350.073425,170.707622 350.073425,178.85 C350.073425,186.992378 350.482393,189.475515 352.585656,191.669915 C354.104679,193.286841 356.207942,194.210799 358.720172,194.210799 C363.335666,194.210799 366.256864,191.32343 367.250072,187.107873 L373.55986,187.107873 Z M411.477016,199.408061 L405.167228,199.408061 L405.167228,181.448631 L388.282701,181.448631 L388.282701,199.408061 L381.972912,199.408061 L381.972912,158.291939 L388.282701,158.291939 L388.282701,175.847137 L405.167228,175.847137 L405.167228,158.291939 L411.477016,158.291939 L411.477016,199.408061 Z M448.92678,199.408061 L422.343874,199.408061 L422.343874,158.291939 L448.92678,158.291939 L448.92678,163.893433 L428.653663,163.893433 L428.653663,175.904884 L445.947158,175.904884 L445.947158,181.448631 L428.653663,181.448631 L428.653663,193.806567 L448.92678,193.806567 L448.92678,199.408061 Z M485.850729,187.107873 C484.390129,195.250251 478.606156,199.754545 471.01104,199.754545 C466.453971,199.754545 462.948533,198.253114 460.26103,195.596735 C456.229776,191.55442 456.054504,187.454357 456.054504,178.85 C456.054504,170.245643 456.229776,166.14558 460.26103,162.103265 C462.948533,159.446886 466.453971,157.945455 471.01104,157.945455 C478.66458,157.945455 484.390129,162.449749 485.850729,170.592127 L479.424092,170.592127 C478.489308,166.37657 475.626534,163.489201 471.01104,163.489201 C468.49881,163.489201 466.395547,164.413159 464.876524,166.030085 C462.773261,168.224485 462.364293,170.707622 462.364293,178.85 C462.364293,186.992378 462.773261,189.475515 464.876524,191.669915 C466.395547,193.286841 468.49881,194.210799 471.01104,194.210799 C475.626534,194.210799 478.547732,191.32343 479.54094,187.107873 L485.850729,187.107873 Z M526.689083,199.408061 L519.269239,199.408061 L507.584445,179.138737 L500.573569,187.454357 L500.573569,199.408061 L494.26378,199.408061 L494.26378,158.291939 L500.573569,158.291939 L500.573569,178.965495 L517.574944,158.291939 L525.286907,158.291939 L511.790971,174.403453 L526.689083,199.408061 Z M575.82364,170.765369 C575.82364,177.926042 570.623907,183.181052 562.502976,183.181052 L553.038293,183.181052 L553.038293,199.408061 L546.728504,199.408061 L546.728504,158.291939 L562.502976,158.291939 C570.623907,158.291939 575.82364,163.604696 575.82364,170.765369 Z M569.513852,170.765369 C569.513852,166.37657 566.592653,163.893433 562.152432,163.893433 L553.038293,163.893433 L553.038293,177.637305 L562.152432,177.637305 C566.592653,177.637305 569.513852,175.096421 569.513852,170.765369 Z M611.871229,178.85 C611.871229,187.454357 611.754381,191.55442 607.664703,195.596735 C604.977201,198.253114 601.471763,199.754545 596.914693,199.754545 C592.357624,199.754545 588.852186,198.253114 586.164683,195.596735 C582.075005,191.55442 581.958157,187.454357 581.958157,178.85 C581.958157,170.245643 582.075005,166.14558 586.164683,162.103265 C588.852186,159.446886 592.357624,157.945455 596.914693,157.945455 C601.471763,157.945455 604.977201,159.446886 607.664703,162.103265 C611.754381,166.14558 611.871229,170.245643 611.871229,178.85 Z M605.561441,178.85 C605.561441,170.707622 605.210897,168.166738 603.107634,166.030085 C601.530187,164.413159 599.426924,163.489201 596.914693,163.489201 C594.402463,163.489201 592.2992,164.413159 590.721753,166.030085 C588.676914,168.224485 588.267946,170.707622 588.267946,178.85 C588.267946,186.992378 588.676914,189.417767 590.721753,191.612167 C592.2992,193.229093 594.402463,194.210799 596.914693,194.210799 C599.426924,194.210799 601.530187,193.229093 603.107634,191.612167 C605.210897,189.475515 605.561441,186.992378 605.561441,178.85 Z M627.528853,199.408061 L621.219064,199.408061 L621.219064,158.291939 L627.528853,158.291939 L627.528853,199.408061 Z M669.710958,199.408061 L663.926985,199.408061 L644.7055,170.476632 L644.7055,199.408061 L638.395711,199.408061 L638.395711,158.291939 L644.179684,158.291939 L663.40117,187.16562 L663.40117,158.291939 L669.710958,158.291939 L669.710958,199.408061 Z M706.109091,163.893433 L694.657993,163.893433 L694.657993,199.408061 L688.348204,199.408061 L688.348204,163.893433 L676.897107,163.893433 L676.897107,158.291939 L706.109091,158.291939 L706.109091,163.893433 Z" id="CHECK-POINT" fill="#FFFFFF"></path>
                <path d="M222.000127,341.109091 C221.82436,351.063636 218.660556,359.856818 212.508714,365.165909 C207.58724,369.313636 201.435398,371.636364 193.174353,371.636364 C183.331405,371.636364 176.476496,368.152273 171.730789,363.009091 C163.469744,354.05 162.590909,343.929545 162.590909,311.245455 C162.590909,278.561364 163.469744,268.440909 171.730789,259.481818 C176.476496,254.338636 183.331405,250.854545 193.174353,250.854545 C201.962699,250.854545 208.114541,253.343182 213.036015,257.822727 C218.836323,263.131818 221.82436,271.593182 222.000127,281.215909 L207.059939,281.215909 C206.884172,276.238636 206.005338,271.261364 203.0173,267.777273 C201.083864,265.454545 197.92006,263.629545 193.174353,263.629545 C188.252879,263.629545 184.913308,265.454545 182.804105,268.109091 C178.409932,273.75 177.706864,283.206818 177.706864,311.245455 C177.706864,339.284091 178.409932,348.740909 182.804105,354.381818 C184.913308,357.036364 188.252879,358.861364 193.174353,358.861364 C197.92006,358.861364 201.083864,357.036364 203.0173,354.713636 C205.829571,351.229545 206.884172,346.086364 207.059939,341.109091 L222.000127,341.109091 Z M265.76609,370.309091 C258.032346,370.309091 251.52897,369.313636 246.080195,365 C241.158721,361.184091 237.994917,355.211364 237.994917,345.754545 L237.994917,252.181818 L252.232037,252.181818 L252.232037,345.256818 C252.232037,353.718182 256.450443,358.197727 265.76609,358.197727 L265.76609,370.309091 Z M327.636045,327.338636 C327.636045,344.759091 326.757211,356.870455 321.132669,363.672727 C316.562729,369.479545 309.883586,371.636364 301.798308,371.636364 C293.71303,371.636364 287.209654,369.479545 282.639714,363.672727 C277.015173,356.870455 275.960571,344.759091 275.960571,327.338636 C275.960571,309.918182 277.015173,297.806818 282.639714,291.004545 C287.209654,285.197727 293.71303,283.040909 301.798308,283.040909 C309.883586,283.040909 316.562729,285.197727 321.132669,291.004545 C326.757211,297.806818 327.636045,309.918182 327.636045,327.338636 Z M313.398925,327.338636 C313.398925,311.909091 313.223158,303.115909 309.883586,298.802273 C308.125917,296.479545 305.13788,295.152273 301.798308,295.152273 C298.458737,295.152273 295.646466,296.479545 293.888797,298.802273 C290.549225,303.115909 290.197692,311.909091 290.197692,327.338636 C290.197692,342.768182 290.549225,351.561364 293.888797,355.875 C295.646466,358.197727 298.458737,359.525 301.798308,359.525 C305.13788,359.525 308.125917,358.197727 309.883586,355.875 C313.223158,351.561364 313.398925,342.768182 313.398925,327.338636 Z M394.251707,370.309091 L380.541887,370.309091 L380.541887,363.672727 C379.311519,365.663636 376.850782,367.820455 374.917346,368.981818 C372.105075,370.640909 368.765504,371.636364 365.074399,371.636364 C358.219489,371.636364 353.473782,369.479545 349.60691,365.331818 C345.915805,361.515909 344.158135,356.870455 344.158135,347.579545 L344.158135,284.368182 L358.395256,284.368182 L358.395256,347.579545 C358.395256,355.543182 363.31673,359.525 369.292805,359.525 C375.26888,359.525 380.014587,355.543182 380.014587,347.579545 L380.014587,284.368182 L394.251707,284.368182 L394.251707,370.309091 Z M462.273504,370.309091 L448.387918,370.309091 L448.387918,363.672727 C447.509083,365.331818 444.521046,368.152273 442.939143,368.981818 C439.951106,370.640909 436.611534,371.636364 433.096196,371.636364 C426.768587,371.636364 422.02288,369.645455 417.980241,365.165909 C412.179933,358.861364 411.301098,347.247727 411.301098,327.338636 C411.301098,307.429545 412.179933,295.815909 417.980241,289.345455 C421.671346,285.197727 426.417053,283.040909 433.096196,283.040909 C436.787301,283.040909 439.951106,283.870455 442.939143,285.529545 C444.696813,286.525 446.630249,288.515909 448.036384,290.340909 L448.036384,252.181818 L462.273504,252.181818 L462.273504,370.309091 Z M448.036384,346.915909 L448.036384,307.595455 C448.036384,302.95 446.806016,299.963636 444.521046,297.806818 C442.58761,295.981818 440.126873,295.152273 437.138835,295.152273 C433.799264,295.152273 431.16276,296.479545 429.405091,298.636364 C426.241286,302.286364 425.713985,309.586364 425.713985,327.338636 C425.713985,345.090909 426.241286,352.390909 429.405091,356.040909 C431.16276,358.197727 433.799264,359.525 437.138835,359.525 C440.126873,359.525 442.58761,358.695455 444.521046,356.870455 C446.806016,354.713636 448.036384,351.561364 448.036384,346.915909 Z M540.138249,341.938636 C539.962482,361.681818 527.483031,371.636364 511.136708,371.636364 C501.29376,371.636364 494.43885,367.986364 489.693144,363.009091 C481.607865,354.547727 480.553264,343.929545 480.553264,311.245455 C480.553264,278.561364 481.607865,267.943182 489.693144,259.481818 C494.43885,254.504545 501.29376,250.854545 511.136708,250.854545 C519.925054,250.854545 526.604196,253.675 531.349903,258.154545 C537.150211,263.629545 539.786715,271.925 539.962482,281.381818 L525.022294,281.381818 C524.846527,273.418182 522.737324,263.629545 511.136708,263.629545 C506.215234,263.629545 502.875662,265.454545 500.766459,268.109091 C496.372286,273.75 495.669219,283.206818 495.669219,311.245455 C495.669219,339.284091 496.372286,348.740909 500.766459,354.381818 C502.875662,357.036364 506.215234,358.861364 511.136708,358.861364 C519.925054,358.861364 525.022294,352.059091 525.022294,342.436364 L525.022294,318.711364 L511.136708,318.711364 L511.136708,306.931818 L540.138249,306.931818 L540.138249,341.938636 Z M607.984279,370.309091 L594.27446,370.309091 L594.27446,363.672727 C593.044091,365.663636 590.583355,367.820455 588.649918,368.981818 C585.837648,370.640909 582.498076,371.636364 578.806971,371.636364 C571.952061,371.636364 567.206354,369.479545 563.339482,365.331818 C559.648377,361.515909 557.890708,356.870455 557.890708,347.579545 L557.890708,284.368182 L572.127828,284.368182 L572.127828,347.579545 C572.127828,355.543182 577.049302,359.525 583.025377,359.525 C589.001452,359.525 593.747159,355.543182 593.747159,347.579545 L593.747159,284.368182 L607.984279,284.368182 L607.984279,370.309091 Z M674.599941,370.309091 L661.065889,370.309091 L661.065889,362.677273 C659.659753,365 657.55055,367.156818 655.792881,368.484091 C652.98061,370.475 649.992573,371.636364 645.071099,371.636364 C638.391956,371.636364 633.646249,369.645455 629.427843,365.165909 C625.912505,361.35 623.627535,354.879545 623.627535,345.920455 C623.627535,337.956818 626.439806,330.988636 631.712813,326.509091 C636.282753,322.693182 641.555761,320.702273 651.047174,320.702273 L660.362821,320.702273 L660.362821,307.097727 C660.362821,299.134091 656.671716,294.820455 649.641039,294.820455 C646.477235,294.820455 644.368031,295.981818 642.610362,297.640909 C640.149625,300.129545 639.270791,302.95 639.270791,307.595455 L625.033671,307.595455 C625.033671,300.959091 626.615573,294.488636 632.064347,289.345455 C636.106986,285.529545 642.610362,283.040909 649.641039,283.040909 C657.02325,283.040909 663.175092,285.031818 667.393498,289.013636 C671.787671,293.327273 674.599941,299.134091 674.599941,307.927273 L674.599941,370.309091 Z M660.362821,346.418182 L660.362821,330.490909 L652.277543,330.490909 C647.88337,330.490909 644.895332,331.154545 642.083062,333.643182 C639.446558,335.965909 637.864656,340.777273 637.864656,345.422727 C637.864656,354.381818 641.555761,359.856818 648.937971,359.856818 C655.792881,359.856818 660.362821,354.381818 660.362821,346.418182 Z M728.911919,295.981818 L724.693513,295.981818 C715.026333,295.981818 708.171423,301.954545 708.171423,311.743182 L708.171423,370.309091 L693.934302,370.309091 L693.934302,284.368182 L707.644122,284.368182 L707.644122,293.493182 C709.050257,291.170455 711.686761,288.847727 713.971731,287.354545 C718.190137,284.534091 723.111611,283.040909 728.911919,283.040909 L728.911919,295.981818 Z M789.727273,370.309091 L775.841686,370.309091 L775.841686,363.672727 C774.962852,365.331818 771.974814,368.152273 770.392912,368.981818 C767.404874,370.640909 764.065303,371.636364 760.549964,371.636364 C754.222355,371.636364 749.476648,369.645455 745.434009,365.165909 C739.633701,358.861364 738.754866,347.247727 738.754866,327.338636 C738.754866,307.429545 739.633701,295.815909 745.434009,289.345455 C749.125115,285.197727 753.870821,283.040909 760.549964,283.040909 C764.24107,283.040909 767.404874,283.870455 770.392912,285.529545 C772.150581,286.525 774.084017,288.515909 775.490152,290.340909 L775.490152,252.181818 L789.727273,252.181818 L789.727273,370.309091 Z M775.490152,346.915909 L775.490152,307.595455 C775.490152,302.95 774.259784,299.963636 771.974814,297.806818 C770.041378,295.981818 767.580641,295.152273 764.592603,295.152273 C761.253032,295.152273 758.616528,296.479545 756.858859,298.636364 C753.695055,302.286364 753.167754,309.586364 753.167754,327.338636 C753.167754,345.090909 753.695055,352.390909 756.858859,356.040909 C758.616528,358.197727 761.253032,359.525 764.592603,359.525 C767.580641,359.525 770.041378,358.695455 771.974814,356.870455 C774.259784,354.713636 775.490152,351.561364 775.490152,346.915909 Z" id="CloudGuard" fill="#FFFFFF"></path>
            </g>
            <path d="M552.809091,709.407107 L552.809091,549.511075 L586.375222,549.511075 C599.416433,549.511075 609.30834,553.104208 616.051238,560.290583 C622.794137,567.476957 626.165536,577.657502 626.165536,590.832521 L626.165536,665.615357 C626.165536,680.58697 622.571847,691.628369 615.384362,698.739886 C608.196876,705.851402 597.860389,709.407107 584.374592,709.407107 L552.809091,709.407107 Z M575.482901,571.07009 L575.482901,687.848091 L585.930637,687.848091 C592.303047,687.848091 596.822945,686.238667 599.490465,683.01977 C602.157986,679.800873 603.491726,674.74803 603.491726,667.861087 L603.491726,590.832521 C603.491726,584.544444 602.232082,579.678742 599.712757,576.235271 C597.193433,572.7918 592.599439,571.07009 585.930637,571.07009 L575.482901,571.07009 Z M644.171209,633.725979 C644.171209,629.084779 644.467596,624.817933 645.060378,620.925314 C645.653161,617.032694 646.764611,613.589275 648.394762,610.594952 C651.062283,605.65432 654.878261,601.686902 659.842813,598.692579 C664.807365,595.698256 670.846245,594.201118 677.959632,594.201118 C685.07302,594.201118 691.1119,595.698256 696.076452,598.692579 C701.041003,601.686902 704.856982,605.65432 707.524503,610.594952 C709.154654,613.589275 710.266104,617.032694 710.858887,620.925314 C711.451669,624.817933 711.748056,629.084779 711.748056,633.725979 L711.748056,671.229684 C711.748056,675.870884 711.451669,680.13773 710.858887,684.030349 C710.266104,687.922969 709.154654,691.366388 707.524503,694.360711 C704.856982,699.301343 701.041003,703.268761 696.076452,706.263084 C691.1119,709.257407 685.07302,710.754545 677.959632,710.754545 C670.846245,710.754545 664.807365,709.257407 659.842813,706.263084 C654.878261,703.268761 651.062283,699.301343 648.394762,694.360711 C646.764611,691.366388 645.653161,687.922969 645.060378,684.030349 C644.467596,680.13773 644.171209,675.870884 644.171209,671.229684 L644.171209,633.725979 Z M666.84502,674.822853 C666.84502,679.164621 667.845325,682.420898 669.845965,684.591782 C671.846605,686.762666 674.551134,687.848091 677.959632,687.848091 C681.368131,687.848091 684.07266,686.762666 686.0733,684.591782 C688.07394,682.420898 689.074245,679.164621 689.074245,674.822853 L689.074245,630.13281 C689.074245,625.791042 688.07394,622.534765 686.0733,620.363881 C684.07266,618.192997 681.368131,617.107572 677.959632,617.107572 C674.551134,617.107572 671.846605,618.192997 669.845965,620.363881 C667.845325,622.534765 666.84502,625.791042 666.84502,630.13281 L666.84502,674.822853 Z M728.419975,709.407107 L728.419975,595.548556 L751.093786,595.548556 L751.093786,606.552637 L751.53837,606.552637 C753.909499,602.95945 756.762221,600.0026 760.096622,597.682 C763.431023,595.3614 767.691582,594.201118 772.878427,594.201118 C777.768881,594.201118 781.844198,595.398829 785.104501,597.794287 C788.364804,600.189745 791.032284,602.809738 793.107022,605.654345 C795.922738,602.510306 799.034799,599.815456 802.443297,597.569714 C805.851796,595.323972 810.593983,594.201118 816.670002,594.201118 C819.485718,594.201118 822.375488,594.687688 825.3394,595.660843 C828.303311,596.633997 830.970792,598.243422 833.341921,600.489164 C835.71305,602.734906 837.639564,605.616898 839.12152,609.135227 C840.603476,612.653556 841.344442,616.957831 841.344442,622.048179 L841.344442,709.407107 L818.670632,709.407107 L818.670632,630.581956 C818.670632,626.389905 817.707375,623.096199 815.780833,620.700741 C813.85429,618.305283 811.112713,617.107572 807.556019,617.107572 C803.258347,617.107572 800.29448,618.454997 798.664329,621.149887 C797.034177,623.844777 796.219114,627.737339 796.219114,632.827687 L796.219114,709.407107 L773.545304,709.407107 L773.545304,630.581956 C773.545304,626.389905 772.582047,623.096199 770.655504,620.700741 C768.728962,618.305283 765.987385,617.107572 762.430691,617.107572 C758.133019,617.107572 755.169152,618.454997 753.539,621.149887 C751.908849,623.844777 751.093786,627.737339 751.093786,632.827687 L751.093786,709.407107 L728.419975,709.407107 Z M925.593208,661.123895 L880.690172,661.123895 L880.690172,676.619437 C880.690172,680.212625 881.690477,682.982332 883.691118,684.928641 C885.691758,686.874951 888.396287,687.848091 891.804785,687.848091 C896.102457,687.848091 898.955179,686.575523 900.363037,684.030349 C901.770895,681.485175 902.623007,678.940039 902.919398,676.394864 L925.593208,676.394864 C925.593208,686.425845 922.555245,694.510395 916.479226,700.648757 C913.515314,703.792796 909.958674,706.263075 905.809197,708.059669 C901.659721,709.856262 896.99163,710.754545 891.804785,710.754545 C884.691397,710.754545 878.652518,709.257407 873.687966,706.263084 C868.723414,703.268761 864.907435,699.301343 862.239915,694.360711 C860.609763,691.366388 859.498313,687.922969 858.905531,684.030349 C858.312749,680.13773 858.016362,675.870884 858.016362,671.229684 L858.016362,633.725979 C858.016362,629.084779 858.312749,624.817933 858.905531,620.925314 C859.498313,617.032694 860.609763,613.589275 862.239915,610.594952 C864.907435,605.65432 868.723414,601.686902 873.687966,598.692579 C878.652518,595.698256 884.691397,594.201118 891.804785,594.201118 C896.99163,594.201118 901.69677,595.099401 905.920344,596.895994 C910.143918,598.692588 913.737607,601.162867 916.701518,604.306906 C922.629341,611.044132 925.593208,619.502967 925.593208,629.683664 L925.593208,661.123895 Z M880.690172,643.158049 L902.919398,643.158049 L902.919398,630.13281 C902.919398,625.791042 901.919093,622.534765 899.918453,620.363881 C897.917812,618.192997 895.213283,617.107572 891.804785,617.107572 C888.396287,617.107572 885.691758,618.192997 883.691118,620.363881 C881.690477,622.534765 880.690172,625.791042 880.690172,630.13281 L880.690172,643.158049 Z M948.711603,709.407107 L974.497505,642.259756 L974.052921,641.81061 C973.311943,642.409475 972.163444,642.896045 970.607391,643.270335 C969.051337,643.644626 967.013679,643.831768 964.494354,643.831768 C960.493073,643.831768 956.788239,642.858628 953.379741,640.912318 C949.971242,638.966008 947.303762,636.495729 945.377219,633.501406 C944.33985,632.004245 943.524787,630.394821 942.932005,628.673085 C942.339222,626.95135 941.894642,624.74307 941.598251,622.048179 C941.153664,619.353289 940.857278,615.947298 940.709082,611.830104 C940.560886,607.712911 940.48679,602.510353 940.48679,596.222275 C940.48679,590.982211 940.560886,586.677936 940.709082,583.309323 C940.857278,579.94071 941.153664,577.058718 941.598251,574.66326 C941.894642,572.417518 942.376271,570.471237 943.043151,568.82436 C943.710031,567.177482 944.562143,565.455772 945.599512,563.659179 C948.563423,558.718546 952.527596,554.900842 957.492148,552.205952 C962.456699,549.511061 968.050999,548.163636 974.275213,548.163636 C980.499427,548.163636 986.056678,549.54849 990.947132,552.318238 C995.837587,555.087987 999.764711,558.868263 1002.72862,563.659179 C1003.76599,565.455772 1004.65515,567.177482 1005.39613,568.82436 C1006.13711,570.471237 1006.72988,572.417518 1007.17447,574.66326 C1007.47086,577.058718 1007.69315,579.94071 1007.84134,583.309323 C1007.98954,586.677936 1008.06364,590.982211 1008.06364,596.222275 C1008.06364,601.162908 1007.98954,605.242611 1007.84134,608.461508 C1007.69315,611.680405 1007.47086,614.412683 1007.17447,616.658425 C1006.72988,619.053884 1006.24825,621.187306 1005.72957,623.058758 C1005.21088,624.93021 1004.58106,626.913919 1003.84008,629.009945 L974.052921,709.407107 L948.711603,709.407107 Z M963.1606,612.166964 C963.1606,615.610435 964.27205,618.380142 966.494984,620.476168 C968.717918,622.572194 971.311301,623.620191 974.275213,623.620191 C977.239125,623.620191 979.832508,622.572194 982.055442,620.476168 C984.278376,618.380142 985.389826,615.610435 985.389826,612.166964 L985.389826,582.523317 C985.389826,579.079846 984.278376,576.310139 982.055442,574.214114 C979.832508,572.118088 977.239125,571.07009 974.275213,571.07009 C971.311301,571.07009 968.717918,572.118088 966.494984,574.214114 C964.27205,576.310139 963.1606,579.079846 963.1606,582.523317 L963.1606,612.166964 Z" id="Dome9-Copy" fill="#484848"></path>
        </g>
    </g>
</svg>