<?xml version="1.0" encoding="UTF-8"?>
<svg width="110px" height="180px" viewBox="0 0 110 180" version="1.1" xmlns="http://www.w3.org/2000/svg" xmlns:xlink="http://www.w3.org/1999/xlink">
    <!-- Generator: Sketch 52.5 (67469) - http://www.bohemiancoding.com/sketch -->
    <title>Group 5</title>
    <desc>Created with Sketch.</desc>
    <defs>
        <linearGradient x1="74.0256933%" y1="15.8800481%" x2="8.72268887%" y2="87.9121208%" id="linearGradient-1">
            <stop stop-color="#E45784" offset="0%"></stop>
            <stop stop-color="#BF3C6B" offset="100%"></stop>
        </linearGradient>
    </defs>
    <g id="Page-1" stroke="none" stroke-width="1" fill="none" fill-rule="evenodd">
        <g id="Group-5">
            <path d="M1.3500312e-13,179.115086 L1.3500312e-13,74.1052533 L22.0441605,74.1052533 C30.608822,74.1052533 37.1052149,76.4650012 41.5335342,81.1845678 C45.9618534,85.9041345 48.1759799,92.5900869 48.1759799,101.242626 L48.1759799,150.35537 C48.1759799,160.187801 45.8158671,167.43911 41.0955707,172.109514 C36.3752743,176.779918 29.5869087,179.115086 20.7302701,179.115086 L1.3500312e-13,179.115086 Z M14.8907574,88.2638824 L14.8907574,164.956457 L21.7521849,164.956457 C25.9371899,164.956457 28.9055792,163.899486 30.6574417,161.785514 C32.4093043,159.671541 33.2852225,156.353146 33.2852225,151.830228 L33.2852225,101.242626 C33.2852225,97.1130049 32.4579664,93.9175129 30.8034296,91.6560539 C29.1488927,89.3945949 26.1318413,88.2638824 21.7521849,88.2638824 L14.8907574,88.2638824 Z M63.4506579,179.220339 L83.6743421,126.333152 L83.3256579,125.979392 C82.7445146,126.451075 81.8437561,126.834312 80.6233553,127.129113 C79.4029544,127.423915 77.8048344,127.571314 75.8289474,127.571314 C72.6907738,127.571314 69.7851011,126.804841 67.1118421,125.271871 C64.4385831,123.738901 62.3464988,121.793238 60.8355263,119.434824 C60.0219258,118.255616 59.3826778,116.987987 58.9177632,115.631899 C58.4528486,114.27581 58.1041678,112.536506 57.8717105,110.413932 C57.5230246,108.291359 57.2905708,105.608702 57.1743421,102.365882 C57.0581135,99.1230619 57,95.0253777 57,90.0727067 C57,85.9454808 57.0581135,82.5553105 57.1743421,79.9020939 C57.2905708,77.2488772 57.5230246,74.9789371 57.8717105,73.0922053 C58.1041678,71.3233942 58.4819053,69.7904476 59.0049342,68.4933195 C59.5279631,67.1961914 60.1962679,65.8401232 61.0098684,64.4250744 C63.3344414,60.53369 66.4435112,57.5267563 70.3371711,55.404183 C74.2308309,53.2816097 78.6183966,52.220339 83.5,52.220339 C88.3816034,52.220339 92.7401124,53.3110894 96.5756579,55.4926231 C100.411203,57.6741568 103.491216,60.6516107 105.815789,64.4250744 C106.62939,65.8401232 107.326751,67.1961914 107.907895,68.4933195 C108.489038,69.7904476 108.953946,71.3233942 109.302632,73.0922053 C109.535089,74.9789371 109.709429,77.2488772 109.825658,79.9020939 C109.941887,82.5553105 110,85.9454808 110,90.0727067 C110,93.964091 109.941887,97.1773829 109.825658,99.7126788 C109.709429,102.247975 109.535089,104.399996 109.302632,106.168807 C108.953946,108.055539 108.576208,109.735884 108.169408,111.209893 C107.762608,112.683903 107.268643,114.246329 106.6875,115.897219 L83.3256579,179.220339 L63.4506579,179.220339 Z M75,102.284442 C75,104.971065 75.899991,107.132012 77.7,108.767348 C79.500009,110.402683 81.599988,111.220339 84,111.220339 C86.400012,111.220339 88.499991,110.402683 90.3,108.767348 C92.100009,107.132012 93,104.971065 93,102.284442 L93,79.1562364 C93,76.4696133 92.100009,74.3086662 90.3,72.6733304 C88.499991,71.0379946 86.400012,70.220339 84,70.220339 C81.599988,70.220339 79.500009,71.0379946 77.7,72.6733304 C75.899991,74.3086662 75,76.4696133 75,79.1562364 L75,102.284442 Z" id="Dome9-Copy" fill="#484848"></path>
            <g id="Group-2-Copy-2" transform="translate(-0.000000, 0.000000)" fill="url(#linearGradient-1)">
                <path d="M91.1221724,25.7489788 C89.9418136,25.2579071 88.671693,24.9243769 87.4122152,24.6281105 C86.6698221,24.453413 86.4025446,24.1252325 86.2806531,23.4548514 C84.6356209,14.3964057 79.5826491,7.51974224 70.7084716,3.14344891 C67.5202177,1.5713555 64.0839639,0.680342698 60.4960989,0.268964114 C60.0713866,0.220447268 59.6577189,0.0916839264 59.23883,0 L55.2226382,0 C54.5698062,0.119355132 53.9201872,0.254575088 53.2639414,0.355298274 C41.5938919,2.14820789 33.6599049,8.14197541 29.426437,18.2736949 C29.1515287,18.9313473 28.8834479,19.2571296 28.0161512,19.2082438 C14.0396027,18.4209058 2.34625929,27.1889883 0.263462187,39.9782504 C0.199805545,40.3680454 0.0887578403,40.7513838 0,41.1378583 L0,45.1963018 C0.213862217,46.1830569 0.419290431,47.1711034 0.643193128,48.1558294 C2.87579419,57.9680388 11.9837141,65.6862758 22.794901,66.9263147 C28.8545313,67.6214154 34.5510978,66.3715993 40.0554896,64.1573494 C40.4171477,64.0117989 40.7354309,63.6672002 40.9543133,63.3463987 C48.1706069,52.766959 58.3448257,45.9318024 71.6482605,43.320932 C83.5265496,40.9897252 94.8353426,42.6420651 105.409173,48.2266677 C105.782076,48.4235022 106.159799,48.6133267 106.722467,48.902583 C106.722467,47.6140272 106.865042,46.4522055 106.699977,45.3283857 C105.362585,36.2271418 100.318047,29.575353 91.1221724,25.7489788 Z" id="Fill-1"></path>
            </g>
        </g>
    </g>
</svg>