<svg xmlns="http://www.w3.org/2000/svg" viewBox="0 0 309.87 78.68"><defs><style>.cls-1{fill:#fff;}.cls-2{fill:#58c3bb;}</style></defs><title>Asset 1</title><g id="Layer_2" data-name="Layer 2"><g id="Layer_1-2" data-name="Layer 1"><path class="cls-1" d="M182.1,23.8a15.74,15.74,0,1,0,15.74,15.74A15.74,15.74,0,0,0,182.1,23.8Zm-9.37,15.74a9.37,9.37,0,1,1,9.37,9.36A9.37,9.37,0,0,1,172.73,39.54Z"/><path class="cls-1" d="M226.36,23.75h0a11.24,11.24,0,0,0-8.48,3.5,11.28,11.28,0,0,0-8.49-3.5c-6.25,0-11,4.44-11,9.86V55.08h6.51V34.74c0-3.27,1.81-5.1,4.63-5.13,3.2.08,5,1.42,5.12,5.93V55.08h6.51V35.54c.09-4.51,1.91-5.85,5.12-5.93,2.81,0,4.58,1.86,4.63,5.13V55.08h6.5V33.61C237.37,28.19,232.61,23.76,226.36,23.75Z"/><path class="cls-1" d="M253.81,23.8a15.53,15.53,0,0,0-15.68,15.74,15.7,15.7,0,0,0,30.66,4.78l.08-.25H261.8l-.06.11a8.88,8.88,0,0,1-16.5-1.79h24l0-.17a16.6,16.6,0,0,0,.23-2.68A15.53,15.53,0,0,0,253.81,23.8Zm0,6.26a8.49,8.49,0,0,1,8.38,6H245.43A8.5,8.5,0,0,1,253.81,30.06Z"/><path class="cls-2" d="M309.87,36.44a19,19,0,1,0-20.94,18.88l6.29-8.56-.56.21a11.25,11.25,0,1,1,5.82-4.82l0,0-.17.24a11.77,11.77,0,0,1-.89,1.23l-19.9,27h10.62l12.65-17.9c1.06-1.5,2.83-4.14,3.74-5.59l.5-.8h0A18.84,18.84,0,0,0,309.87,36.44Z"/><path class="cls-1" d="M146.89,17.6c-.4,0-13.61,0-17.07.06v28h7.82V25.25l9.25,0a11.21,11.21,0,0,1,11.2,11.2,11.08,11.08,0,0,1-11.2,11.21c-.41,0-13.63,0-17.07,0v7.64h17.07a18.84,18.84,0,0,0,0-37.67Z"/><text/><path class="cls-1" d="M148.89,69.88l.37-.91a2.22,2.22,0,0,0,.69.34,2.39,2.39,0,0,0,.74.14,1.36,1.36,0,0,0,.93-.32,1.05,1.05,0,0,0,.35-.81,1.28,1.28,0,0,0-.2-.68,2.26,2.26,0,0,0-1-.68l-.58-.28a2.31,2.31,0,0,1-1-.82,2.11,2.11,0,0,1-.3-1.14,1.78,1.78,0,0,1,.58-1.35,2.05,2.05,0,0,1,1.47-.54,2.61,2.61,0,0,1,1.68.4l-.29.86a2.78,2.78,0,0,0-1.36-.41,1.1,1.1,0,0,0-.8.28,1,1,0,0,0-.29.74,1.23,1.23,0,0,0,.11.51,1,1,0,0,0,.29.38A4.14,4.14,0,0,0,151,66l.59.28a2.43,2.43,0,0,1,1,.84,2.35,2.35,0,0,1,.3,1.24,1.77,1.77,0,0,1-.66,1.39,2.59,2.59,0,0,1-1.76.57A2.88,2.88,0,0,1,148.89,69.88Z"/><path class="cls-1" d="M166.45,63.85v2h2.4v.84h-2.4v2.61h3.29v.89h-4.28V63h4.34v.89Z"/><path class="cls-1" d="M186.89,63.23l-.33.84a2.6,2.6,0,0,0-1.5-.34,1.77,1.77,0,0,0-1.53.82,3.57,3.57,0,0,0-.58,2.12,3.26,3.26,0,0,0,.59,2,1.87,1.87,0,0,0,1.53.77,1.84,1.84,0,0,0,1.57-.73l.54.76a3,3,0,0,1-2.21.86,2.69,2.69,0,0,1-2.24-1,4.74,4.74,0,0,1,.05-5.4A2.76,2.76,0,0,1,185,62.83,3.58,3.58,0,0,1,186.89,63.23Z"/><path class="cls-1" d="M199.69,63h1v5a1.46,1.46,0,0,0,1.53,1.53,1.57,1.57,0,0,0,1.16-.42,1.52,1.52,0,0,0,.42-1.13V63h1v5a2.18,2.18,0,0,1-.69,1.72,2.7,2.7,0,0,1-1.87.62,2.62,2.62,0,0,1-1.87-.61,2.22,2.22,0,0,1-.66-1.73Z"/><path class="cls-1" d="M221.65,70.21l-1.93-3.11c-.23,0-.58,0-1.05,0v3.16h-1V63l.77,0,1,0c1.74,0,2.61.7,2.61,2.08a2,2,0,0,1-.42,1.23,1.73,1.73,0,0,1-1,.69l2.11,3.33Zm-3-6.36v2.36a5.34,5.34,0,0,0,.69.05,2.31,2.31,0,0,0,1.3-.29,1.17,1.17,0,0,0,.4-1,.93.93,0,0,0-.43-.87,2.7,2.7,0,0,0-1.38-.27Z"/><path class="cls-1" d="M235.07,70.21V63h1v7.25Z"/><path class="cls-1" d="M251.72,63.85v6.36h-1V63.85h-2.31V63h5.71v.89Z"/><path class="cls-1" d="M269,67v3.25h-1V67l-2.34-4h1l1.81,3.17L270.29,63h1Z"/><path class="cls-2" d="M117.19,72.37c.25-.53.51-1.05.74-1.59a51,51,0,1,0-93.9,0c.23.54.49,1.06.74,1.59A171.35,171.35,0,0,0,0,78.68c19.14-4.13,43.9-6.63,71-6.63s51.84,2.5,71,6.63A171.69,171.69,0,0,0,117.19,72.37Zm1.16-26.57L116,40V35.2A47.09,47.09,0,0,1,118.35,45.8ZM114,30.4q.43.93.84,1.89v5l-2.94-7.11C112.71,30.23,113.41,30.31,114,30.4Zm-2.29-4.21L110.05,26A6.59,6.59,0,0,0,108,24a50.4,50.4,0,0,0-6.24-9.43A48.25,48.25,0,0,1,111.69,26.19ZM98.92,48.83a4.69,4.69,0,0,0-.67-1.12l4.37-7.83,7,8.72a1.69,1.69,0,0,0-.08.24Zm10.56,4.23-7,7.39-3.9-6.81c.1-.18.21-.37.3-.56Zm-8-14.6L97,46.56l-.14-.09A101.27,101.27,0,0,0,95,31.17a4.28,4.28,0,0,0,.33-.29ZM96.34,29.4q5.18.13,9.44.35c.1.15.2.3.31.44l-3.73,6.68Zm7.17,8.89,3.78-6.79a4.71,4.71,0,0,0,.45.33,59,59,0,0,1,3,15l-.17.18Zm-7-25,.24.12a46.33,46.33,0,0,1,7.7,10.68L95.91,17Zm7.19,12.38c-2.51-.12-5.22-.22-8.16-.3a6.38,6.38,0,0,0-.73-.9l.84-5.51ZM94.36,11.9l.55.41-.52,3.42-5-4.19C91.16,11.65,92.83,11.76,94.36,11.9ZM90.78,48.81H75.55a5.52,5.52,0,0,0-.71-1.07l7.63-8.27,8.61,8.77A3.86,3.86,0,0,0,90.78,48.81Zm.2,4.64-8.64,6.7-7.17-6.44a4.77,4.77,0,0,0,.36-.62H90.79C90.84,53.21,90.92,53.33,91,53.45ZM82.43,37,75,29.41a3.62,3.62,0,0,0,.2-.33c4.66,0,9.21.07,13.61.15a6.3,6.3,0,0,0,.37.53Zm-8-12.85,5.1-6.38L88.19,25c0,.06,0,.11-.07.17-4.22-.08-8.6-.13-13.07-.15A4.37,4.37,0,0,0,74.43,24.17Zm6.16-7.7L84,12.22a5.17,5.17,0,0,0,.85.42,54.65,54.65,0,0,1,4.39,10.92l-.07.06Zm8.62-2.86,4.88,4.07-.86,5.65a1.4,1.4,0,0,0-.17-.09A59.49,59.49,0,0,0,89.21,13.61ZM85.56,5.54a35,35,0,0,1,4.88,2.65L87,8a7.08,7.08,0,0,0-2.21-1.28A24.49,24.49,0,0,0,83,4.83C83.84,5.05,84.71,5.26,85.56,5.54Zm-6.27,9.85L74.14,11.1c2.88,0,5.71.08,8.45.17Zm-5-7.74,1.47-2.06L80,7.75C78.09,7.7,76.2,7.67,74.28,7.65ZM77,3.89a14.94,14.94,0,0,1,3.84,3L76.41,4.66Zm-1.12-.38-.44.63-1.51-.77C74.54,3.4,75.2,3.45,75.84,3.51Zm-1.1,1.56-1.45,2a3.59,3.59,0,0,0-.6-.42c0-1-.07-1.93-.11-2.72Zm-4,2.73a1.41,1.41,0,1,1-1.48,1.4A1.44,1.44,0,0,1,70.76,7.8ZM67.3,3.41l-.83.47-.32-.37Zm.91,4.22s0,0,0,0c-2.19,0-4.33,0-6.43.1L66.21,5.3ZM65,3.89l.47.54-4,2.24A14.9,14.9,0,0,1,65,3.89Zm-5.75,7.37c2.57-.07,5.24-.12,7.94-.15l-5.05,4.23-3-3.95Zm7.25,37.55H51.26a6.59,6.59,0,0,0-.49-.86l8.43-8.36,7.7,8.52A5.35,5.35,0,0,0,66.49,48.81Zm.38,4.9-7.15,6.21L51.1,53.35l.15-.27H66.51A4.77,4.77,0,0,0,66.87,53.71ZM49,23l-1.42-5.7,5.64-4.55A57.05,57.05,0,0,0,49,23Zm8.13-10.35a4.91,4.91,0,0,0,.62-.28l3.1,4-7.94,6.65A53.43,53.43,0,0,1,57.11,12.66ZM51.47,31.05l6.6,7.29-8.49,8.41c-.13-.09-.25-.18-.39-.26a103.8,103.8,0,0,1,1.69-15.1C51.08,31.29,51.28,31.17,51.47,31.05Zm1.27-1.11a5.24,5.24,0,0,0,.53-.71c4.4-.08,8.95-.13,13.61-.15a2.63,2.63,0,0,0,.2.33l-7.81,7.74ZM67,25c-4.47,0-8.84.07-13.08.15a3,3,0,0,0-.24-.55l8.21-6.87,5.33,6.93A4,4,0,0,0,67,25ZM56.4,5.54c.85-.28,1.73-.49,2.6-.71a23.27,23.27,0,0,0-1.8,1.9A6.78,6.78,0,0,0,55.05,8l-3.53.2A34,34,0,0,1,56.4,5.54Zm-8.77,6.35c1.35-.12,2.8-.22,4.34-.31L47.1,15.51l-.68-2.75C46.82,12.5,47.23,12.21,47.63,11.89Zm-.1,12.29a6,6,0,0,0-1,1.17c-3.26.09-6.27.2-9,.34a1.6,1.6,0,0,0,0-.23l8.63-7ZM38.31,38.51l-7,8.4-.09-.11a59.52,59.52,0,0,1,2.95-14.95,4.37,4.37,0,0,0,.44-.31Zm-2.43-8.26.34-.5c2.86-.15,6-.26,9.52-.35a1,1,0,0,1,0,.1l-6.31,7.6ZM43.1,48.83H32.44c0-.15-.09-.29-.14-.43l6.86-8.28,4.25,8.11A5.49,5.49,0,0,0,43.1,48.83Zm.14,4.48L39,60.56,32.28,53.5c0-.14.11-.29.15-.44l10.69,0ZM40.32,38.72,46.75,31l.19.16a98.73,98.73,0,0,0-1.79,15.38,3.53,3.53,0,0,0-.55.37Zm5.34-22-7.22,5.83a45.13,45.13,0,0,1,6.49-8.76Zm-5.4-2.19A49.75,49.75,0,0,0,34,24,6.55,6.55,0,0,0,32,26l-1.68.15A47.7,47.7,0,0,1,40.26,14.49ZM28.54,30.32,30,30.17,28.44,33.9Zm-.18,6.78,2.45-6a2,2,0,0,0,.08.22,59.88,59.88,0,0,0-2.68,11.46Zm2,13.73c0,.93-.44,1.69-1,1.69s-1-.76-1-1.69.44-1.69,1-1.69S30.36,49.9,30.36,50.83Zm-3-19.07-.13,5.11-3.63,9A47.58,47.58,0,0,1,27.37,31.76ZM23.5,55l2.8,6.69.39,6.82A47.38,47.38,0,0,1,23.5,55Zm.41-2h1.9l.3,5.27Zm2.69-4.19h-3l3.55-8.78L27,48A5.31,5.31,0,0,0,26.6,48.85ZM27,54a3.61,3.61,0,0,0,.81,1.08,61.37,61.37,0,0,0,2.09,12.27l-2.48-5.91Zm1,17.48-.37-6.67,2.8,6.61-1.35.21C28.67,71.58,28.31,71.54,28,71.48Zm3.27-16.41s.06-.07.1-.1l6.77,7.1L34,69.21A59.26,59.26,0,0,1,31.25,55.07Zm3.84,15.67L35,70.68l4.29-7.34,6,6.23C41.81,69.9,38.42,70.29,35.09,70.74Zm5.13-8.91,4.12-7.06a4.31,4.31,0,0,0,.81.59,101.44,101.44,0,0,0,1.38,13.08ZM47,52.52a1.75,1.75,0,1,1,1.29-1.69A1.54,1.54,0,0,1,47,52.52Zm1-25.54c.09-.93.74-1.62,1.45-1.55a1.53,1.53,0,0,1,1.12,1.81c-.1.93-.75,1.62-1.46,1.55A1.52,1.52,0,0,1,47.93,27Zm1.26,28.39a4.22,4.22,0,0,0,.9-.67l8.33,6.35-8,6.92A105,105,0,0,1,49.19,55.37Zm2.6,13.68,8-7,8.31,6.33C62.54,68.48,57.09,68.68,51.79,69.05ZM61.09,61l7-6a5.1,5.1,0,0,0,.8.5q0,5.85,0,11.46Zm7.75-14.53a5.3,5.3,0,0,0-.76.46L60.4,38.41l7.81-7.74a3.92,3.92,0,0,0,.7.44C68.87,36.05,68.85,41.18,68.84,46.43ZM69,23.08a4.12,4.12,0,0,0-.61.37l-5.21-6.77,5.65-4.74a2.6,2.6,0,0,0,.33.25C69.07,15.45,69,19.09,69,23.08ZM69,6.87,67.21,4.75,69.4,3.54c-.05.89-.09,1.92-.13,3.17C69.19,6.75,69.12,6.82,69,6.87Zm2,45.65a1.69,1.69,0,1,1,1.77-1.69A1.73,1.73,0,0,1,71.06,52.52Zm0-23.91a1.69,1.69,0,1,1,1.77-1.69A1.73,1.73,0,0,1,71.06,28.61Zm1.76-16.39h0l5.4,4.5L73.1,23.13,73,23.06C72.94,19.09,72.89,15.47,72.82,12.22Zm1,18.45,7.46,7.59-7.73,8.38c-.14-.08-.28-.18-.43-.25,0-5.21,0-10.32-.07-15.24A4.33,4.33,0,0,0,73.82,30.67Zm-.7,24.81a4.65,4.65,0,0,0,.88-.55l7,6.27-7.91,6.13C73.1,63.47,73.11,59.51,73.12,55.48Zm1.3,12.94,7.85-6.08L89.71,69C84.73,68.69,79.62,68.49,74.42,68.42Zm17-.1-7.84-7,8.4-6.5a4.46,4.46,0,0,0,.75.54A105,105,0,0,1,91.46,68.32Zm.71-21.38-8.55-8.71,6.74-7.31a4.11,4.11,0,0,0,.73.43,104.75,104.75,0,0,1,1.68,15.18A4.89,4.89,0,0,0,92.17,46.94Zm.34-18.17c-.7.13-1.41-.51-1.58-1.42a1.53,1.53,0,0,1,1-1.9c.7-.13,1.41.51,1.58,1.42A1.53,1.53,0,0,1,92.51,28.77Zm2.13,23.75a1.75,1.75,0,1,1,1.29-1.69A1.53,1.53,0,0,1,94.64,52.52Zm2.18,2.88a5.11,5.11,0,0,0,.62-.41l3.86,6.74-5.75,6.08A104.28,104.28,0,0,0,96.82,55.4Zm-.58,14.13,5.93-6.27,4.25,7.42Q101.44,70,96.24,69.53Zm11.6.23L103.38,62l7-7.36a4.72,4.72,0,0,0,.37.41A59.61,59.61,0,0,1,107.84,69.76Zm3.28-38.53,3.71,9v7.35a3.76,3.76,0,0,0-.67-.82,60.71,60.71,0,0,0-3.08-15.43S111.1,31.26,111.12,31.23Zm2.5,19.6c0,.93-.44,1.69-1,1.69s-1-.76-1-1.69.44-1.69,1-1.69S113.62,49.9,113.62,50.83Zm.67,20c-.11.22-.2.45-.31.67q-.48.09-1.08.15l-1.53-.24s0-.07,0-.11l3.21-7.74Zm.4-10.5-2.1,5.06a63,63,0,0,0,1.57-10.25,3.45,3.45,0,0,0,.76-.94ZM116,48.85V43l2.43,5.91H116ZM117.7,53l-1.77,4.28.16-4.27Zm-1.9,7.51L118.53,54a47.69,47.69,0,0,1-3,13.87Z"/></g></g></svg>