<?xml version="1.0" encoding="UTF-8" standalone="no"?>
<!-- Generator: Adobe Illustrator 19.1.0, SVG Export Plug-In . SVG Version: 6.00 Build 0)  -->

<svg
   xmlns:dc="http://purl.org/dc/elements/1.1/"
   xmlns:cc="http://creativecommons.org/ns#"
   xmlns:rdf="http://www.w3.org/1999/02/22-rdf-syntax-ns#"
   xmlns:svg="http://www.w3.org/2000/svg"
   xmlns="http://www.w3.org/2000/svg"
   xmlns:sodipodi="http://sodipodi.sourceforge.net/DTD/sodipodi-0.dtd"
   xmlns:inkscape="http://www.inkscape.org/namespaces/inkscape"
   version="1.1"
   id="Layer_1"
   x="0px"
   y="0px"
   width="70"
   height="70"
   viewBox="0 0 70 70"
   xml:space="preserve"
   inkscape:version="0.91 r13725"
   sodipodi:docname="General_EC2_Classic.svg"><metadata
     id="metadata19"><rdf:RDF><cc:Work
         rdf:about=""><dc:format>image/svg+xml</dc:format><dc:type
           rdf:resource="http://purl.org/dc/dcmitype/StillImage" /><dc:title></dc:title></cc:Work></rdf:RDF></metadata><defs
     id="defs17" /><sodipodi:namedview
     pagecolor="#ffffff"
     bordercolor="#666666"
     borderopacity="1"
     objecttolerance="10"
     gridtolerance="10"
     guidetolerance="10"
     inkscape:pageopacity="0"
     inkscape:pageshadow="2"
     inkscape:window-width="1920"
     inkscape:window-height="1057"
     id="namedview15"
     showgrid="false"
     inkscape:zoom="6.675088"
     inkscape:cx="98.305824"
     inkscape:cy="61.501541"
     inkscape:window-x="1912"
     inkscape:window-y="-8"
     inkscape:window-maximized="1"
     inkscape:current-layer="Layer_1" /><style
     type="text/css"
     id="style3">
	.st0{fill:#9D5125;}
	.st1{fill:#F58535;}
	.st2{fill:#4F4F4F;}
	.st3{fill:#7D7C7C;}
	.st4{clip-path:url(#SVGID_2_);fill:#4F4F4F;}
	.st5{fill:#FFFFFF;}
	.st6{fill:none;}
	.st7{fill:#D2D3D3;}
	.st8{clip-path:url(#SVGID_4_);fill:#4F4F4F;}
	.st9{fill:none;stroke:#FFFFFF;stroke-miterlimit:10;}
</style><path
     class="st1"
     d="m 27.261077,18.9 c 7.154828,0 13.329544,4.311686 16.073861,10.628807 1.470171,-1.002717 3.136363,-1.604349 5.096591,-1.604349 4.900567,0 8.821022,3.910599 8.919033,8.823917 C 64.309368,37.350005 69.7,44.168486 69.7,49.683433 l 0,1.203261 c 0,5.916035 -6.272734,11.832069 -14.01563,11.832069 l -41.066758,0 C 6.8747159,62.718763 0.7,56.802729 0.7,50.886694 l 0,-1.203261 c 0,-4.51223 3.7244318,-10.72908 8.9190321,-12.233156 0,-0.200543 0,-0.300814 0,-0.501358 C 9.6190321,26.921741 17.459941,18.9 27.261077,18.9 Z"
     id="path7"
     style="fill:#e26835;fill-opacity:1"
     inkscape:connector-curvature="0" /><path
     d="m 27.82043,41.047752 c -0.0085,0.123354 -0.01215,0.20381 -0.02105,0.336023 0.0812,-0.112447 0.162886,-0.224916 0.246942,-0.336023 l -0.225887,0 z"
     id="path9"
     inkscape:connector-curvature="0" /><text
     xml:space="preserve"
     style="font-style:normal;font-variant:normal;font-weight:bold;font-stretch:normal;font-size:13.85337639px;line-height:125%;font-family:Verdana;-inkscape-font-specification:'Verdana, Bold';text-align:start;letter-spacing:0px;word-spacing:0px;writing-mode:lr-tb;text-anchor:start;fill:#fffffd;fill-opacity:1;stroke:none;stroke-width:1px;stroke-linecap:butt;stroke-linejoin:miter;stroke-opacity:1"
     x="12.438659"
     y="42.598587"
     id="text4667"
     sodipodi:linespacing="125%"
     transform="scale(0.76026302,1.3153343)"><tspan
       sodipodi:role="line"
       id="tspan4669"
       x="12.438659"
       y="42.598587">CLASSIC</tspan></text>
</svg>