<?xml version="1.0" encoding="UTF-8" standalone="no"?>
<!-- Generator: Adobe Illustrator 19.1.0, SVG Export Plug-In . SVG Version: 6.00 Build 0)  -->

<svg
   xmlns:dc="http://purl.org/dc/elements/1.1/"
   xmlns:cc="http://creativecommons.org/ns#"
   xmlns:rdf="http://www.w3.org/1999/02/22-rdf-syntax-ns#"
   xmlns:svg="http://www.w3.org/2000/svg"
   xmlns="http://www.w3.org/2000/svg"
   xmlns:sodipodi="http://sodipodi.sourceforge.net/DTD/sodipodi-0.dtd"
   xmlns:inkscape="http://www.inkscape.org/namespaces/inkscape"
   version="1.1"
   id="Layer_1"
   x="0px"
   y="0px"
   width="70"
   height="70"
   viewBox="0 0 70 70"
   xml:space="preserve"
   inkscape:version="0.91 r13725"
   sodipodi:docname="General_virtualprivatecloud.svg"><metadata
     id="metadata19"><rdf:RDF><cc:Work
         rdf:about=""><dc:format>image/svg+xml</dc:format><dc:type
           rdf:resource="http://purl.org/dc/dcmitype/StillImage" /><dc:title></dc:title></cc:Work></rdf:RDF></metadata><defs
     id="defs17" /><sodipodi:namedview
     pagecolor="#ffffff"
     bordercolor="#666666"
     borderopacity="1"
     objecttolerance="10"
     gridtolerance="10"
     guidetolerance="10"
     inkscape:pageopacity="0"
     inkscape:pageshadow="2"
     inkscape:window-width="1920"
     inkscape:window-height="1017"
     id="namedview15"
     showgrid="false"
     inkscape:zoom="13.350176"
     inkscape:cx="47.725549"
     inkscape:cy="32.15359"
     inkscape:window-x="-8"
     inkscape:window-y="-8"
     inkscape:window-maximized="1"
     inkscape:current-layer="Layer_1" /><style
     type="text/css"
     id="style3">
	.st0{fill:#9D5125;}
	.st1{fill:#F58535;}
	.st2{fill:#4F4F4F;}
	.st3{fill:#7D7C7C;}
	.st4{clip-path:url(#SVGID_2_);fill:#4F4F4F;}
	.st5{fill:#FFFFFF;}
	.st6{fill:none;}
	.st7{fill:#D2D3D3;}
	.st8{clip-path:url(#SVGID_4_);fill:#4F4F4F;}
	.st9{fill:none;stroke:#FFFFFF;stroke-miterlimit:10;}
</style><path
     class="st1"
     d="m 27.26108,18.9 c 7.154829,0 13.329545,4.536156 16.073863,11.182151 1.470171,-1.05492 3.136364,-1.687872 5.096591,-1.687872 4.900568,0 8.821023,4.114188 8.919034,9.283295 C 64.309375,38.310526 69.7,45.483982 69.7,51.286041 l 0,1.265904 C 69.7,58.775973 63.427273,65 55.684375,65 L 14.617614,65 C 6.8747159,65 0.7,58.775973 0.7,52.551945 l 0,-1.265904 c 0,-4.747139 3.7244318,-11.287643 8.9190341,-12.870023 0,-0.210984 0,-0.316476 0,-0.52746 C 9.6190341,27.339359 17.459943,18.9 27.26108,18.9 Z"
     id="path7"
     inkscape:connector-curvature="0"
     style="fill:#f58535" /><path
     class="st5"
     d="m 17.7,40.525858 2.8,0 2.8,13.924943 0,0 3,-13.924943 2.8,0 -4.2,17.406179 -3.3,0 -3.9,-17.406179 z"
     id="path9"
     inkscape:connector-curvature="0"
     style="fill:#ffffff" /><path
     class="st5"
     d="m 30.8,40.525858 5.2,0 c 3.2,0 4.5,2.10984 4.5,5.063616 0,3.164759 -1.7,5.169107 -4.8,5.169107 l -2.3,0 0,7.173456 -2.6,0 0,-17.406179 z m 2.6,8.122883 1.9,0 c 1.4,0 2.6,-0.843936 2.6,-2.953775 0,-1.898856 -0.7,-3.059268 -2.8,-3.059268 l -1.7,0 0,6.013043 z"
     id="path11"
     inkscape:connector-curvature="0"
     style="fill:#ffffff" /><path
     class="st5"
     d="m 52.9,51.708009 0,0.316476 c 0,3.16476 -1.2,6.224028 -5.1,6.224028 -4.2,0 -5.4,-2.848284 -5.4,-9.072312 0,-6.224027 1.3,-9.072311 5.5,-9.072311 4.7,0 5,3.69222 5,5.485584 l 0,0.421968 -2.6,0 0,-0.316476 c 0,-1.58238 -0.5,-3.481236 -2.4,-3.375744 -1.9,0 -2.8,1.265904 -2.8,6.856979 0,5.591076 0.9,6.962472 2.8,6.962472 2.2,0 2.4,-2.531808 2.4,-4.21968 l 0,-0.316476 2.6,0 z"
     id="path13"
     inkscape:connector-curvature="0"
     style="fill:#ffffff" /></svg>