<?xml version="1.0" encoding="utf-8"?>
<!-- Generator: Adobe Illustrator 25.3.1, SVG Export Plug-In . SVG Version: 6.00 Build 0)  -->
<svg version="1.1" id="Layer_1" xmlns="http://www.w3.org/2000/svg" xmlns:xlink="http://www.w3.org/1999/xlink" x="0px" y="0px"
	 width="32px" height="32px" viewBox="0 0 32 32" style="enable-background:new 0 0 32 32;" xml:space="preserve">
<style type="text/css">
	.st0{fill:#ffffff;}
</style>
<g>
	<path class="st0" d="M30.5,4.5c-8.4,0.1-12.4,2-13.9,3C16.3,5.7,15,2,9.2,0C9.1,0,9,0,8.9,0C8.3,0,7.8,0.5,7.8,1.2V5
		C5.8,4.7,3.9,4.5,1.9,4.5C1.3,4.5,0.7,5,0.8,5.7v21.7c0,0.6,0.5,1.2,1.2,1.2c9.8,0.1,13.2,3.3,14.1,3.4c0.1,0,0.5,0.1,0.8-0.1
		c0.8-0.7,1.8-1.3,2.8-1.7c0.3-0.1,0.4-0.4,0.3-0.6c-0.1-0.3-0.4-0.4-0.6-0.3c-0.9,0.3-1.8,0.8-2.6,1.4V8.7
		c0.7-0.6,4.2-3.1,13.8-3.2c0.1,0,0.2,0.1,0.2,0.2v14.8c0,0.3,0.2,0.5,0.5,0.5s0.5-0.2,0.5-0.5V5.7C31.7,5,31.2,4.5,30.5,4.5z
		 M1.9,27.6c-0.1,0-0.2-0.1-0.2-0.2V5.7c0-0.1,0.1-0.2,0.2-0.2c1.9,0,3.9,0.2,5.8,0.5v16.8c0,0.2,0.2,0.5,0.4,0.5
		c3.5,0.4,6.4,3.4,7.3,7.1C13.8,29.4,9.7,27.7,1.9,27.6z M15.8,28.1c-1.4-3-4-5.2-7-5.7V1.2C8.8,1.1,8.8,1,9,1
		c6.6,2.2,6.8,7,6.8,7.5V28.1z"/>
</g>
<g>
	<path class="st0" d="M26,20c-3.3,0-6,2.7-6,6s2.7,6,6,6s6-2.7,6-6S29.3,20,26,20z M29.2,24.2l-3.8,4.5c-0.1,0.2-0.4,0.3-0.6,0.3
		l0,0c-0.2,0-0.5-0.1-0.6-0.3l-1.5-2.3c-0.2-0.4-0.1-0.8,0.3-1c0.3-0.2,0.7-0.1,0.9,0.2l0.9,1.4l3.1-3.8c0.3-0.3,0.7-0.4,1.1-0.1
		C29.4,23.4,29.5,23.9,29.2,24.2L29.2,24.2z"/>
</g>
</svg>
