<svg id="svg" version="1.1" xmlns="http://www.w3.org/2000/svg" xmlns:xlink="http://www.w3.org/1999/xlink" width="400" height="400" viewBox="0, 0, 400,400"><g id="svgg"><path id="path0" d="M170.800 50.000 C 170.800 50.220,170.522 50.400,170.182 50.400 C 169.382 50.400,167.600 52.182,167.600 52.982 C 167.600 53.322,167.420 53.600,167.200 53.600 C 166.980 53.600,166.800 53.960,166.800 54.400 C 166.800 54.840,166.620 55.200,166.400 55.200 C 166.138 55.200,166.000 62.867,166.000 77.400 L 166.000 99.600 118.400 99.600 C 86.933 99.600,70.800 99.736,70.800 100.000 C 70.800 100.220,70.522 100.400,70.182 100.400 C 69.382 100.400,67.600 102.182,67.600 102.982 C 67.600 103.322,67.420 103.600,67.200 103.600 C 66.980 103.600,66.800 103.960,66.800 104.400 C 66.800 104.840,66.620 105.200,66.400 105.200 C 66.138 105.200,66.000 112.867,66.000 127.400 L 66.000 149.600 43.400 149.600 C 28.600 149.600,20.800 149.738,20.800 150.000 C 20.800 150.220,20.522 150.400,20.182 150.400 C 19.382 150.400,17.600 152.182,17.600 152.982 C 17.600 153.322,17.420 153.600,17.200 153.600 C 16.980 153.600,16.800 153.960,16.800 154.400 C 16.800 154.840,16.620 155.200,16.400 155.200 C 16.138 155.200,16.000 162.867,16.000 177.400 L 16.000 199.600 10.200 199.600 C 6.600 199.600,4.400 199.752,4.400 200.000 C 4.400 200.220,4.124 200.400,3.787 200.400 C 3.449 200.400,2.504 201.070,1.687 201.889 L 0.200 203.378 0.239 219.369 C 0.267 231.054,0.402 235.401,0.739 235.513 C 1.032 235.611,1.200 236.749,1.200 238.633 C 1.200 240.344,1.369 241.600,1.600 241.600 C 1.822 241.600,2.000 242.667,2.000 244.000 C 2.000 245.333,2.178 246.400,2.400 246.400 C 2.620 246.400,2.800 247.300,2.800 248.400 C 2.800 249.500,2.980 250.400,3.200 250.400 C 3.420 250.400,3.600 251.300,3.600 252.400 C 3.600 253.500,3.780 254.400,4.000 254.400 C 4.220 254.400,4.400 255.120,4.400 256.000 C 4.400 256.880,4.580 257.600,4.800 257.600 C 5.020 257.600,5.200 258.230,5.200 259.000 C 5.200 259.770,5.380 260.400,5.600 260.400 C 5.820 260.400,6.000 261.120,6.000 262.000 C 6.000 262.880,6.180 263.600,6.400 263.600 C 6.620 263.600,6.800 264.140,6.800 264.800 C 6.800 265.460,6.980 266.000,7.200 266.000 C 7.420 266.000,7.600 266.540,7.600 267.200 C 7.600 267.860,7.759 268.400,7.954 268.400 C 8.149 268.400,8.431 269.387,8.582 270.594 C 8.733 271.800,9.023 272.891,9.228 273.017 C 9.433 273.144,9.600 273.687,9.600 274.224 C 9.600 274.761,9.780 275.200,10.000 275.200 C 10.220 275.200,10.400 275.560,10.400 276.000 C 10.400 276.440,10.580 276.800,10.800 276.800 C 11.020 276.800,11.200 277.340,11.200 278.000 C 11.200 278.660,11.380 279.200,11.600 279.200 C 11.820 279.200,12.000 279.560,12.000 280.000 C 12.000 280.440,12.180 280.800,12.400 280.800 C 12.620 280.800,12.800 281.160,12.800 281.600 C 12.800 282.040,12.980 282.400,13.200 282.400 C 13.420 282.400,13.600 282.760,13.600 283.200 C 13.600 283.640,13.780 284.000,14.000 284.000 C 14.220 284.000,14.400 284.360,14.400 284.800 C 14.400 285.240,14.580 285.600,14.800 285.600 C 15.020 285.600,15.200 285.960,15.200 286.400 C 15.200 286.840,15.380 287.200,15.600 287.200 C 15.820 287.200,16.000 287.560,16.000 288.000 C 16.000 288.440,16.180 288.800,16.400 288.800 C 16.620 288.800,16.800 289.160,16.800 289.600 C 16.800 290.040,16.980 290.400,17.200 290.400 C 17.420 290.400,17.600 290.670,17.600 291.000 C 17.600 291.330,17.780 291.600,18.000 291.600 C 18.220 291.600,18.400 291.920,18.400 292.312 C 18.400 292.703,18.760 293.283,19.200 293.600 C 19.640 293.917,20.000 294.497,20.000 294.888 C 20.000 295.280,20.180 295.600,20.400 295.600 C 20.620 295.600,20.800 295.920,20.800 296.312 C 20.800 296.703,21.160 297.283,21.600 297.600 C 22.040 297.917,22.400 298.409,22.400 298.692 C 22.400 298.975,22.940 299.772,23.600 300.463 C 24.260 301.154,24.800 301.940,24.800 302.210 C 24.800 302.481,25.070 302.926,25.400 303.200 C 25.730 303.474,26.000 303.943,26.000 304.243 C 26.000 304.542,26.855 305.697,27.900 306.809 C 31.909 311.073,42.348 321.600,42.568 321.600 C 42.695 321.600,43.541 322.320,44.448 323.200 C 45.355 324.080,46.337 324.800,46.630 324.800 C 46.924 324.800,47.614 325.250,48.164 325.800 C 48.714 326.350,49.402 326.800,49.694 326.800 C 49.985 326.800,50.483 327.160,50.800 327.600 C 51.117 328.040,51.657 328.400,52.000 328.400 C 52.343 328.400,52.883 328.760,53.200 329.200 C 53.517 329.640,54.057 330.000,54.400 330.000 C 54.743 330.000,55.283 330.360,55.600 330.800 C 55.917 331.240,56.497 331.600,56.888 331.600 C 57.280 331.600,57.600 331.780,57.600 332.000 C 57.600 332.220,57.870 332.400,58.200 332.400 C 58.530 332.400,58.800 332.580,58.800 332.800 C 58.800 333.020,59.120 333.200,59.512 333.200 C 59.903 333.200,60.483 333.560,60.800 334.000 C 61.117 334.440,61.697 334.800,62.088 334.800 C 62.480 334.800,62.800 334.980,62.800 335.200 C 62.800 335.420,63.160 335.600,63.600 335.600 C 64.040 335.600,64.400 335.780,64.400 336.000 C 64.400 336.220,64.760 336.400,65.200 336.400 C 65.640 336.400,66.000 336.580,66.000 336.800 C 66.000 337.020,66.439 337.200,66.976 337.200 C 67.513 337.200,68.064 337.380,68.200 337.600 C 68.336 337.820,68.797 338.000,69.224 338.000 C 69.651 338.000,70.000 338.180,70.000 338.400 C 70.000 338.620,70.360 338.800,70.800 338.800 C 71.240 338.800,71.600 338.980,71.600 339.200 C 71.600 339.420,71.960 339.600,72.400 339.600 C 72.840 339.600,73.200 339.780,73.200 340.000 C 73.200 340.220,73.639 340.400,74.176 340.400 C 74.713 340.400,75.251 340.559,75.371 340.754 C 75.492 340.948,76.402 341.229,77.395 341.378 C 78.388 341.527,79.200 341.818,79.200 342.025 C 79.200 342.231,79.740 342.400,80.400 342.400 C 81.060 342.400,81.600 342.580,81.600 342.800 C 81.600 343.020,82.140 343.200,82.800 343.200 C 83.460 343.200,84.000 343.380,84.000 343.600 C 84.000 343.820,84.720 344.000,85.600 344.000 C 86.480 344.000,87.200 344.180,87.200 344.400 C 87.200 344.620,87.740 344.800,88.400 344.800 C 89.060 344.800,89.600 344.980,89.600 345.200 C 89.600 345.420,90.230 345.600,91.000 345.600 C 91.770 345.600,92.400 345.780,92.400 346.000 C 92.400 346.220,93.300 346.400,94.400 346.400 C 95.500 346.400,96.400 346.580,96.400 346.800 C 96.400 347.020,97.109 347.200,97.976 347.200 C 98.843 347.200,99.664 347.380,99.800 347.600 C 99.936 347.820,101.027 348.000,102.224 348.000 C 103.421 348.000,104.400 348.180,104.400 348.400 C 104.400 348.626,105.533 348.800,107.000 348.800 C 108.467 348.800,109.600 348.974,109.600 349.200 C 109.600 349.435,110.992 349.600,112.976 349.600 C 114.833 349.600,116.464 349.780,116.600 350.000 C 116.940 350.550,153.600 350.550,153.600 350.000 C 153.600 349.761,155.133 349.600,157.400 349.600 C 159.667 349.600,161.200 349.439,161.200 349.200 C 161.200 348.967,162.533 348.800,164.400 348.800 C 166.267 348.800,167.600 348.633,167.600 348.400 C 167.600 348.171,168.800 348.000,170.400 348.000 C 172.000 348.000,173.200 347.829,173.200 347.600 C 173.200 347.380,174.089 347.200,175.176 347.200 C 176.263 347.200,177.264 347.020,177.400 346.800 C 177.536 346.580,178.537 346.400,179.624 346.400 C 180.711 346.400,181.600 346.220,181.600 346.000 C 181.600 345.780,182.410 345.600,183.400 345.600 C 184.390 345.600,185.200 345.420,185.200 345.200 C 185.200 344.980,186.010 344.800,187.000 344.800 C 187.990 344.800,188.800 344.620,188.800 344.400 C 188.800 344.180,189.430 344.000,190.200 344.000 C 190.970 344.000,191.600 343.820,191.600 343.600 C 191.600 343.380,192.320 343.200,193.200 343.200 C 194.080 343.200,194.800 343.020,194.800 342.800 C 194.800 342.580,195.520 342.400,196.400 342.400 C 197.280 342.400,198.000 342.231,198.000 342.024 C 198.000 341.818,199.260 341.524,200.800 341.373 C 202.340 341.221,203.600 340.940,203.600 340.748 C 203.600 340.557,204.140 340.400,204.800 340.400 C 205.460 340.400,206.000 340.220,206.000 340.000 C 206.000 339.780,206.540 339.600,207.200 339.600 C 207.860 339.600,208.400 339.420,208.400 339.200 C 208.400 338.980,208.850 338.800,209.400 338.800 C 209.950 338.800,210.400 338.620,210.400 338.400 C 210.400 338.180,210.940 338.000,211.600 338.000 C 212.260 338.000,212.800 337.820,212.800 337.600 C 212.800 337.380,213.340 337.200,214.000 337.200 C 214.660 337.200,215.200 337.020,215.200 336.800 C 215.200 336.580,215.740 336.400,216.400 336.400 C 217.060 336.400,217.600 336.220,217.600 336.000 C 217.600 335.780,217.960 335.600,218.400 335.600 C 218.840 335.600,219.200 335.420,219.200 335.200 C 219.200 334.980,219.740 334.800,220.400 334.800 C 221.060 334.800,221.600 334.620,221.600 334.400 C 221.600 334.180,221.960 334.000,222.400 334.000 C 222.840 334.000,223.200 333.820,223.200 333.600 C 223.200 333.380,223.650 333.200,224.200 333.200 C 224.750 333.200,225.200 333.020,225.200 332.800 C 225.200 332.580,225.560 332.400,226.000 332.400 C 226.440 332.400,226.800 332.220,226.800 332.000 C 226.800 331.780,227.340 331.600,228.000 331.600 C 228.660 331.600,229.200 331.420,229.200 331.200 C 229.200 330.980,229.560 330.800,230.000 330.800 C 230.440 330.800,230.800 330.620,230.800 330.400 C 230.800 330.180,231.160 330.000,231.600 330.000 C 232.040 330.000,232.400 329.820,232.400 329.600 C 232.400 329.380,232.760 329.200,233.200 329.200 C 233.640 329.200,234.000 329.020,234.000 328.800 C 234.000 328.580,234.450 328.400,235.000 328.400 C 235.550 328.400,236.000 328.220,236.000 328.000 C 236.000 327.780,236.450 327.600,237.000 327.600 C 237.550 327.600,238.000 327.420,238.000 327.200 C 238.000 326.980,238.360 326.800,238.800 326.800 C 239.240 326.800,239.600 326.620,239.600 326.400 C 239.600 326.180,239.960 326.000,240.400 326.000 C 240.840 326.000,241.200 325.828,241.200 325.618 C 241.200 325.408,241.830 325.118,242.600 324.974 C 243.370 324.829,244.000 324.551,244.000 324.355 C 244.000 324.160,244.360 324.000,244.800 324.000 C 245.240 324.000,245.600 323.842,245.600 323.649 C 245.600 323.455,246.140 323.073,246.800 322.800 C 247.460 322.527,248.000 322.145,248.000 321.951 C 248.000 321.758,248.360 321.600,248.800 321.600 C 249.240 321.600,249.600 321.420,249.600 321.200 C 249.600 320.980,249.960 320.800,250.400 320.800 C 250.840 320.800,251.200 320.620,251.200 320.400 C 251.200 320.180,251.478 320.000,251.817 320.000 C 252.156 320.000,252.820 319.640,253.292 319.200 C 253.764 318.760,254.387 318.400,254.675 318.400 C 254.964 318.400,255.200 318.220,255.200 318.000 C 255.200 317.780,255.560 317.600,256.000 317.600 C 256.440 317.600,256.800 317.420,256.800 317.200 C 256.800 316.980,257.148 316.800,257.573 316.800 C 257.998 316.800,258.460 316.440,258.600 316.000 C 258.740 315.560,259.162 315.200,259.539 315.200 C 259.915 315.200,260.483 314.840,260.800 314.400 C 261.117 313.960,261.697 313.600,262.088 313.600 C 262.480 313.600,262.800 313.420,262.800 313.200 C 262.800 312.980,263.120 312.800,263.512 312.800 C 263.903 312.800,264.483 312.440,264.800 312.000 C 265.117 311.560,265.657 311.200,266.000 311.200 C 266.343 311.200,266.883 310.840,267.200 310.400 C 267.517 309.960,268.020 309.600,268.317 309.600 C 268.614 309.600,269.108 309.375,269.415 309.100 C 270.779 307.877,271.199 307.600,271.695 307.600 C 271.986 307.600,272.483 307.240,272.800 306.800 C 273.117 306.360,273.697 306.000,274.088 306.000 C 274.480 306.000,274.800 305.848,274.800 305.661 C 274.800 305.108,276.254 303.600,276.786 303.600 C 277.057 303.600,277.783 303.060,278.400 302.400 C 279.017 301.740,279.737 301.200,280.000 301.200 C 280.263 301.200,280.983 300.660,281.600 300.000 C 282.217 299.340,282.901 298.800,283.120 298.800 C 283.339 298.800,284.438 297.900,285.561 296.800 C 286.685 295.700,287.781 294.800,287.997 294.800 C 288.213 294.800,289.571 293.630,291.015 292.200 C 292.459 290.770,293.813 289.600,294.025 289.600 C 294.499 289.600,312.000 272.124,312.000 271.650 C 312.000 271.461,313.260 269.999,314.800 268.400 C 316.340 266.801,317.600 265.323,317.600 265.115 C 317.600 264.907,318.320 264.046,319.200 263.200 C 320.080 262.354,320.804 261.424,320.809 261.131 C 320.814 260.839,321.534 259.981,322.409 259.224 C 323.284 258.467,324.000 257.655,324.000 257.420 C 324.000 257.184,324.450 256.507,325.000 255.913 C 325.550 255.320,326.000 254.597,326.000 254.306 C 326.000 254.015,326.360 253.517,326.800 253.200 C 327.240 252.883,327.600 252.393,327.600 252.112 C 327.600 251.830,327.780 251.600,328.000 251.600 C 328.220 251.600,328.400 251.370,328.400 251.088 C 328.400 250.807,328.760 250.317,329.200 250.000 C 329.640 249.683,330.000 249.143,330.000 248.800 C 330.000 248.457,330.360 247.917,330.800 247.600 C 331.240 247.283,331.600 246.743,331.600 246.400 C 331.600 246.057,331.960 245.517,332.400 245.200 C 332.840 244.883,333.200 244.343,333.200 244.000 C 333.200 243.657,333.560 243.117,334.000 242.800 C 334.440 242.483,334.800 242.033,334.800 241.800 C 334.800 241.567,335.160 241.117,335.600 240.800 C 336.040 240.483,336.400 239.903,336.400 239.512 C 336.400 239.120,336.580 238.800,336.800 238.800 C 337.020 238.800,337.200 238.480,337.200 238.088 C 337.200 237.697,337.560 237.117,338.000 236.800 C 338.440 236.483,338.800 235.903,338.800 235.512 C 338.800 235.120,338.936 234.800,339.102 234.800 C 339.269 234.800,339.644 234.260,339.936 233.600 C 340.432 232.480,340.611 232.400,342.634 232.400 C 343.825 232.400,344.800 232.220,344.800 232.000 C 344.800 231.780,345.700 231.600,346.800 231.600 C 347.900 231.600,348.800 231.420,348.800 231.200 C 348.800 230.980,349.430 230.800,350.200 230.800 C 350.970 230.800,351.600 230.620,351.600 230.400 C 351.600 230.180,352.230 230.000,353.000 230.000 C 353.770 230.000,354.400 229.820,354.400 229.600 C 354.400 229.380,354.940 229.200,355.600 229.200 C 356.260 229.200,356.800 229.020,356.800 228.800 C 356.800 228.580,357.250 228.400,357.800 228.400 C 358.350 228.400,358.800 228.220,358.800 228.000 C 358.800 227.780,359.239 227.600,359.776 227.600 C 360.313 227.600,360.864 227.420,361.000 227.200 C 361.136 226.980,361.597 226.800,362.024 226.800 C 362.451 226.800,362.800 226.620,362.800 226.400 C 362.800 226.180,363.160 226.000,363.600 226.000 C 364.040 226.000,364.400 225.836,364.400 225.635 C 364.400 225.434,365.120 225.149,366.000 225.000 C 366.880 224.851,367.600 224.566,367.600 224.365 C 367.600 224.164,367.960 224.000,368.400 224.000 C 368.840 224.000,369.200 223.820,369.200 223.600 C 369.200 223.380,369.560 223.200,370.000 223.200 C 370.440 223.200,370.800 223.020,370.800 222.800 C 370.800 222.580,371.160 222.400,371.600 222.400 C 372.040 222.400,372.400 222.220,372.400 222.000 C 372.400 221.780,372.720 221.600,373.112 221.600 C 373.503 221.600,374.083 221.240,374.400 220.800 C 374.717 220.360,375.167 220.000,375.400 220.000 C 375.633 220.000,376.083 219.640,376.400 219.200 C 376.717 218.760,377.225 218.400,377.528 218.400 C 377.831 218.400,378.583 217.860,379.200 217.200 C 379.817 216.540,380.519 216.000,380.760 216.000 C 381.002 216.000,381.941 215.280,382.848 214.400 C 383.755 213.520,384.662 212.800,384.863 212.800 C 385.358 212.800,394.000 204.180,394.000 203.686 C 394.000 203.472,394.720 202.555,395.600 201.648 C 396.480 200.741,397.200 199.802,397.200 199.560 C 397.200 199.319,397.785 198.574,398.500 197.907 L 399.800 196.692 399.800 191.836 L 399.800 186.979 397.911 185.089 C 396.871 184.050,395.746 183.200,395.411 183.200 C 395.075 183.200,394.800 183.020,394.800 182.800 C 394.800 182.580,394.480 182.400,394.088 182.400 C 393.697 182.400,393.117 182.040,392.800 181.600 C 392.483 181.160,391.993 180.800,391.712 180.800 C 391.430 180.800,391.200 180.620,391.200 180.400 C 391.200 180.180,390.840 180.000,390.400 180.000 C 389.960 180.000,389.600 179.820,389.600 179.600 C 389.600 179.380,389.240 179.200,388.800 179.200 C 388.360 179.200,388.000 179.020,388.000 178.800 C 388.000 178.580,387.460 178.400,386.800 178.400 C 386.140 178.400,385.600 178.220,385.600 178.000 C 385.600 177.780,385.240 177.600,384.800 177.600 C 384.360 177.600,384.000 177.408,384.000 177.173 C 384.000 176.928,383.659 176.854,383.200 177.000 C 382.632 177.180,382.400 177.072,382.400 176.627 C 382.400 176.197,382.023 176.000,381.200 176.000 C 380.540 176.000,380.000 175.838,380.000 175.639 C 380.000 175.441,378.920 175.153,377.600 175.000 C 376.280 174.847,375.200 174.559,375.200 174.361 C 375.200 174.162,374.570 174.000,373.800 174.000 C 373.030 174.000,372.400 173.820,372.400 173.600 C 372.400 173.380,371.601 173.200,370.624 173.200 C 369.647 173.200,368.736 173.020,368.600 172.800 C 368.464 172.580,367.463 172.400,366.376 172.400 C 365.289 172.400,364.400 172.220,364.400 172.000 C 364.400 171.763,362.933 171.600,360.800 171.600 C 358.667 171.600,357.200 171.437,357.200 171.200 C 357.200 170.959,355.533 170.800,353.000 170.800 L 348.800 170.800 348.800 169.600 C 348.800 168.940,348.620 168.400,348.400 168.400 C 348.180 168.400,348.000 167.860,348.000 167.200 C 348.000 166.540,347.820 166.000,347.600 166.000 C 347.380 166.000,347.200 165.651,347.200 165.224 C 347.200 164.797,347.020 164.336,346.800 164.200 C 346.580 164.064,346.400 163.513,346.400 162.976 C 346.400 162.439,346.220 162.000,346.000 162.000 C 345.780 162.000,345.600 161.640,345.600 161.200 C 345.600 160.760,345.420 160.400,345.200 160.400 C 344.980 160.400,344.800 160.040,344.800 159.600 C 344.800 159.160,344.620 158.800,344.400 158.800 C 344.180 158.800,344.000 158.530,344.000 158.200 C 344.000 157.870,343.820 157.600,343.600 157.600 C 343.380 157.600,343.200 157.306,343.200 156.947 C 343.200 156.588,342.869 156.003,342.464 155.647 C 342.059 155.291,341.606 154.505,341.456 153.900 C 341.307 153.295,341.008 152.800,340.792 152.800 C 340.577 152.800,340.400 152.480,340.400 152.088 C 340.400 151.697,340.040 151.117,339.600 150.800 C 339.160 150.483,338.800 149.979,338.800 149.680 C 338.800 149.382,338.080 148.446,337.200 147.600 C 336.320 146.754,335.594 145.824,335.587 145.531 C 335.580 145.239,334.664 144.190,333.551 143.200 C 332.438 142.210,330.530 140.455,329.310 139.300 C 328.091 138.145,326.913 137.200,326.693 137.200 C 326.232 137.200,324.800 135.641,324.800 135.139 C 324.800 134.952,324.480 134.800,324.088 134.800 C 323.697 134.800,323.117 134.440,322.800 134.000 C 322.483 133.560,321.903 133.200,321.512 133.200 C 321.120 133.200,320.800 133.020,320.800 132.800 C 320.800 132.580,320.260 132.400,319.600 132.400 C 318.940 132.400,318.400 132.220,318.400 132.000 C 318.400 131.780,317.680 131.600,316.800 131.600 C 315.920 131.600,315.200 131.780,315.200 132.000 C 315.200 132.220,314.552 132.400,313.760 132.400 C 312.162 132.400,308.400 135.708,308.400 137.114 C 308.400 137.504,308.040 138.083,307.600 138.400 C 307.160 138.717,306.800 139.257,306.800 139.600 C 306.800 139.943,306.440 140.483,306.000 140.800 C 305.560 141.117,305.200 141.607,305.200 141.888 C 305.200 142.170,305.020 142.400,304.800 142.400 C 304.580 142.400,304.400 142.760,304.400 143.200 C 304.400 143.640,304.220 144.000,304.000 144.000 C 303.780 144.000,303.600 144.360,303.600 144.800 C 303.600 145.240,303.420 145.600,303.200 145.600 C 302.980 145.600,302.800 145.960,302.800 146.400 C 302.800 146.840,302.620 147.200,302.400 147.200 C 302.180 147.200,302.000 147.740,302.000 148.400 C 302.000 149.060,301.820 149.600,301.600 149.600 C 301.380 149.600,301.200 149.960,301.200 150.400 C 301.200 150.840,301.020 151.200,300.800 151.200 C 300.580 151.200,300.400 151.740,300.400 152.400 C 300.400 153.060,300.220 153.600,300.000 153.600 C 299.780 153.600,299.600 154.140,299.600 154.800 C 299.600 155.460,299.420 156.000,299.200 156.000 C 298.980 156.000,298.800 156.630,298.800 157.400 C 298.800 158.170,298.620 158.800,298.400 158.800 C 298.180 158.800,298.000 159.520,298.000 160.400 C 298.000 161.280,297.820 162.000,297.600 162.000 C 297.375 162.000,297.200 163.125,297.200 164.576 C 297.200 165.993,297.020 167.264,296.800 167.400 C 296.555 167.552,296.400 170.796,296.400 175.800 C 296.400 180.804,296.555 184.048,296.800 184.200 C 297.020 184.336,297.200 185.607,297.200 187.024 C 297.200 188.475,297.375 189.600,297.600 189.600 C 297.820 189.600,298.000 190.230,298.000 191.000 C 298.000 191.770,297.820 192.400,297.600 192.400 C 297.380 192.400,297.200 192.855,297.200 193.411 C 297.200 194.639,294.002 198.000,292.834 198.000 C 292.401 198.000,291.936 198.180,291.800 198.400 C 291.663 198.621,289.863 198.800,287.776 198.800 L 284.000 198.800 284.000 177.000 C 284.000 162.733,283.862 155.200,283.600 155.200 C 283.380 155.200,283.200 154.840,283.200 154.400 C 283.200 153.960,283.020 153.600,282.800 153.600 C 282.580 153.600,282.400 153.322,282.400 152.982 C 282.400 152.182,280.618 150.400,279.818 150.400 C 279.478 150.400,279.200 150.220,279.200 150.000 C 279.200 149.738,271.400 149.600,256.600 149.600 L 234.000 149.600 234.000 102.400 C 234.000 71.200,233.864 55.200,233.600 55.200 C 233.380 55.200,233.200 54.840,233.200 54.400 C 233.200 53.960,233.020 53.600,232.800 53.600 C 232.580 53.600,232.400 53.322,232.400 52.982 C 232.400 52.182,230.618 50.400,229.818 50.400 C 229.478 50.400,229.200 50.220,229.200 50.000 C 229.200 49.737,219.200 49.600,200.000 49.600 C 180.800 49.600,170.800 49.737,170.800 50.000 M216.000 83.600 L 216.000 99.600 200.000 99.600 L 184.000 99.600 184.000 83.600 L 184.000 67.600 200.000 67.600 L 216.000 67.600 216.000 83.600 M116.000 133.600 L 116.000 149.600 100.000 149.600 L 84.000 149.600 84.000 133.600 L 84.000 117.600 100.000 117.600 L 116.000 117.600 116.000 133.600 M166.000 133.600 L 166.000 149.600 150.000 149.600 L 134.000 149.600 134.000 133.600 L 134.000 117.600 150.000 117.600 L 166.000 117.600 166.000 133.600 M216.000 133.600 L 216.000 149.600 200.000 149.600 L 184.000 149.600 184.000 133.600 L 184.000 117.600 200.000 117.600 L 216.000 117.600 216.000 133.600 M66.000 183.600 L 66.000 199.600 50.000 199.600 L 34.000 199.600 34.000 183.600 L 34.000 167.600 50.000 167.600 L 66.000 167.600 66.000 183.600 M116.000 183.600 L 116.000 199.600 100.000 199.600 L 84.000 199.600 84.000 183.600 L 84.000 167.600 100.000 167.600 L 116.000 167.600 116.000 183.600 M166.000 183.600 L 166.000 199.600 150.000 199.600 L 134.000 199.600 134.000 183.600 L 134.000 167.600 150.000 167.600 L 166.000 167.600 166.000 183.600 M216.000 183.600 L 216.000 199.600 200.000 199.600 L 184.000 199.600 184.000 183.600 L 184.000 167.600 200.000 167.600 L 216.000 167.600 216.000 183.600 M266.000 183.600 L 266.000 199.600 250.000 199.600 L 234.000 199.600 234.000 183.600 L 234.000 167.600 250.000 167.600 L 266.000 167.600 266.000 183.600 M88.000 251.600 C 88.000 251.820,88.360 252.000,88.800 252.000 C 89.240 252.000,89.600 252.180,89.600 252.400 C 89.600 252.620,89.960 252.800,90.400 252.800 C 90.840 252.800,91.200 252.980,91.200 253.200 C 91.200 253.420,91.384 253.600,91.609 253.600 C 92.141 253.600,96.400 257.859,96.400 258.391 C 96.400 258.616,96.580 258.800,96.800 258.800 C 97.020 258.800,97.200 259.160,97.200 259.600 C 97.200 260.040,97.380 260.400,97.600 260.400 C 97.820 260.400,98.000 260.760,98.000 261.200 C 98.000 261.640,98.180 262.000,98.400 262.000 C 98.980 262.000,98.902 269.687,98.303 271.606 C 98.029 272.483,97.669 273.200,97.503 273.200 C 97.336 273.200,97.200 273.517,97.200 273.904 C 97.200 274.291,96.840 274.832,96.400 275.107 C 95.960 275.382,95.600 275.791,95.600 276.017 C 95.600 276.550,92.950 279.200,92.417 279.200 C 92.191 279.200,91.782 279.560,91.507 280.000 C 91.232 280.440,90.691 280.800,90.304 280.800 C 89.917 280.800,89.600 280.980,89.600 281.200 C 89.600 281.420,89.060 281.600,88.400 281.600 C 87.740 281.600,87.200 281.780,87.200 282.000 C 87.200 282.237,85.733 282.400,83.600 282.400 C 81.467 282.400,80.000 282.237,80.000 282.000 C 80.000 281.780,79.460 281.600,78.800 281.600 C 78.140 281.600,77.600 281.420,77.600 281.200 C 77.600 280.980,77.240 280.800,76.800 280.800 C 76.360 280.800,76.000 280.620,76.000 280.400 C 76.000 280.180,75.824 280.000,75.610 280.000 C 75.056 280.000,70.000 275.001,70.000 274.454 C 70.000 274.204,69.820 274.000,69.600 274.000 C 69.380 274.000,69.200 273.640,69.200 273.200 C 69.200 272.760,69.020 272.400,68.800 272.400 C 68.580 272.400,68.400 271.961,68.400 271.424 C 68.400 270.887,68.220 270.336,68.000 270.200 C 67.780 270.064,67.600 268.343,67.600 266.376 C 67.600 264.259,67.763 262.800,68.000 262.800 C 68.220 262.800,68.400 262.260,68.400 261.600 C 68.400 260.940,68.580 260.400,68.800 260.400 C 69.020 260.400,69.200 260.052,69.200 259.627 C 69.200 259.202,69.560 258.740,70.000 258.600 C 70.440 258.460,70.800 258.082,70.800 257.760 C 70.800 256.998,73.398 254.400,74.160 254.400 C 74.482 254.400,74.860 254.040,75.000 253.600 C 75.140 253.160,75.602 252.800,76.027 252.800 C 76.452 252.800,76.800 252.620,76.800 252.400 C 76.800 252.180,77.149 252.000,77.576 252.000 C 78.003 252.000,78.464 251.820,78.600 251.600 C 78.742 251.371,80.804 251.200,83.424 251.200 C 86.208 251.200,88.000 251.357,88.000 251.600 " stroke="none" fill="#0c9cec" fill-rule="evenodd"></path><path id="path1" d="" stroke="none" fill="#109cec" fill-rule="evenodd"></path><path id="path2" d="" stroke="none" fill="#109cec" fill-rule="evenodd"></path><path id="path3" d="" stroke="none" fill="#109cec" fill-rule="evenodd"></path><path id="path4" d="" stroke="none" fill="#109cec" fill-rule="evenodd"></path></g></svg>