<svg id="svg" version="1.1" width="400" height="400" xmlns="http://www.w3.org/2000/svg" xmlns:xlink="http://www.w3.org/1999/xlink" style="display: block;">
  <g id="svgg">
    <path id="path0"
          d="M336.856 108.013 C 335.616 109.046,336.175 109.035,337.491 108.000 C 338.050 107.560,338.349 107.206,338.154 107.213 C 337.959 107.221,337.375 107.581,336.856 108.013 M293.656 342.013 C 292.416 343.046,292.975 343.035,294.291 342.000 C 294.850 341.560,295.149 341.206,294.954 341.213 C 294.759 341.221,294.175 341.581,293.656 342.013 "
          stroke="none" fill="#ff0000" fill-rule="evenodd"></path>
    <path id="path1" d="" stroke="none" fill="#ff5500" fill-rule="evenodd"></path>
    <path id="path2"
          d="M197.346 32.598 C 197.219 32.926,196.955 33.096,196.758 32.974 C 196.561 32.852,196.400 32.943,196.400 33.176 C 196.400 33.424,195.471 33.600,194.163 33.600 C 192.262 33.600,191.894 33.720,191.716 34.400 C 191.537 35.086,191.170 35.200,189.153 35.200 C 187.333 35.200,186.619 35.381,186.000 36.000 C 185.415 36.585,184.667 36.800,183.214 36.800 C 181.638 36.800,181.140 36.965,180.800 37.600 C 180.452 38.250,179.962 38.400,178.186 38.400 C 176.267 38.400,176.000 38.498,176.000 39.200 C 176.000 39.906,175.717 40.006,173.600 40.050 C 170.354 40.118,170.404 40.106,169.824 40.900 C 169.450 41.410,168.752 41.600,167.243 41.600 C 165.855 41.600,165.105 41.781,164.963 42.151 C 164.835 42.485,163.828 42.807,162.412 42.967 C 161.125 43.112,159.854 43.494,159.587 43.816 C 159.320 44.137,158.449 44.418,157.651 44.440 C 155.659 44.495,154.180 44.978,154.300 45.535 C 154.365 45.839,153.717 46.000,152.433 46.000 C 150.092 46.000,149.200 46.288,149.200 47.043 C 149.200 47.450,148.622 47.600,147.054 47.600 C 145.514 47.600,144.621 47.826,143.891 48.400 C 143.233 48.918,142.261 49.202,141.137 49.206 C 139.202 49.213,138.156 49.681,138.572 50.355 C 138.763 50.663,138.090 50.800,136.386 50.800 C 134.262 50.800,133.897 50.909,133.716 51.600 C 133.534 52.294,133.170 52.400,130.957 52.400 C 128.840 52.400,128.322 52.536,127.907 53.200 C 127.509 53.838,126.974 54.000,125.266 54.000 C 123.462 54.000,123.092 54.126,122.916 54.800 C 122.737 55.485,122.370 55.600,120.357 55.600 C 118.440 55.600,117.915 55.747,117.507 56.400 C 117.102 57.049,116.574 57.200,114.718 57.200 C 112.838 57.200,112.352 57.343,112.000 58.000 C 111.652 58.650,111.162 58.800,109.386 58.800 C 107.710 58.800,107.200 58.940,107.200 59.400 C 107.200 59.977,106.564 60.168,105.122 60.025 C 104.062 59.919,101.200 60.788,101.200 61.215 C 101.200 61.427,100.525 61.602,99.700 61.605 C 97.619 61.613,96.320 62.016,96.539 62.586 C 96.641 62.850,96.516 63.080,96.262 63.096 C 96.008 63.113,94.920 63.173,93.845 63.230 C 92.401 63.307,91.844 63.511,91.713 64.012 C 91.575 64.538,90.900 64.743,88.693 64.928 C 86.737 65.092,85.743 65.358,85.506 65.783 C 85.261 66.220,84.532 66.400,83.007 66.400 C 81.205 66.400,80.812 66.531,80.600 67.200 C 80.388 67.868,79.995 68.000,78.222 68.000 C 76.316 68.000,74.812 68.679,75.404 69.271 C 75.513 69.380,74.477 69.504,73.101 69.546 C 71.194 69.605,70.447 69.805,69.954 70.389 C 69.498 70.930,68.677 71.190,67.154 71.277 C 65.390 71.378,65.010 71.527,65.056 72.100 C 65.103 72.699,64.744 72.800,62.556 72.800 C 60.533 72.800,59.833 72.967,59.200 73.600 C 58.705 74.095,57.867 74.400,57.000 74.400 C 55.629 74.400,55.600 74.434,55.600 76.029 C 55.600 78.086,56.314 78.800,58.371 78.800 C 59.467 78.800,60.262 79.062,60.800 79.600 C 61.377 80.177,62.133 80.400,63.512 80.400 C 64.965 80.400,65.562 80.592,66.000 81.200 C 66.461 81.839,67.035 82.000,68.861 82.000 C 70.795 82.000,71.185 82.123,71.400 82.800 C 71.612 83.468,72.005 83.600,73.780 83.600 C 75.570 83.600,75.940 83.727,76.116 84.400 C 76.287 85.054,76.662 85.200,78.163 85.200 C 79.467 85.200,80.232 85.432,80.800 86.000 C 81.342 86.542,82.133 86.800,83.256 86.800 C 84.313 86.800,85.081 87.032,85.380 87.441 C 85.654 87.815,86.671 88.166,87.824 88.285 C 88.911 88.398,89.981 88.695,90.201 88.945 C 90.646 89.449,91.097 89.587,93.294 89.895 C 94.116 90.010,94.993 90.350,95.243 90.652 C 95.513 90.977,96.481 91.200,97.625 91.200 C 98.685 91.200,99.666 91.383,99.804 91.607 C 99.942 91.830,100.227 91.907,100.438 91.777 C 100.648 91.647,100.770 91.779,100.710 92.070 C 100.630 92.456,101.281 92.632,103.100 92.719 C 105.272 92.823,105.600 92.941,105.600 93.619 C 105.600 94.307,105.886 94.400,108.000 94.400 C 110.133 94.400,110.400 94.489,110.400 95.200 C 110.400 95.895,110.667 96.000,112.429 96.000 C 114.319 96.000,115.918 96.749,115.314 97.352 C 115.178 97.489,116.043 97.600,117.237 97.600 C 118.974 97.600,119.507 97.760,119.907 98.400 C 120.309 99.044,120.840 99.200,122.627 99.200 C 123.927 99.200,124.750 99.357,124.612 99.580 C 124.259 100.152,125.756 100.800,127.430 100.800 C 128.338 100.800,129.096 101.052,129.389 101.452 C 129.688 101.862,130.672 102.177,132.033 102.300 C 133.394 102.423,134.514 102.782,135.045 103.266 C 135.510 103.690,136.050 104.007,136.245 103.971 C 137.677 103.706,140.000 104.069,140.000 104.557 C 140.000 105.296,140.886 105.600,143.033 105.600 C 144.285 105.600,144.800 105.764,144.800 106.162 C 144.800 106.538,145.498 106.820,146.900 107.011 C 148.055 107.168,149.128 107.500,149.285 107.748 C 149.607 108.257,149.718 108.281,152.153 108.350 C 153.493 108.388,153.952 108.573,154.099 109.135 C 154.251 109.718,154.728 109.885,156.415 109.944 C 158.020 110.001,158.673 110.212,159.092 110.810 C 159.502 111.395,160.106 111.600,161.423 111.600 C 162.667 111.600,163.440 111.840,164.000 112.400 C 164.577 112.977,165.333 113.200,166.712 113.200 C 168.165 113.200,168.762 113.392,169.200 114.000 C 169.662 114.641,170.235 114.800,172.088 114.800 C 174.133 114.800,174.400 114.892,174.400 115.600 C 174.400 116.302,174.667 116.400,176.586 116.400 C 178.362 116.400,178.852 116.550,179.200 117.200 C 179.535 117.827,180.038 118.000,181.518 118.000 C 182.974 118.000,183.522 118.183,183.907 118.800 C 184.290 119.413,184.840 119.600,186.259 119.600 C 187.497 119.600,188.267 119.813,188.580 120.241 C 188.849 120.609,189.890 120.976,191.024 121.103 C 192.152 121.230,193.201 121.598,193.467 121.962 C 194.287 123.079,203.338 123.144,204.827 122.043 C 205.587 121.481,206.564 121.200,207.757 121.200 C 209.195 121.200,209.596 121.043,209.800 120.400 C 210.011 119.734,210.405 119.600,212.152 119.600 C 213.696 119.600,214.475 119.389,215.108 118.800 C 215.664 118.282,216.519 118.000,217.534 118.000 C 218.928 118.000,220.304 117.237,219.807 116.741 C 219.705 116.639,220.382 116.517,221.311 116.471 C 223.881 116.343,225.111 116.010,225.354 115.376 C 225.496 115.007,226.153 114.800,227.187 114.800 C 228.267 114.800,229.065 114.535,229.600 114.000 C 230.128 113.472,230.933 113.200,231.967 113.200 C 233.906 113.200,234.800 112.877,234.800 112.177 C 234.800 111.804,235.501 111.603,237.100 111.520 C 239.004 111.421,239.390 111.280,239.344 110.700 C 239.299 110.132,239.638 109.991,241.144 109.954 C 244.063 109.881,244.203 109.841,244.144 109.100 C 244.097 108.506,244.447 108.400,246.457 108.400 C 248.193 108.400,248.887 108.240,249.055 107.800 C 249.182 107.470,249.671 107.198,250.143 107.195 C 251.657 107.185,252.804 106.731,252.519 106.255 C 252.369 106.005,252.551 106.047,252.923 106.349 C 253.506 106.822,253.600 106.808,253.600 106.249 C 253.600 105.818,253.969 105.586,254.700 105.557 C 255.305 105.534,256.070 105.475,256.400 105.426 C 256.730 105.377,257.315 105.306,257.700 105.268 C 258.085 105.231,258.400 104.930,258.400 104.600 C 258.400 104.157,258.863 104.000,260.167 104.000 C 262.314 104.000,263.200 103.696,263.200 102.957 C 263.200 102.547,263.792 102.400,265.437 102.400 C 267.338 102.400,267.706 102.280,267.884 101.600 C 268.060 100.928,268.430 100.800,270.200 100.800 C 271.970 100.800,272.340 100.672,272.516 100.000 C 272.694 99.320,273.062 99.200,274.963 99.200 C 276.933 99.200,277.200 99.105,277.200 98.400 C 277.200 97.689,277.467 97.600,279.597 97.600 C 281.560 97.600,282.084 97.455,282.493 96.800 C 282.873 96.191,283.426 96.000,284.808 96.000 C 286.165 96.000,286.769 95.798,287.200 95.200 C 287.638 94.592,288.235 94.400,289.692 94.400 C 291.113 94.400,291.785 94.193,292.293 93.600 C 292.799 93.009,293.473 92.800,294.875 92.800 C 296.362 92.800,296.864 92.627,297.200 92.000 C 297.539 91.367,298.038 91.200,299.594 91.200 C 300.840 91.200,301.677 90.999,301.880 90.650 C 302.171 90.151,304.277 89.617,306.134 89.573 C 306.607 89.562,306.789 89.349,306.647 88.978 C 306.474 88.528,306.816 88.400,308.189 88.400 C 309.159 88.400,310.066 88.217,310.204 87.993 C 310.342 87.770,310.624 87.691,310.830 87.819 C 311.037 87.946,311.314 87.769,311.446 87.425 C 311.613 86.990,312.218 86.800,313.443 86.800 C 314.664 86.800,315.443 86.557,315.997 86.003 C 316.529 85.471,317.398 85.184,318.618 85.138 C 319.931 85.088,320.552 84.863,320.835 84.334 C 321.137 83.770,321.698 83.600,323.252 83.600 C 324.938 83.600,325.310 83.467,325.484 82.800 C 325.661 82.123,326.030 82.000,327.884 82.000 C 329.738 82.000,330.107 81.877,330.284 81.200 C 330.461 80.523,330.830 80.400,332.684 80.400 C 334.538 80.400,334.907 80.277,335.084 79.600 C 335.261 78.925,335.630 78.800,337.447 78.800 C 339.071 78.800,339.600 78.656,339.600 78.214 C 339.600 77.892,339.960 77.435,340.400 77.200 C 342.305 76.181,341.444 74.400,339.047 74.400 C 337.230 74.400,336.861 74.275,336.684 73.600 C 336.507 72.923,336.138 72.800,334.284 72.800 C 332.430 72.800,332.061 72.677,331.884 72.000 C 331.707 71.321,331.338 71.200,329.457 71.200 C 327.839 71.200,327.143 71.027,326.881 70.559 C 326.630 70.111,325.723 69.854,323.871 69.705 C 321.747 69.534,321.173 69.344,320.983 68.746 C 320.791 68.141,320.344 68.000,318.620 68.000 C 316.830 68.000,316.460 67.873,316.284 67.200 C 316.106 66.520,315.738 66.400,313.825 66.400 C 312.236 66.400,311.510 66.231,311.354 65.824 C 311.111 65.190,309.881 64.857,307.311 64.729 C 306.382 64.683,305.705 64.561,305.807 64.459 C 306.364 63.903,304.880 63.200,303.151 63.200 C 301.775 63.200,300.978 62.978,300.448 62.448 C 299.956 61.956,299.101 61.687,297.977 61.672 C 296.879 61.657,296.137 61.430,295.920 61.043 C 295.709 60.665,294.684 60.336,293.197 60.168 C 291.886 60.020,290.608 59.651,290.358 59.349 C 290.068 59.000,289.063 58.800,287.598 58.800 C 285.630 58.800,285.263 58.683,285.084 58.000 C 284.907 57.323,284.538 57.200,282.684 57.200 C 280.830 57.200,280.461 57.077,280.284 56.400 C 280.108 55.725,279.738 55.600,277.926 55.600 C 276.273 55.600,275.620 55.416,275.093 54.800 C 274.552 54.168,273.913 54.000,272.051 54.000 C 270.030 54.000,269.663 53.886,269.484 53.200 C 269.307 52.523,268.938 52.400,267.084 52.400 C 265.230 52.400,264.861 52.277,264.684 51.600 C 264.507 50.923,264.138 50.800,262.280 50.800 C 260.635 50.800,260.024 50.639,259.839 50.158 C 259.704 49.806,259.336 49.616,259.022 49.736 C 258.709 49.856,258.395 49.795,258.326 49.600 C 258.257 49.404,257.257 49.202,256.105 49.151 C 254.952 49.099,254.089 48.978,254.186 48.881 C 254.726 48.341,253.016 47.600,251.229 47.600 C 249.734 47.600,249.200 47.449,249.200 47.027 C 249.200 46.370,248.465 46.125,246.205 46.030 C 245.328 45.993,244.473 45.716,244.305 45.416 C 244.008 44.886,242.324 44.480,239.728 44.315 C 239.028 44.271,238.488 44.048,238.528 43.820 C 238.567 43.592,237.520 43.235,236.200 43.026 C 234.880 42.817,233.562 42.411,233.271 42.123 C 232.981 41.835,231.877 41.600,230.818 41.600 C 229.287 41.600,228.854 41.450,228.701 40.865 C 228.550 40.286,228.075 40.115,226.447 40.058 C 224.995 40.006,224.150 39.750,223.592 39.192 C 222.982 38.582,222.259 38.400,220.447 38.400 C 218.430 38.400,218.063 38.286,217.884 37.600 C 217.707 36.923,217.338 36.800,215.484 36.800 C 213.695 36.800,213.258 36.665,213.101 36.065 C 212.950 35.486,212.475 35.315,210.847 35.258 C 209.395 35.206,208.550 34.950,207.992 34.392 C 207.382 33.782,206.659 33.600,204.847 33.600 C 202.830 33.600,202.463 33.486,202.284 32.800 C 202.014 31.767,197.732 31.591,197.346 32.598 M27.210 96.906 C 26.878 97.732,26.848 97.739,26.819 97.000 C 26.793 96.334,26.722 96.301,26.399 96.800 C 25.891 97.585,25.859 314.266,26.367 314.580 C 26.566 314.703,27.186 314.841,27.745 314.887 C 28.304 314.933,28.682 315.051,28.584 315.149 C 28.095 315.639,29.483 316.400,30.866 316.400 C 31.881 316.400,32.736 316.682,33.292 317.200 C 33.792 317.666,34.704 318.000,35.475 318.000 C 36.267 318.000,37.122 318.322,37.600 318.800 C 38.103 319.303,38.933 319.600,39.837 319.600 C 40.668 319.600,41.703 319.937,42.291 320.400 C 42.896 320.876,43.914 321.200,44.805 321.200 C 45.643 321.200,46.520 321.462,46.796 321.796 C 47.068 322.123,47.438 322.300,47.618 322.189 C 47.798 322.078,48.058 322.170,48.196 322.393 C 48.334 322.617,49.047 322.800,49.781 322.800 C 50.536 322.800,51.205 323.036,51.323 323.344 C 51.439 323.646,52.356 323.981,53.382 324.097 C 54.400 324.212,55.554 324.597,55.948 324.953 C 56.392 325.355,57.371 325.600,58.531 325.600 C 59.862 325.600,60.400 325.760,60.400 326.157 C 60.400 326.875,61.278 327.200,63.219 327.200 C 64.362 327.200,64.885 327.411,65.200 328.000 C 65.535 328.627,66.038 328.800,67.518 328.800 C 68.974 328.800,69.522 328.983,69.907 329.600 C 70.309 330.244,70.840 330.400,72.627 330.400 C 74.154 330.400,74.761 330.539,74.572 330.845 C 74.148 331.531,75.213 331.987,77.253 331.994 C 78.711 331.999,79.148 332.157,79.298 332.733 C 79.447 333.301,79.922 333.482,81.411 333.539 C 82.829 333.592,83.481 333.823,83.896 334.416 C 84.207 334.859,84.672 335.195,84.930 335.163 C 86.742 334.939,88.400 335.255,88.400 335.824 C 88.400 336.167,88.568 336.344,88.772 336.217 C 88.977 336.091,89.258 336.170,89.396 336.393 C 89.534 336.617,90.447 336.800,91.424 336.800 C 92.736 336.800,93.200 336.957,93.200 337.400 C 93.200 337.730,93.335 338.011,93.500 338.025 C 96.074 338.238,97.432 338.564,97.790 339.054 C 98.152 339.549,99.275 339.791,102.100 339.980 C 102.265 339.991,102.400 340.270,102.400 340.600 C 102.400 341.067,102.933 341.200,104.800 341.200 C 106.933 341.200,107.200 341.289,107.200 342.000 C 107.200 342.702,107.467 342.800,109.373 342.800 C 111.177 342.800,111.588 342.933,111.794 343.581 C 111.995 344.214,112.472 344.384,114.321 344.481 C 116.027 344.570,116.600 344.751,116.600 345.200 C 116.600 345.650,117.176 345.830,118.900 345.920 C 120.873 346.023,121.200 346.151,121.200 346.820 C 121.200 347.249,121.335 347.579,121.500 347.553 C 123.598 347.221,126.000 347.674,126.000 348.400 C 126.000 348.840,126.135 349.179,126.300 349.153 C 128.076 348.872,130.329 349.283,130.495 349.918 C 130.632 350.444,131.136 350.663,132.378 350.737 C 133.316 350.792,134.408 351.149,134.823 351.536 C 135.236 351.920,136.237 352.279,137.048 352.334 C 137.860 352.389,138.991 352.753,139.562 353.143 C 140.452 353.753,141.447 353.974,143.882 354.107 C 144.148 354.122,144.278 354.274,144.171 354.447 C 143.880 354.918,145.390 355.600,146.725 355.600 C 147.372 355.600,148.110 355.850,148.364 356.157 C 148.618 356.463,149.658 356.838,150.675 356.990 C 151.693 357.143,152.780 357.523,153.091 357.834 C 153.402 358.145,154.414 358.400,155.340 358.400 C 156.527 358.400,157.224 358.635,157.707 359.200 C 158.204 359.780,158.887 360.000,160.196 360.000 C 161.471 360.000,162.000 360.163,162.000 360.557 C 162.000 361.311,162.891 361.600,165.220 361.600 C 166.793 361.600,167.130 361.717,166.945 362.200 C 166.818 362.530,166.914 362.822,167.157 362.850 C 167.401 362.878,167.780 362.945,168.000 363.000 C 168.220 363.055,169.030 363.123,169.800 363.150 C 170.706 363.182,171.200 363.397,171.200 363.757 C 171.200 364.496,172.086 364.800,174.233 364.800 C 175.477 364.800,176.000 364.965,176.000 365.357 C 176.000 366.141,176.903 366.400,179.633 366.400 L 182.000 366.400 182.000 256.200 C 182.000 146.267,181.998 146.000,181.200 146.000 C 180.760 146.000,180.400 145.751,180.400 145.447 C 180.400 144.795,179.189 144.413,177.100 144.405 C 176.069 144.402,175.600 144.221,175.600 143.829 C 175.600 143.435,174.905 143.171,173.368 142.979 C 172.059 142.815,171.049 142.473,170.925 142.150 C 170.783 141.780,170.026 141.600,168.604 141.600 C 166.830 141.600,166.460 141.472,166.284 140.800 C 166.107 140.123,165.738 140.000,163.884 140.000 C 162.030 140.000,161.661 139.877,161.484 139.200 C 161.307 138.523,160.938 138.400,159.084 138.400 C 157.230 138.400,156.861 138.277,156.684 137.600 C 156.506 136.920,156.138 136.800,154.237 136.800 C 152.592 136.800,152.000 136.653,152.000 136.243 C 152.000 135.523,151.122 135.200,149.167 135.200 C 148.133 135.200,147.328 134.928,146.800 134.400 C 146.272 133.872,145.467 133.600,144.429 133.600 C 143.541 133.600,142.587 133.330,142.236 132.978 C 141.558 132.301,140.718 132.075,138.360 131.936 C 137.514 131.886,136.905 131.761,137.007 131.659 C 137.593 131.074,136.065 130.400,134.151 130.400 C 132.506 130.400,132.000 130.259,132.000 129.800 C 132.000 129.470,131.775 129.173,131.500 129.139 C 131.225 129.106,130.820 129.036,130.600 128.985 C 130.380 128.934,129.525 128.872,128.700 128.846 C 127.712 128.816,127.200 128.611,127.200 128.247 C 127.200 127.595,125.989 127.213,123.900 127.205 C 122.904 127.202,122.400 127.017,122.400 126.656 C 122.400 126.298,121.687 126.027,120.321 125.865 C 119.084 125.719,118.104 125.372,117.901 125.010 C 117.662 124.582,116.922 124.400,115.427 124.400 C 113.630 124.400,113.260 124.274,113.084 123.600 C 112.907 122.923,112.538 122.800,110.684 122.800 C 108.904 122.800,108.458 122.664,108.303 122.074 C 108.154 121.503,107.654 121.327,105.966 121.250 C 103.712 121.147,103.400 121.028,103.400 120.267 C 103.400 119.989,102.473 119.717,101.117 119.597 C 99.861 119.485,98.601 119.143,98.317 118.838 C 97.891 118.381,97.899 118.339,98.362 118.603 C 98.703 118.798,98.827 118.768,98.679 118.527 C 98.544 118.309,97.589 118.099,96.557 118.060 C 95.344 118.014,94.511 117.757,94.201 117.333 C 93.937 116.973,93.514 116.806,93.261 116.962 C 93.007 117.119,92.800 117.057,92.800 116.824 C 92.800 116.591,92.074 116.400,91.187 116.400 C 90.097 116.400,89.498 116.198,89.336 115.777 C 89.204 115.434,88.850 115.249,88.548 115.364 C 88.247 115.480,88.000 115.401,88.000 115.187 C 88.000 114.974,87.345 114.800,86.544 114.800 C 85.660 114.800,84.901 114.544,84.611 114.148 C 84.316 113.743,83.319 113.417,81.988 113.289 C 80.672 113.163,79.528 112.792,79.034 112.331 C 78.590 111.917,77.951 111.605,77.613 111.636 C 75.628 111.819,74.000 111.553,74.000 111.047 C 74.000 110.421,72.803 110.014,70.943 110.005 C 70.198 110.002,69.592 109.755,69.455 109.400 C 69.289 108.967,68.610 108.800,67.013 108.800 C 65.067 108.800,64.800 108.704,64.800 108.000 C 64.800 107.289,64.533 107.200,62.400 107.200 C 60.267 107.200,60.000 107.111,60.000 106.400 C 60.000 105.689,59.733 105.600,57.600 105.600 C 55.322 105.600,54.976 105.416,55.153 104.300 C 55.179 104.135,54.210 104.000,53.000 104.000 C 51.790 104.000,50.800 103.820,50.800 103.600 C 50.800 103.380,50.485 103.197,50.100 103.194 C 49.502 103.189,49.487 103.131,50.000 102.800 C 50.428 102.524,49.967 102.410,48.396 102.406 C 46.630 102.401,46.093 102.241,45.693 101.600 C 45.302 100.974,44.760 100.800,43.197 100.800 C 41.689 100.800,41.200 100.653,41.200 100.200 C 41.200 99.870,41.155 99.596,41.100 99.590 C 37.774 99.267,36.580 98.980,35.949 98.349 C 35.458 97.858,34.629 97.600,33.544 97.600 C 32.499 97.600,31.718 97.368,31.428 96.970 C 30.631 95.881,27.641 95.836,27.210 96.906 M368.116 98.400 C 367.939 99.077,367.570 99.200,365.716 99.200 C 363.904 99.200,363.491 99.331,363.328 99.956 C 363.165 100.575,362.662 100.741,360.525 100.877 C 358.612 100.999,357.819 101.223,357.540 101.722 C 357.263 102.217,356.626 102.400,355.184 102.400 C 353.640 102.400,353.097 102.575,352.707 103.200 C 352.312 103.833,351.774 104.000,350.131 104.000 C 348.405 104.000,348.011 104.135,347.800 104.800 C 347.587 105.471,347.195 105.600,345.373 105.600 C 343.467 105.600,343.200 105.698,343.200 106.400 C 343.200 107.111,342.933 107.200,340.803 107.200 C 338.840 107.200,338.316 107.345,337.907 108.000 C 337.502 108.648,336.974 108.800,335.124 108.800 C 333.628 108.800,332.729 108.987,332.520 109.341 C 332.254 109.791,330.411 110.271,328.122 110.488 C 327.859 110.513,327.679 110.728,327.722 110.967 C 327.765 111.205,327.260 111.448,326.600 111.506 C 323.856 111.747,322.800 112.056,322.800 112.618 C 322.800 113.058,322.254 113.200,320.563 113.200 C 318.705 113.200,318.292 113.328,318.128 113.956 C 317.965 114.576,317.461 114.741,315.317 114.878 C 313.463 114.996,312.559 115.241,312.208 115.722 C 311.873 116.179,311.139 116.402,309.956 116.406 C 308.003 116.413,306.955 116.879,307.372 117.555 C 307.621 117.957,304.992 118.257,303.269 118.023 C 302.977 117.983,302.643 118.313,302.527 118.757 C 302.352 119.425,301.931 119.583,300.058 119.681 C 298.193 119.779,297.810 119.922,297.856 120.500 C 297.902 121.080,297.571 121.200,295.929 121.200 C 293.915 121.200,292.219 121.783,292.572 122.355 C 292.679 122.528,291.661 122.710,290.310 122.759 C 288.451 122.826,287.689 123.036,287.180 123.624 C 286.674 124.206,285.987 124.400,284.429 124.400 C 283.226 124.400,282.451 124.559,282.587 124.778 C 282.853 125.209,280.351 125.994,278.700 125.998 C 277.990 125.999,277.600 126.213,277.600 126.600 C 277.600 127.043,277.137 127.200,275.833 127.200 C 273.724 127.200,272.800 127.503,272.800 128.196 C 272.800 128.542,271.945 128.761,270.152 128.875 C 268.267 128.995,267.360 129.240,267.008 129.722 C 266.712 130.126,265.964 130.402,265.156 130.405 C 263.203 130.413,262.000 130.810,262.000 131.447 C 262.000 131.852,261.401 132.000,259.763 132.000 C 257.862 132.000,257.494 132.120,257.316 132.800 C 257.126 133.525,254.910 133.960,253.066 133.636 C 252.882 133.604,252.636 133.942,252.519 134.389 C 252.337 135.083,251.981 135.200,250.042 135.200 C 248.235 135.200,247.660 135.362,247.200 136.000 C 246.749 136.626,246.165 136.800,244.515 136.800 C 242.840 136.800,242.304 136.964,241.907 137.600 C 241.509 138.238,240.974 138.400,239.266 138.400 C 237.462 138.400,237.092 138.526,236.916 139.200 C 236.739 139.877,236.370 140.000,234.516 140.000 C 232.662 140.000,232.293 140.123,232.116 140.800 C 231.944 141.459,231.570 141.600,230.002 141.600 C 228.867 141.600,227.912 141.824,227.638 142.155 C 227.385 142.460,226.001 142.835,224.563 142.989 C 222.885 143.169,221.871 143.472,221.731 143.835 C 221.597 144.186,220.933 144.400,219.981 144.400 C 217.852 144.400,218.009 141.430,217.996 181.940 C 217.986 212.666,217.894 218.734,217.444 218.562 C 217.119 218.437,216.807 218.721,216.657 219.277 C 216.022 221.637,216.390 366.733,217.033 367.376 C 217.747 368.090,218.636 368.188,219.004 367.593 C 219.142 367.370,219.450 367.307,219.688 367.455 C 219.926 367.602,220.319 367.453,220.561 367.124 C 220.802 366.794,221.882 366.426,222.960 366.305 C 224.164 366.170,225.060 365.837,225.280 365.442 C 225.516 365.022,226.185 364.800,227.220 364.800 C 228.267 364.800,229.070 364.530,229.600 364.000 C 230.133 363.467,230.933 363.200,231.997 363.200 C 233.160 363.200,233.729 362.983,234.093 362.400 C 234.422 361.873,235.026 361.600,235.864 361.600 C 237.533 361.600,238.400 361.244,238.400 360.557 C 238.400 360.148,238.986 360.000,240.600 360.000 C 242.533 360.000,242.800 359.903,242.800 359.200 C 242.800 358.489,243.067 358.400,245.200 358.400 C 246.957 358.400,247.600 358.254,247.600 357.856 C 247.600 357.497,248.317 357.227,249.700 357.063 C 250.865 356.925,251.998 356.544,252.244 356.207 C 252.488 355.873,253.208 355.598,253.844 355.595 C 255.609 355.586,256.800 355.167,256.800 354.553 C 256.800 354.166,257.329 354.000,258.567 354.000 C 260.714 354.000,261.600 353.696,261.600 352.957 C 261.600 352.555,262.157 352.400,263.597 352.400 C 265.160 352.400,265.702 352.226,266.093 351.600 C 266.465 351.003,267.026 350.800,268.296 350.800 C 269.233 350.800,270.000 350.609,270.000 350.376 C 270.000 350.143,270.180 350.064,270.400 350.200 C 270.620 350.336,270.800 350.167,270.800 349.824 C 270.800 349.347,271.248 349.199,272.700 349.194 C 274.783 349.187,275.855 348.736,275.428 348.045 C 275.240 347.741,275.795 347.600,277.180 347.600 C 278.713 347.600,279.375 347.405,279.893 346.800 C 280.348 346.268,281.073 346.000,282.056 346.000 C 283.886 346.000,284.800 345.669,284.800 345.008 C 284.800 344.691,285.571 344.428,286.867 344.303 C 288.130 344.182,289.120 343.851,289.411 343.452 C 289.699 343.059,290.458 342.800,291.321 342.800 C 292.239 342.800,292.943 342.542,293.277 342.083 C 293.616 341.618,294.435 341.323,295.599 341.245 C 297.634 341.109,298.117 340.913,297.777 340.362 C 297.647 340.152,297.689 340.021,297.870 340.072 C 298.981 340.380,302.453 339.515,302.248 338.981 C 302.032 338.418,303.552 338.157,305.730 338.384 C 306.171 338.430,306.545 338.132,306.676 337.630 C 306.863 336.917,307.203 336.800,309.084 336.800 C 310.938 336.800,311.307 336.677,311.484 336.000 C 311.681 335.247,313.427 334.892,315.531 335.177 C 315.823 335.217,316.159 334.878,316.278 334.425 C 316.451 333.762,316.813 333.600,318.121 333.600 C 319.180 333.600,320.037 333.329,320.574 332.825 C 321.108 332.324,322.107 332.005,323.400 331.924 C 324.854 331.833,325.400 331.635,325.400 331.199 C 325.400 330.749,325.983 330.570,327.743 330.479 C 329.671 330.379,330.122 330.219,330.290 329.579 C 330.456 328.942,330.847 328.800,332.433 328.800 C 333.962 328.800,334.462 328.631,334.800 328.000 C 335.142 327.362,335.638 327.200,337.252 327.200 C 338.938 327.200,339.310 327.067,339.484 326.400 C 339.654 325.750,340.030 325.600,341.484 325.600 C 342.668 325.600,343.618 325.329,344.291 324.800 C 344.850 324.360,345.809 324.000,346.421 324.000 C 348.063 324.000,349.010 323.579,348.334 323.150 C 347.997 322.937,348.472 322.810,349.620 322.806 C 350.621 322.803,351.656 322.584,351.920 322.320 C 352.184 322.056,352.400 321.994,352.400 322.182 C 352.400 322.370,352.720 322.235,353.110 321.881 C 353.501 321.528,354.463 321.168,355.248 321.081 C 356.836 320.906,357.707 320.496,357.432 320.052 C 357.333 319.892,357.825 319.718,358.526 319.667 C 360.716 319.507,361.212 319.367,362.002 318.691 C 362.424 318.330,363.523 317.990,364.443 317.935 C 365.665 317.863,366.168 317.643,366.305 317.118 C 366.456 316.541,366.910 316.400,368.620 316.400 C 370.354 316.400,370.790 316.261,370.986 315.643 C 371.118 315.227,371.581 314.794,372.013 314.681 C 372.795 314.476,373.333 100.255,372.557 98.233 C 372.163 97.205,368.391 97.347,368.116 98.400 "
          stroke="none" fill="rgb(117, 117, 117)" fill-rule="evenodd"></path>
    <path id="path3" d="" stroke="none" fill="#ffbf00" fill-rule="evenodd"></path>
    <path id="path4" d="" stroke="none" fill="#ffff00" fill-rule="evenodd"></path>
  </g>
</svg>
