<?xml version="1.0" encoding="UTF-8"?>
<svg width="13px" height="13px" viewBox="0 0 13 13" version="1.1" xmlns="http://www.w3.org/2000/svg" xmlns:xlink="http://www.w3.org/1999/xlink">
    <!-- Generator: Sketch 49.2 (51160) - http://www.bohemiancoding.com/sketch -->
    <title>guy</title>
    <desc>Created with Sketch.</desc>
    <defs>
        <circle id="path-1" cx="3" cy="3" r="3"></circle>
    </defs>
    <g id="guy" stroke="none" stroke-width="1" fill="none" fill-rule="evenodd">
        <g id="NetworkingContentDelivery/AmazonRoute53/AmazonRoute53-Copy" transform="translate(1.000000, 0.000000)" fill-rule="nonzero">
            <g id="Group">
                <polygon id="Shape" fill="#F58536" points="7.81161765 11.8632927 5.49029412 13 5.49029412 0 7.81161765 1.13829268"></polygon>
                <polygon id="Shape" fill="#9D5025" points="3.16897059 11.8632927 5.49029412 13 5.49029412 0 3.16897059 1.13829268"></polygon>
                <polygon id="Shape" fill="#F58536" points="4.61514706 4.73073171 0.700441176 4.24243902 0.700441176 2.34792683 4.61514706 3.25"></polygon>
                <polygon id="Shape" fill="#9D5025" points="0 2.69036585 0.700441176 2.34792683 0.700441176 4.24243902 0 4.43268293"></polygon>
                <polygon id="Shape" fill="#6B3A19" points="4.61514706 4.73073171 3.80470588 4.84804878 0 4.43268293 0.700441176 4.24243902"></polygon>
                <polygon id="Shape" fill="#F58536" points="10.4192647 8.1345122 11 8.01719512 11 6.5 10.4192647 6.5"></polygon>
                <polygon id="Shape" fill="#9D5025" points="6.35735294 7.7904878 10.4192647 8.16146341 10.4192647 6.5 6.35735294 6.5"></polygon>
            </g>
        </g>
        <g id="Group-2" transform="translate(3.000000, 4.000000)" fill-rule="nonzero">
            <g id="Oval">
                <use fill="#2D404E" fill-rule="evenodd" xlink:href="#path-1"></use>
                <circle stroke="#FFFFFF" stroke-width="0.5" cx="3" cy="3" r="3.25"></circle>
            </g>
            <path d="M6,3.03636297 C6,2.43871032 5.88178403,1.87444515 5.55912884,1.42105263 C5.55912884,1.42105263 5.38550123,1.66401807 5.41573639,1.82358061 C5.44594952,1.98316642 5.62349293,1.99534917 5.60525707,2.11240592 C5.58702122,2.22946266 5.45605361,2.07890628 5.29483983,2.38739618 C5.13363707,2.69590936 5.2142715,3.12157237 5.44594952,3.15343135 C5.67763855,3.18526706 6,3.03636297 6,3.03636297 Z" id="Shape" fill="#F58536"></path>
            <path d="M3.86578327,0.157894737 C4.2508631,0.2407679 4.60069943,0.404142681 4.89473684,0.590820312 C4.89473684,0.590820312 4.54003806,0.506837069 4.39471394,0.609854723 C4.24940275,0.712903116 4.03747121,0.956512099 3.86577034,0.609854723 C3.69409532,0.263217839 3.86578327,0.157894737 3.86578327,0.157894737 Z" id="Shape" fill="#F58536"></path>
            <path d="M0.631578947,1.06835081 C1.17352935,0.441759749 1.97002169,0 2.85627311,0 C2.85627311,0 2.65565513,0.123243834 3.03584515,0.332181745 C3.41604673,0.541143095 3.2417766,0.637560652 3.16257131,0.701854649 C3.08337757,0.766148646 2.94600138,0.573278374 2.85627311,0.444713819 C2.7665333,0.316114106 2.38115687,0.117911393 2.08542785,0.225087588 C1.78971038,0.332263783 1.53630427,0.411430015 1.57851167,0.511140793 C1.62070752,0.610828131 2.12763525,0.418028177 2.31773026,0.428693059 C2.50782527,0.439381379 2.44445642,0.557222454 2.26495369,0.696533928 C2.08542785,0.835845401 2.0642664,1.00726871 2.25437296,1.11440975 C2.44445642,1.22159766 2.67674728,1.23232114 2.72961626,1.16803887 C2.78245059,1.10374487 2.63456298,0.685857327 2.9936493,0.8679924 C3.35273563,1.05012747 3.6484531,1.15736227 3.35273563,1.42520313 C3.05700661,1.69302056 2.71908174,1.99314907 2.70850101,2.1645255 C2.69792028,2.33592538 2.81414657,2.47533061 2.75077772,2.48599549 C2.68740886,2.49666037 2.62924952,2.41636905 2.58703057,2.35739577 C2.54483472,2.29845766 2.34941469,2.27705758 2.25437296,2.3145253 C2.15931968,2.35199302 1.97975919,2.49666037 2.08011438,2.63597184 C2.18048113,2.77530676 2.31766096,2.71093072 2.45499094,2.77523644 C2.59229783,2.83953043 2.7203408,3.084225 2.6940507,3.13953002 C2.66776059,3.19481161 2.55071418,3.12481014 2.45499094,2.93597143 C2.3592446,2.74710928 2.17967256,2.87167743 2.05332759,2.83953043 C1.92697106,2.80739516 1.83191778,2.78597164 1.70518007,2.56094265 C1.57844236,2.3359371 1.31606112,2.27296742 1.20884462,2.14306682 C0.90171475,1.77096795 0.923684776,1.48945025 0.860327473,1.36087398 C0.796958619,1.23226255 0.654783817,1.10411741 0.631578947,1.06835081 Z" id="Shape" fill="#F58536"></path>
            <path d="M3.37773126,3.00743112 C3.37773126,3.00743112 3.70499325,3.03985042 3.86861828,3.18062219 C4.03224331,3.32137027 4.05410134,3.37552874 4.30497953,3.42963985 C4.55585772,3.48372728 4.66496891,3.624428 4.50133195,3.89510195 C4.33770692,4.16574037 4.0431246,4.59878317 3.90134567,4.72869719 C3.75957868,4.85862305 3.58502463,4.96686895 3.51956985,5.18337259 C3.45412699,5.39985254 3.43226896,5.52968368 3.57409562,5.61635618 C3.57409562,5.61635618 3.4977834,5.80041683 3.32322936,5.56224507 C3.14866338,5.32404963 3.29049003,5.0426245 3.32322936,4.88023198 C3.35594482,4.71786313 3.44319798,4.23075659 3.38866028,4.11161742 C3.33415837,3.99251378 3.0832086,3.91671087 3.01775381,3.66776425 C2.95229903,3.41880579 3.06685087,2.934316 3.37773126,3.00743112 Z" id="Shape" fill="#F58536"></path>
        </g>
    </g>
</svg>